<?xml version="1.0" encoding="utf-8"?>
<!-- Generator: Adobe Illustrator 26.0.0, SVG Export Plug-In . SVG Version: 6.00 Build 0)  -->
<svg version="1.1" id="Layer_1" xmlns="http://www.w3.org/2000/svg" xmlns:xlink="http://www.w3.org/1999/xlink" x="0px" y="0px"
	 viewBox="0 0 242 256" style="enable-background:new 0 0 242 256;" xml:space="preserve">
<style type="text/css">
	.svgFrame{fill-rule:evenodd;clip-rule:evenodd;fill:#96989A;}
</style>
<g>
	<path class="svgFrame" d="M234.7,134.8c-0.4,0.4-0.9,0.8-1.3,1.3C233.8,135.7,234.2,135.3,234.7,134.8z"/>
	<path class="svgFrame" d="M233.5,136.1c-0.4,0.4-0.9,0.8-1.3,1.3C232.6,137,233.1,136.6,233.5,136.1z"/>
	<path class="svgFrame" d="M230,139.2c-0.5,0.4-0.5,0.5-1.2,1.2c0.2-0.2,0.5-0.4,0.7-0.7C229.8,139.4,229.7,139.5,230,139.2z"/>
	<path class="svgFrame" d="M216.1,150.4l-0.6,0.5c-0.3,0.3-0.6,0.6-0.9,0.9C215.1,151.4,215.6,150.9,216.1,150.4z"/>
	<path class="svgFrame" d="M231,138.5c0.2-0.3-0.8,0.6-1,0.9c0,0.1,0.3-0.3,0.7-0.6C230.8,138.7,230.8,138.7,231,138.5z"/>
	<path class="svgFrame" d="M214,152.3c-0.6,0.5-0.6,0.5-0.9,0.7c-0.2,0.3-0.1,0.2,0.4-0.1C213.6,152.7,213.8,152.5,214,152.3z"/>
	<path class="svgFrame" d="M222.2,146.5c0.2-0.2-0.9,0.7-1.2,1.1C221.5,147.3,221.8,146.8,222.2,146.5z"/>
	<path class="svgFrame" d="M208.2,157.3c-0.2,0.2-0.6,0.6-0.5,0.4c-0.3,0.2-0.6,0.6-0.9,0.9c-0.3,0.1-0.8,0.6-1.4,1.1
		c0.1,0.2-0.9,1.1-1.7,1.9c0.5-0.4,0.9-0.8,1.4-1.2c-0.1-0.1,0.2-0.3,0.8-1c0.1,0,0.1,0,0.3-0.2c0.4-0.4,0.8-0.8,1.2-1.1
		C207.9,157.7,208.2,157.3,208.2,157.3z"/>
	<path class="svgFrame" d="M220.3,148.3l-0.6,0.5c0,0-0.1,0.2-0.4,0.5C219.1,149.5,220.1,148.6,220.3,148.3z"/>
	<path class="svgFrame" d="M218.7,150.5c-0.4,0.4-0.9,0.8-1.3,1.3C217.9,151.4,218.7,150.6,218.7,150.5z"/>
	<path class="svgFrame" d="M195.4,168.2c-0.5,0.3-1.2,1-1.2,1.1C194.6,169,195.1,168.7,195.4,168.2z"/>
	<path class="svgFrame" d="M214.4,154.7c-0.5,0.5-1,0.8-1.5,1.4C213.4,155.6,213.9,155.2,214.4,154.7z"/>
	<path class="svgFrame" d="M198.4,167.8c-0.7,0.6-0.5,0.6-1.3,1.4c0.2-0.2,0.4-0.4,0.6-0.5C197.9,168.3,198.7,167.8,198.4,167.8z"/>
	<path class="svgFrame" d="M209.5,159.8c-0.1,0.2,0.9-0.8,1.2-1C211.2,158.3,210,159.4,209.5,159.8z"/>
	<path class="svgFrame" d="M204.4,164.6c-0.5,0.5-1,0.9-1.4,1.5c0.6-0.5,1.2-1.1,1.8-1.6C205.2,163.9,203.9,165.1,204.4,164.6z"/>
	<path class="svgFrame" d="M186.4,177.6c0.1-0.3-0.9,0.8-1.2,1C185.1,178.9,186.1,177.9,186.4,177.6z"/>
	<path class="svgFrame" d="M185.6,179.1c0.4-0.2,0.7-0.7,1.1-0.9c0.2-0.3,0.2-0.4-0.1-0.2C186.3,178.5,185.6,179,185.6,179.1z"/>
	<path class="svgFrame" d="M176.2,185.5c-0.6,0.4-1.2,0.9-1.6,1.5C175.2,186.5,175.7,186.1,176.2,185.5z"/>
	<path class="svgFrame" d="M208.6,162.3c-0.3,0.2-0.6,0.5-0.9,0.8c-0.5,0.6-0.1,0.3,0.4-0.1C208.2,162.8,208.4,162.6,208.6,162.3z"/>
	<path class="svgFrame" d="M204.4,165.6c-0.4,0.3-0.8,0.7-1.2,1C203.1,166.9,204.2,166,204.4,165.6z"/>
	<path class="svgFrame" d="M205.5,165.3c-0.1,0.1-0.2,0.2-0.3,0.3c-1.2,1-2.3,2.3-3.5,3.3c-0.6,0.7-0.2,0.4-0.5,0.8
		c0.7-0.6,0.5-0.6,1-1.1c0.6-0.5,0.2-0.1,0.8-0.6c0-0.2,0.8-0.9,1.2-1.5c0.4-0.2,0.7-0.6,1.1-0.9C205.9,165,204.9,166,205.5,165.3z"
		/>
	<path class="svgFrame" d="M178.5,185.6c0.3-0.3-0.5,0.6-0.7,0.8c-0.2,0.4,0.5-0.6,0.8-0.6c0.6-0.6,0.2-0.3,0.3-0.6
		c-0.4,0.3-0.8,0.7-1.2,1C177.3,186.6,178.1,186,178.5,185.6z"/>
	<path class="svgFrame" d="M216.2,157.2c-0.5,0.4-1,0.8-1.4,1.4C215.2,158.1,215.7,157.7,216.2,157.2z"/>
	<path class="svgFrame" d="M216.4,157.2c0.2-0.3-0.7,0.7-1,1C215.8,157.9,216,157.5,216.4,157.2z"/>
	<path class="svgFrame" d="M214.4,159c-0.3,0.4-0.2,0.3-0.4,0.6c0.2-0.2,0.5-0.5,0.7-0.7C214.9,158.7,214.7,158.8,214.4,159z"/>
	<path class="svgFrame" d="M176.7,187.3c-0.1-0.2-1.2,1-1.7,1.4C174.7,189.3,176.2,187.8,176.7,187.3z"/>
	<path class="svgFrame" d="M219.9,154.9c-0.4,0.4-1,1.2-1.7,2.1C218.8,156.3,219.4,155.7,219.9,154.9z"/>
	<path class="svgFrame" d="M171.1,192.4c0.1,0.1,0.9-0.5,1.2-1C172.2,191.3,171.4,191.9,171.1,192.4z"/>
	<path class="svgFrame" d="M205.6,167.3c-0.5,0.4-2.1,2.1-1.2,1.4C204.7,168.2,205.2,167.8,205.6,167.3z"/>
	<path class="svgFrame" d="M194.9,175.8c-0.2,0-1.5,1.3-2,2c0.3-0.3,0.2-0.1,0.1,0.1C193.7,177.3,194.2,176.4,194.9,175.8z"/>
	<path class="svgFrame" d="M212.3,162.3c-0.6,0.5-1.1,1.1-1.7,1.7C211.2,163.4,211.8,163,212.3,162.3z"/>
	<path class="svgFrame" d="M168.2,195c-0.2,0.2-0.4,0.4-0.3,0.2c-0.9,1-1.9,1.7-2.7,2.7C166.5,196.6,167.4,196.3,168.2,195z"/>
	<path class="svgFrame" d="M199.3,173.6c-0.4,0.2-0.6,0.7-1,1.1c0.2-0.2,0.4-0.4,0.6-0.5C199,174.1,199.1,173.9,199.3,173.6z"/>
	<path class="svgFrame" d="M164.9,198.2c0.3-0.4-0.5,0.4-0.7,0.4c0.4-0.1-0.5,0.5-0.9,1.1c0.4-0.2,0.6-0.8,1-0.9
		C164.5,198.6,164.7,198.4,164.9,198.2z"/>
	<path class="svgFrame" d="M163.1,199.8c-1,0.9-1.3,0.8-2,1.7c1-0.8-0.1,0.4,0.8-0.3C161.8,201,162.7,200.4,163.1,199.8z"/>
	<path class="svgFrame" d="M199.4,175.1c-0.7,0.7-1.5,1.7-0.9,1.2C199,175.7,199.2,175.5,199.4,175.1z"/>
	<path class="svgFrame" d="M158.1,204.6c-0.7,0.4-1.2,1.1-1.8,1.6c-0.3,0.2,0-0.2,0.3-0.6c-1.1,0.9-0.8,1.1-2.2,2.4
		c0.4-0.2,0.4-0.2,1-0.7c0.6-0.7-0.2,0.2-0.5,0.3C155.9,206.6,157.1,205.7,158.1,204.6z"/>
	<path class="svgFrame" d="M175.2,194.4c-0.7,0.5-1.3,1.4-1.5,1.7C174.3,195.5,175.1,194.8,175.2,194.4z"/>
	<path class="svgFrame" d="M185.6,187.2c-0.5,0.5-0.2,0.1-0.6,0.5c-0.2,0.3,0,0.2,0,0.3C185.2,187.8,185.4,187.5,185.6,187.2z"/>
	<path class="svgFrame" d="M172.3,200c-0.6,0.6-1.3,1.2-1.8,1.9C171,201.3,172.2,200.3,172.3,200z"/>
	<path class="svgFrame" d="M183.1,194.4c-0.4,0.3-0.7,0.6-1,0.9c-0.5,0.6,0.8-0.7,0.4-0.1C182.7,195,182.9,194.7,183.1,194.4z"/>
	<path class="svgFrame" d="M191.1,188.4c-0.6,0.5-1.1,1.2-1.6,1.9C190.1,189.7,191.1,188.6,191.1,188.4z"/>
	<path class="svgFrame" d="M156.8,213.9c-0.2,0.1-0.4,0.3-0.6,0.4c0,0.1,0,0.2-0.3,0.3C155.7,215.1,156.7,214.2,156.8,213.9z"/>
	<path class="svgFrame" d="M180.1,198.6c-0.7,0.5-1.2,1.3-1.9,1.7c-0.2,0.3,0.2,0,0.3,0.1c-0.4,0.5-1,1-0.9,1.1c0.4-0.3,0.6-0.8,1-1
		C178.6,200,179.5,199.4,180.1,198.6z"/>
	<path class="svgFrame" d="M154.5,217.3c-0.2,0.2-0.5,0.4-0.7,0.7c-0.4,0.5,0.1,0.2,0.6-0.2C154.9,217.1,153.9,218,154.5,217.3z"/>
	<path class="svgFrame" d="M172,207.1c-0.1-0.1-2,1.8-2,2C170.6,208.5,171.2,207.7,172,207.1z"/>
	<path class="svgFrame" d="M173.8,206.9c-0.5,0.4-1,0.9-1.4,1.5C172.9,207.9,173.4,207.5,173.8,206.9z"/>
	<path class="svgFrame" d="M164.6,213.8c-0.5,0.5-1,0.9-1.4,1.4C163.7,214.8,164.2,214.4,164.6,213.8z"/>
	<path class="svgFrame" d="M159.3,218.8c-0.4,0.3-0.7,0.7-1,1c-0.1,0.2,0.3-0.1,0.5-0.3L159.3,218.8z"/>
	<path class="svgFrame" d="M157.2,221c-0.4,0.3-0.8,0.8-1.2,1.1C155.9,222.3,157,221.5,157.2,221z"/>
	<path class="svgFrame" d="M133.7,237.3C133.6,237.5,133.7,237.4,133.7,237.3c-0.1,0.3-0.4,0.4-0.6,0.6c-0.3,0.4-0.1,0.4-0.6,0.9
		c-0.4,0.6,0.8-0.7,0.4-0.2C133.3,238.1,134.6,236.7,133.7,237.3z"/>
	<path class="svgFrame" d="M132.2,239.1c-0.2,0.1-0.4,0.3-0.6,0.6c-0.2,0.2-0.5,0.3-0.4,0.2c-0.3,0.2-0.5,0.5-0.7,0.8l0.8-0.5
		C131.7,239.7,132,239.5,132.2,239.1z"/>
	<path class="svgFrame" d="M128.6,241.8c-0.4,0.4-0.8,0.8-1.2,1.3C127.8,242.8,128.2,242.3,128.6,241.8z"/>
	<path class="svgFrame" d="M149.1,228.4c-0.6,0.6-0.5,0.7-0.1,0.5C149.7,228.3,149,228.6,149.1,228.4z"/>
	<path class="svgFrame" d="M150.5,227.7c-0.8,0.7-1.9,1.7-2.1,2.2C149.1,229.1,149.9,228.6,150.5,227.7z"/>
	<path class="svgFrame" d="M148.1,229.5c-0.5,0.5-1,0.9-1.4,1.5c0.5-0.4,1-0.9,1.5-1.4C148.3,229.4,148,229.7,148.1,229.5z"/>
	<path class="svgFrame" d="M145.4,231.3c-1.2,1.3-1.6,1.5-0.6,1C145.3,231.6,145.2,231.6,145.4,231.3z"/>
	<path class="svgFrame" d="M124.1,246.3c-0.2,0.2-0.5,0.4-0.7,0.6l-0.2,0.2c-0.1,0-0.1-0.1-0.2-0.2c-0.1-0.1-0.3-0.2-0.4-0.3l0.4,0.4
		l0.2,0.2c0.1,0,0.1-0.1,0.2-0.1C123.6,246.9,123.8,246.6,124.1,246.3z"/>
	<path class="svgFrame" d="M117.1,240.6c-1.5-1.3-2.5-2.5-3.5-3.2c1,1.1,2.1,2.1,3.2,3.1c0.1,0.2-0.2-0.1-0.4-0.2
		C117.3,241.4,117.5,241.3,117.1,240.6z"/>
	<path class="svgFrame" d="M136.8,240.1c-0.8,0.7-0.1,0.5-0.6,0.9C136.3,241.2,137.1,239.9,136.8,240.1z"/>
	<path class="svgFrame" d="M136.1,240.9c-0.5,0.4-0.9,0.8-1.3,1.3C135.3,241.8,135.8,241.4,136.1,240.9z"/>
	<path class="svgFrame" d="M110.4,234.1c-0.2-0.2-0.3-0.4-0.5-0.6c-0.3-0.3-0.2-0.1-0.6-0.4C109.7,233.5,110,233.8,110.4,234.1z"/>
	<path class="svgFrame" d="M123.1,252.2c-0.3-0.2,0.2,0.4-0.7-0.4c0.1,0.1,0.3,0.3,0.4,0.4l0.2,0.2l0.1,0.1l0,0c0,0,0,0,0,0
		c0.2-0.3,0.5-0.5,0.6-0.7C123.9,251.5,123.9,251.5,123.1,252.2z"/>
	<path class="svgFrame" d="M99.2,230c-0.5-0.8-1.2-1.3-1.3-1.3C98.2,229.1,98.7,229.6,99.2,230z"/>
	<path class="svgFrame" d="M85.7,214.6c-0.5-0.7-0.6-0.5-1.2-1.4c-0.2-0.3,0.6,0.6,0.8,0.7c-0.5-0.6-1-1.1-1.3-1.3
		c0.3,0.4,0.5,0.6,0.5,0.6c-0.7-0.6-1.1-1.3-1.8-1.9c0.3,0.4,0.7,0.7,0.9,1.1c0.9,0.8,1.5,1.6,1.9,2.1
		C85.4,214.5,84.9,213.8,85.7,214.6z"/>
	<path class="svgFrame" d="M80.5,208.9c-0.2-0.2-0.3-0.4-0.5-0.6c-0.6-0.6-0.6-0.6-0.9-0.9c0.4,0.6,1.3,1.4,0.8,0.9
		C80.2,208.7,80.5,208.8,80.5,208.9z"/>
	<path class="svgFrame" d="M78.6,206.6c0,0-0.6-0.5-1-0.9l0.4,0.5c0.2,0.1,0.3,0.3,0.4,0.4c0.1,0-0.1-0.2,0.5,0.4
		C78.7,206.8,78.8,206.9,78.6,206.6z"/>
	<path class="svgFrame" d="M76.5,204.2c-0.5-0.5-0.9-1-1.4-1.5c0.6,0.7,1.2,1.3,1.7,2C77.1,204.9,76.6,204.4,76.5,204.2z"/>
	<path class="svgFrame" d="M74.1,201.8c0.4,0.4,0.6,0.6,0.3,0.1c-0.2-0.2-0.4-0.4-0.6-0.6C73.8,201.4,73.9,201.6,74.1,201.8z"/>
	<path class="svgFrame" d="M73.8,201.4c-0.2-0.3-0.1-0.1-0.3-0.5c-0.3-0.3-0.2-0.1-0.5-0.4c-0.2-0.2,0.2,0.3,0.3,0.5L73.8,201.4z"/>
	<path class="svgFrame" d="M72.8,200.5c0.1,0.1-0.9-1.1-1.3-1.5C71.9,199.5,72.3,200,72.8,200.5z"/>
	<path class="svgFrame" d="M64.9,191.9c-0.4-0.3-0.7-0.7-1.1-1c0.3,0.4,0.7,0.7,0.9,1C65.1,192.2,65.5,192.5,64.9,191.9z"/>
	<path class="svgFrame" d="M60.6,187.4c-0.3-0.4-0.7-0.8-1.1-1.2l0.5,0.6L60.6,187.4z"/>
	<path class="svgFrame" d="M57.9,184.6l-1.7-1.7c-0.5-0.5,0.8,0.9,0.3,0.4c0.3,0.4,0.3,0.3,0.5,0.4C57.3,184,57.6,184.3,57.9,184.6z"/>
	<path class="svgFrame" d="M55.9,182.8c-0.3-0.3-0.7-0.7-1-1C54.9,181.8,55.3,182.2,55.9,182.8C56.1,183,55.5,182.4,55.9,182.8z"/>
	<path class="svgFrame" d="M52.9,179.4c-0.9-0.9-1.7-1.7-2.6-2.6c-0.6-0.5,1,1.1,1.2,1.5c0.2,0.1,0-0.1,1,0.9c0.5,0.6,0.4,0.5,1.2,1.3
		C53.9,180.5,53.6,180.2,52.9,179.4z"/>
	<path class="svgFrame" d="M52.5,179.3c-0.6-0.6-1.2-1.2-1.8-1.9C50.7,177.5,51.9,178.8,52.5,179.3z"/>
	<path class="svgFrame" d="M49.5,176.3c-0.2-0.2-0.5-0.5-0.7-0.7c-0.4-0.4,0.3,0.4-0.3-0.1C48.8,175.7,49.1,176,49.5,176.3
		C48.9,175.7,48.8,175.7,49.5,176.3z"/>
	<path class="svgFrame" d="M45.3,172.1c-0.2-0.2-0.4-0.5-0.7-0.7c0.1,0.1-0.3-0.2,0,0.2C44.8,171.6,44.9,171.8,45.3,172.1z"/>
	<path class="svgFrame" d="M8.6,118.5c0.7-0.7,1.4-1.5,2-2.3c-0.6,0.6-1.2,1.2-1.8,1.8C8.6,118.3,8.7,118.3,8.6,118.5z"/>
	<path class="svgFrame" d="M21.8,103.6c0.4-0.2,0.6-0.7,1-1C22.9,102.3,22,103.3,21.8,103.6z"/>
	<path class="svgFrame" d="M36,88.8c0.1,0.1,1.3-1.1,1.7-1.7C37.1,87.6,36.6,88.2,36,88.8z"/>
	<path class="svgFrame" d="M43,81.7c0.6-0.8,1.9-2,2-2.4C44.3,80,43.1,81.3,43,81.7z"/>
	<path class="svgFrame" d="M56.7,67.2c0.6-0.5,1-1.1,1.6-1.6C58.2,65.5,57,66.6,56.7,67.2z"/>
	<path class="svgFrame" d="M71.7,52.7c0-0.1,0.3-0.6,0.3-0.7c-0.3,0.3-0.6,0.6-0.8,0.9C71.4,52.7,71.3,52.9,71.7,52.7z"/>
	<path class="svgFrame" d="M123.4,20.7c0.1,0.2,0.2,0.2,0.3,0.2c0.1,0,0.3,0.1,0.3,0.3c0-0.2-0.1-0.4-0.2-0.4
		C123.7,20.7,123.5,20.7,123.4,20.7z"/>
	<path class="svgFrame" d="M124.2,21.1c0,0.3,0.1,0.4,0.2,0.4C124.3,21.3,124.3,21.2,124.2,21.1z"/>
	<path class="svgFrame" d="M97.8,25c0.1-0.2,0-0.2-0.3,0c1-1,1.2-1.2,2.2-2.4c-1,0.9-2,1.8-2.9,2.9C97.6,25,97.4,25.3,97.8,25z"/>
	<path class="svgFrame" d="M102.8,21c-0.1-0.1,0.5-0.8-0.1-0.5C102.1,21.1,102.2,21.3,102.8,21z"/>
	<path class="svgFrame" d="M101,21.6c-0.1,0.2,0.3-0.1,0.5-0.2c0.3-0.4,0.4-0.7,0.4-0.8C101.6,20.8,101.4,21.4,101,21.6z"/>
	<path class="svgFrame" d="M145.3,21.2c0.5,0.6,0.8,0.7,1.1,0.9c-0.3-0.3-0.6-0.6-0.9-0.8C145.6,21.4,145.4,21.2,145.3,21.2z"/>
	<path class="svgFrame" d="M147.8,23.1c0.3,0.4,1,0.8,1,0.8C148.3,23.2,147.9,23,147.8,23.1z"/>
	<path class="svgFrame" d="M150.1,25.9c1.1,1.3,2.4,2.5,3.7,3.8c-0.1-0.4,0.6,0.4,1.2,0.9C153.3,28.8,152,27.8,150.1,25.9z"/>
	<path class="svgFrame" d="M154.4,30.2c0.4,0.6,1.1,1,1.6,1.6C155.6,31.2,155.1,30.7,154.4,30.2z"/>
	<path class="svgFrame" d="M156.6,32.4c0.6,0.6,1,1.2,1.7,1.8C158.3,34,157.3,32.8,156.6,32.4z"/>
	<path class="svgFrame" d="M157.9,34.1c0.7,0.7,0.9,1.1,1.2,1.6c0.5,0.3,0.8,0.6,0.6,0.1C159.4,35.8,158.5,34.6,157.9,34.1z"/>
	<path class="svgFrame" d="M160.6,33.9c-0.3-0.1,0.7,0.9,1.1,1.2c-0.1-0.3-0.4-0.5-0.6-0.8C160.8,34.1,160.8,34.3,160.6,33.9z"/>
	<path class="svgFrame" d="M165.8,41.6C165.6,41.5,165.7,41.6,165.8,41.6c0,0.2,0.1,0.3,0.1,0.4c0.5,0.3,1.8,1.9,2.8,2.7
		c-0.1-0.2-0.1-0.3,0-0.2c-0.7-0.6-1.4-1.3-2.1-2c-0.5-0.8,0.4,0.3,0.5,0.1c-0.2-0.4-0.8-0.6-1.1-1
		C165.9,41.5,166.5,42.5,165.8,41.6z"/>
	<path class="svgFrame" d="M163.1,36.6c0.9,0.9,1.8,1.9,2.8,2.7C165,38.4,164.1,37.5,163.1,36.6z"/>
	<path class="svgFrame" d="M169.5,45.4c0.5,0.5,0.2,0.6,0.9,1.3c-0.1-0.3,0.1-0.3,0.8,0.5C170.7,46.5,170.1,46,169.5,45.4z"/>
	<path class="svgFrame" d="M170.7,46.3c0.6,0.7,1.3,1.4,2,2C171.8,47.3,171.6,47.2,170.7,46.3z"/>
	<path class="svgFrame" d="M176.9,53c0.2,0.2-0.3-0.5,0-0.2c-0.9-1-2.1-1.8-2.9-2.9C173.7,50.1,176.1,52,176.9,53z"/>
	<path class="svgFrame" d="M173.9,49.5c0.9,1.1,2,2,3.1,3C176.1,51.4,174.9,50.5,173.9,49.5z"/>
	<path class="svgFrame" d="M176.6,51.6c-0.2,0,1,1.1,1.4,1.5C177.6,52.6,177,52.2,176.6,51.6z"/>
	<path class="svgFrame" d="M176.9,52.3c0.7,0.9,1.4,1.8,2.4,2.5C178.4,54.1,177.8,53.1,176.9,52.3z"/>
	<path class="svgFrame" d="M180.7,56.8c-0.7-1,0.4,0,0.9,0.6C181.8,57.9,181.1,57.2,180.7,56.8c0.2,0.5,0.8,0.8,1,1.2
		c0.5,0.1,2.6,1.9,3.5,2.8c0.2-0.2-2-2-2.2-2c0.1-0.2-1-1.2-0.5-0.9c-1.2-1-2.3-1.8-4-3.2C179.1,55.6,179.9,56.2,180.7,56.8z"/>
	<path class="svgFrame" d="M184.6,60.7c-0.2-0.1,0.1,0.3,0.3,0.5c0.4,0.4,0.9,0.7,1.2,1.1c0.1,0-0.1-0.2,0.3,0.1
		c-0.2-0.3-0.5-0.6-0.8-0.9C185.2,61.1,185.3,61.6,184.6,60.7z"/>
	<path class="svgFrame" d="M186,62.6c0.4,0.5,1.4,1.5,0.9,0.6C186.3,62.7,186.4,62.9,186,62.6z"/>
	<path class="svgFrame" d="M187.2,63.3c-0.4-0.2,0.6,0.7,0.7,1c0.2,0.1,0.1-0.1,0.7,0.5C188.2,64.3,187.6,63.8,187.2,63.3z"/>
	<path class="svgFrame" d="M241,128.8c0.2-0.2-0.5,0.5,0.1-0.1c0.3-0.3,0.5-0.5,0.7-0.7c-1.2,1.1,0.5-0.6-0.7,0.7
		c-1.2,1.2-2.5,2.5-3.7,3.6c-0.6,0.6-0.8,0.8-1,1c-0.1,0.1,0.2-0.2,0,0.1c-0.5,0.6-0.2,0.1-0.7,0.6c-0.1,0.2-0.4,0.5-1.2,1.3
		c0.5-0.5,1.1-1.1,1.6-1.6c0.4-0.4,0.9-0.8,1.3-1.3c0.9-0.8,2.4-2.3,2.9-2.8c0.7-0.7-0.7,0.7-1,0.9
		C239.9,129.9,240.3,129.4,241,128.8z"/>
	<path class="svgFrame" d="M228.4,140.5c-0.8,0.7-1.6,1.5-2.3,2.2c0.5-0.5,0.2-0.1,0.6-0.5C226.9,141.9,227.7,141.2,228.4,140.5z"/>
	<path class="svgFrame" d="M224.7,144c-0.4,0.4-0.6,0.6-0.1,0.2c-0.2,0.2-0.4,0.4-0.6,0.5c-0.5,0.6-0.4,0.4-0.7,0.8
		c-0.9,0.8-1.8,1.6-2.6,2.6c-1.1,0.8-2.1,2-3.2,3c0-0.2,1.6-1.6,1.7-1.9c-1.6,1.6-2.6,2.4-4.4,4.3c-0.5,0.3-0.8,0.5-1.5,1.4
		c-0.4,0.3-0.3,0,0.4-0.6c-0.3,0.2-0.5,0.5-0.7,0.7c0.3-0.2-0.6,0.8,0.1,0.2c-1.1,0.9-2,2-3.1,3c1.3-1.4,2.1-2.3,2.4-2.6
		c-0.5,0.3-2.1,2.1-3,3c-0.1,0-1.1,0.9-1.6,1.5c-0.1,0.1,0.2-0.1,0,0.1c-0.1,0.2-0.3,0.3-0.4,0.4c-0.1,0,0.2-0.3-0.2,0
		c-1.2,1.2-2.4,2.4-3.6,3.6c-0.1,0.1,0,0-0.2,0.1c1.3-1.3,1.7-1.8,2.9-3c-1.1,0.9-2.1,1.9-3.1,2.9c-0.3,0.4,0.5-0.4,0.6-0.5
		c-0.2,0.3-0.5,0.5-0.7,0.8c-0.7,0.6-0.3,0-1,0.6c-0.3,0.3-0.1,0.2-0.4,0.5c0.2-0.1,0.3-0.3,0.4-0.4c0.4-0.3,0.4,0,0.6-0.5
		c0.9-0.7-0.1,0.3-0.7,0.9c0.7-0.8-0.9,0.7-0.4,0.1c-0.4,0.3-0.7,0.9-1.1,1.2c-0.5,0.3,0.5-0.7,1-1.1c0.3-0.4-0.4,0.2-0.1-0.2
		c-0.6,0.4-1.1,1.1-1.6,1.5c0-0.1,0.6-0.6,0.8-1c-0.6,0.4-1.1,1.1-1.7,1.5c-0.2,0.3,0.7-0.6,0.9-0.7c-0.4,0.4-0.9,0.8-1.3,1.2
		c0.7-0.5,0.4-0.1,0.3,0.1c-0.1,0.2-0.3,0.3-0.4,0.4c-0.7,0.6,0.3-0.4-0.4,0.1c-0.6,0.8-4.1,3.9-3.9,3.5c-0.3,0.5-0.9,0.9-0.8,1
		c-0.8,0.7-0.3,0.1-0.8,0.5c0.7-0.7,1.4-1.5,2.2-2.1c-0.5,0.3-2.2,1.9-3.1,2.8c-0.3,0.2,0.2-0.3-0.4,0.1c-0.6,0.7-1.2,1.4-2.2,2.1
		c0,0.2-0.6,0.8-0.2,0.5c-0.5,0.3-1,1-1.8,1.6c0.5-0.2-1.2,1.2-1.1,1.3c-1.1,0.9,0.5-0.7-0.3-0.1c-0.4,0.5-0.8,1-1.3,1.3
		c-0.1,0,0-0.2,0-0.3c1.5-1.5,3-2.8,4.1-4c-0.4,0.2-0.7,0.7-1.1,0.9c-1.8,2.1-3.9,3.4-5.7,5.5c-2,1.5-5.3,5-6.3,5.6
		c-0.6,0.5-1.2,1.1-1.8,1.6c-0.2,0.5-1.3,1.3-2,2.1c-0.1,0,0.1-0.3-0.2,0c0,0.2-1,1.2-1,1c-1.5,1.7-3.3,3-4.8,4.6
		c0.5-0.4-0.3,0.5-0.5,0.7c-0.3,0.2,0.5-0.7,0.3-0.6c-1.4,1.2-2.7,2.7-4.1,4c-0.1-0.3-1.7,1.3-1.9,1.7c-0.4,0.2-0.6,0.5-0.9,0.7
		c-0.5,1-3.8,3.4-5.3,5.4c-1.5,0.9-3.5,3.7-4.7,4.4c0.5-0.4,0.9-0.9,1.3-1.3c-0.4,0.1-1.7,1.8-2.9,2.8c-0.5,0.4-2.2,1.8-2.2,2.1
		c-0.2,0.4-0.6,0.5-0.9,0.7c-0.9,1.1-2,2-2.9,3.1c-1.3,1.1-3.8,3.6-5.7,5.4c-3.1,3-6.1,6-9.1,9l-0.6,0.6l-0.3,0.3
		c-0.1,0.1-0.2,0.2-0.2,0.2l-0.3,0.5c-0.2,0.3-0.4,0.6-0.7,0.9l-0.4,0.4l-0.2,0.2c-0.1,0-0.1,0.2-0.2,0.1l-0.8-0.7
		c-0.3-0.2-0.5-0.5-0.8-0.8l-0.7-0.7l-1.2-1.1l-4.7-4.4l-9.4-8.7c-12.6-11.5-25.3-23-37.6-34.8c-12.3-11.8-24.3-24-36.2-36.4
		c-5.9-6.2-11.7-12.5-17.5-18.7l-2.2-2.4c-0.7-0.7-1.7-1.8-1.6-1.8l-0.3-0.4l-0.2-0.3c-0.3-0.2,0.1-0.4,0.3-0.6
		c0.3-0.2,0.4-0.4,0.6-0.6l2.4-2.2l4.7-4.3c0.5-0.3,0.1,0-0.1,0.3c-1.9,1.6-3.8,3.4-5.7,5.2l-1.3,1.2l-0.3,0.3
		c-0.1,0.1-0.3,0.2-0.4,0.3l-0.2,0.2c0,0,0,0-0.1,0l0,0l0,0.1c0.2,0.1,0.2,0.1,0.3,0.3c0,0-0.1-0.1-0.2-0.1c0,0.2,0.3,0.3,0.3,0.5
		c0.1,0.1,0.1-0.1,0.2,0c0,0.1,0,0.2,0.1,0.2c0.1,0.2,0.4,0.5,0.6,0.7c0.4,0.5,0.9,1.1,1.4,1.6c1,1.1,2.1,2.2,3.1,3.3
		c1.5,1.7,3,3.4,4.7,5.1c0.2,0.2,0.2,0.2,0.1,0.2c2.5,2.6,5.9,6.3,7.6,8c0.3,0.4,0,0.1,0.5,0.6c0.2,0.1-0.1-0.2-0.2-0.3
		c3,3.4,5.7,5.9,8.9,9.4c0.4,0.3,1.9,2,2.7,2.8c1.3,1.3,2.3,2.3,2.8,2.9c1.2,1.2,2.3,2.3,3.4,3.5c0.7,0.6-0.3-0.4,0.4,0.3
		c0.2,0.1,0.8,0.9,0.5,0.6c0.8,0.8,1.5,1.5,2.3,2.3c0.3,0.3,0.1,0.2-0.1,0c1.1,1,2,2,3.1,3c0,0.1,0.1,0.1,0.8,0.9
		c0,0,0.4,0.3,0.8,0.7c0,0,0.1,0.2,0.4,0.4c0.8,0.6,2,2.1,3.5,3.4c0.2,0.3,0.2,0.3,0.1,0.2c1.7,1.7,5.7,5.6,6.2,5.9
		c0.9,0.8,1.7,1.7,2.6,2.5c0.7,0.8,2.2,2.2,2.6,2.5c5.5,5.3,10.6,10,16.4,15.3c0.3,0.3,0.2,0.1,0.4,0.2c0.4,0.4,0.6,0.6,1.2,1.3
		c3.2,2.8,7.4,6.9,11.2,10c0.2,0.3,0.1,0.2,0.3,0.5c1.4,1.3,2.9,2.5,4.2,3.8c0-0.1-0.1-0.5,1.2,0.7c0.3,0.4-0.1,0.1,0.7,0.9
		c0.1,0.2-1-0.6-1.1-0.9c-0.7-0.4,0.8,1,0.8,0.8c1.7,1.8,3.9,3.4,5.6,5.2c0.6,0.3,1.8,1.5,2.5,2.3c0.3,0.3,0.2,0.1,0.1-0.1
		c1.6,1.6,3.4,3.1,4.9,4.7c0.2,0.1,0.1-0.1,0.3,0.1c0.6,0.6,1.2,1.2,1.9,1.8c0.5,0.4,1,0.9,1.4,1.3c0.2,0.2,0.4,0.4,0.6,0.6
		c0.2,0.2,0.3,0.3,0.4,0.5c0,0,0-0.1,0-0.2c0.4,0.7,0.8-0.2,1.1-0.5c0.2-0.2,0.3-0.5,0.4-0.7c0.1-0.1,0.1-0.2,0.2-0.3
		c0,0,0.1-0.1,0.2-0.2l0.2-0.2l0.5-0.5c1.7-2,4.8-4.9,7.1-7.2c0.5-0.6-0.2,0,0.3-0.6c0.2-0.2,0.4-0.4,0.6-0.6
		c-0.3,0.9,1.9-1.6,2.7-2.3c0.2-0.4-0.7,0.6-0.9,0.7c-0.3,0.1,0.6-0.7,0.8-1c1.2-0.5,3-2.7,4.5-3.9c0.5-0.6-0.2,0,0.3-0.6
		c0.2-0.2,0.4-0.3,0.6-0.6c0.2-0.1-0.2,0.3-0.3,0.6c0.5-0.3,0.9-0.8,1.3-1.3c0-0.1-0.6,0.4-0.1-0.2c-0.3,0.2-0.6,0.6-0.9,0.8
		c0.4-0.6,1-0.9,1.4-1.5c0.6-0.3,1-0.8,1.5-1.3c0.2,0-1,0.9-1.3,1.4c1.1-0.7-0.4,0.5-0.6,0.9c1.5-1.1,1.2-1.3,2.7-2.4
		c0.2-0.3-0.5,0.3-0.4,0.1c0.1-0.2,0.3-0.3,0.5-0.4c0.2-0.3,0-0.2-0.4,0.2c0.6-0.9,1.4-1.5,2-2.4c0.5-0.4,0.7-0.6,0.7-0.4
		c0.6-0.6,1.1-1.5,1.8-2c0.4-0.3-0.4,0.6-0.5,0.8c0.5-0.4,0.8-0.9,0.6-0.9c0.4-0.5,0.9-0.7,1.3-1.2c0.2-0.1-0.3,0.4,0.4-0.1
		c0.5-0.9,2.7-3.1,2.9-2.9c0.6-0.6,1.3-1.1,1.8-1.9c0.9-0.5,1.9-1.9,2.4-2.1c0.6-1.1,2.8-2.4,3.9-3.9c1.3-1.1,2.4-2.3,3.7-3.4
		c0.5-0.3-0.7,0.7,0.1,0.1c1.8-2.1,4-3.6,5.8-5.6c-0.3,0.2-0.5,0.4-0.8,0.6c-0.1,0.1,0.2-0.3-0.1-0.1c0.9-0.8,1.9-1.5,2.7-2.3
		c0.1-0.2-0.3,0.2-0.5,0.3c-0.3,0.1,0.7-0.6,0.8-0.9c0.1,0,0.3-0.1,0.6-0.4c0.6-1,2.4-2.1,3.5-3.4c0.6-0.4,0.6-0.3,0.1,0.2
		c0.4-0.3,0.8-0.7,1.2-1.1c0.1-0.2-0.3,0.1-0.5,0.3c0.3-0.5,0.7-0.8,1.1-1.2c0.3-0.2,0.1,0-0.2,0.4c1-1.1,2.1-1.9,3.1-2.9
		c0.2-0.1-0.3,0.4,0.4-0.1c0.4-0.8,3.7-3.6,4.6-4.6c0.4-0.2,1.6-1.3,0.7-0.3c0.6-0.6,0.7-0.7,0.7-0.8c0.6-0.6,0.9-0.5,1.7-1.4
		c-0.3,0.2-0.6,0.6-0.9,0.8c0.2-0.2,0.2-0.3,0.1-0.2c1.5-1.4,3-2.6,4.4-4.2c0,0.2,0.1,0,0.7-0.3c0.4-0.5-0.2,0-0.5,0.2
		c0.7-0.9,1.6-1.3,2.4-2.2c1-0.8-0.3,0.5,0.3,0.1c0.5-0.6,0.2-0.4,0.3-0.7c0.5-0.6,0.6-0.4,0.9-0.8c0.2-0.1-0.2,0.3-0.4,0.5
		c0.5-0.4,1.3-1.3,1-1.1c1.1-0.8,1-0.9,1.9-1.5c0.9-1,1-1,2.1-1.9c0.1-0.2-0.5,0.3,0.2-0.5l-0.8,0.6c-0.5,0.5-0.2,0.4-0.9,0.8
		c-0.3,0.3-0.1,0.2,0,0.1c-0.9,0.8-3.8,3.5-3.4,2.8c-0.3,0.2-0.6,0.6-0.9,0.9c-0.6,0.4-0.2-0.1,0.3-0.6c-0.3,0.3-1.8,1.7-1.2,1.2
		c-0.6,0.6-1.3,1.1-1.9,1.9c-0.3,0.2,0.6-0.7,0.4-0.6c-0.6,0.4-2,2-1.7,1.4c-0.4,0.3-0.5,0.6-0.3,0.4c-0.5,0.5-1.1,1-1.7,1.4
		c-0.1,0.2,0.1,0.1-0.1,0.3c-0.3,0.4-0.7,0.6-1,1c0,0,0-0.1,0.1-0.3c-1.2,1.3-2.5,2.5-3.8,3.6c-0.4,0.2,0.5-0.4,0.5-0.7
		c-0.5,0.3-0.9,0.9-1.4,1.2c0.6-0.6,1.2-1.2,1.8-1.6c0.3-0.6,2.1-1.9,2.9-2.8c-2,1.7-3.7,3.4-5.4,4.9c-0.3,0.4,0.5-0.4,0.6-0.4
		c-0.9,1-1.1,0.7-2,1.7l0.9-0.8c-0.3,0.5-0.8,0.7-1.1,1.2c-0.4,0.3-0.1,0,0.1-0.3c-0.3,0.2-0.5,0.5-0.8,0.7c-0.1,0.4-2.8,2.7-4,3.7
		c-0.3,0.1,0.7-0.6,0.9-0.9c-2,1.9-4,3.8-6.1,5.6c-0.2,0.1,0.2-0.3,0.4-0.6c-0.7,0.4-1.1,1.1-1,1.1c-0.9,0.9-0.1-0.2-1,0.6
		c-0.8,0.8,0.7-0.4,0.3,0.1c-1.2,1.1-2.4,2.5-3.7,3.4c-0.3,0.6-0.9,1-1.7,1.8c-0.6,0.4-0.2,0-0.7,0.4c-0.9,1-1.8,1.9-2.7,2.7
		c-0.3,0.1,0.7-0.8,1-1.1c-0.7,0.5-1.7,1.6-2.4,2.5c-0.6,0.5,0-0.3-0.6,0.2c0.3-0.5,1-1,0.9-1.1c-1.9,1.7-3,3-4.6,4.7
		c-0.9,0.7,0.4-0.7-0.3-0.1c-1.6,1.5-3.1,3-4.8,4.3c-0.7,0.9-1.3,1.3-1.7,1.7c-0.3,0.3,0.3-0.1-0.2,0.5c-1.3,0.9-3.7,3.8-4,3.6
		c-1.8,1.8-4.4,4.1-5.7,5.5c-1,0.7-1.8,1.8-2.9,2.5c-0.5,0.8-1.2,1.2-1.7,2.1c-0.6,0.5-0.2,0-0.7,0.4c-3.4,3.3-6.6,6.7-10,9.9
		c0,0.2-0.3,0.6,0.2,0l-2.1,2l-0.5,0.5c-0.1,0.1-0.4,0.4-0.4,0.4c0,0.1,0,0.1,0,0.2c0.1,0.2,0,0.4-0.1,0.7c-0.1,0.1-0.1-0.2-0.2-0.2
		c0,0,0,0.1,0,0.1c-0.1-0.1-0.1-0.3-0.4-0.3l0-0.1c0,0-0.1-0.1-0.1-0.2l-0.2-0.2c-3.2-2.7-6.1-5.5-9.1-8.3c-0.1-0.1-0.1,0-0.2-0.1
		c-5.2-4.8-10.7-9.5-16.1-14.2c-0.9-0.7-4.5-4-6.9-6c-1.3-1.1-2.3-2-3.2-2.8l-0.7-0.5c-0.5-0.6-2-1.7-2.9-2.7
		c-2.6-2.2-6.1-5.6-9.2-8.3l-0.5-0.6c-3.9-3.5-7.6-7.1-11.4-10.7c-1.6-1.6-3.3-3.2-4.9-4.8c-1-0.9-1.9-1.9-2.9-2.9
		c-2.6-2.7-5.3-5.4-8-8.1c-5.8-6-11.7-12.1-17.3-18.2l-0.6-0.6c-0.3-0.3-0.2-0.3-0.1-0.2c-3.1-3.3-5.2-5.7-8.3-9l-0.5-0.6
		c-0.6-0.6-0.3-0.2-1.2-1.2c-0.1-0.2,0.2,0.2,0.5,0.4c-0.3-0.4-1-1.1-1-1c-1.4-1.5-2.7-3.1-4.1-4.6l-2-2.3l-0.1-0.1
		c-0.1-0.1,0,0,0,0l0,0l0-0.1c0-0.1,0-0.1,0-0.2c0.1,0,0.1-0.1,0.1-0.1c0.1,0,0.2,0,0.2,0l3.3-2.9c6.1-5.4,12.1-10.9,18.1-16.4
		c6-5.5,11.9-11.1,17.7-16.7c5.8-5.7,11.7-11.3,17.6-17.1c0.1-0.2,0.3-0.3,0.4-0.5c3.3-3,6.3-6.4,9.7-9.3c0.5-0.6,0.9-1.3,1.1-1.2
		c0.4-0.5,1.7-1.8,2.6-2.6c0.2-0.2,0.3-0.5,0.5-0.7c1.1-1.1,2.3-2.1,3.3-3.3c5.5-5,10.6-10.7,16.2-15.6l0.5-0.7
		c1-0.7,2.5-2.3,2.9-2.9c0.3-0.2,0.2,0,0.6-0.2c0.2-0.6,0.8-1,1.3-1.3c1.2-1.6,3-3.2,4.8-5c0.3-0.2,0.3-0.1,0.3,0
		c0.5-0.4,0.3-0.7,1.2-1.4c0.1-0.2-0.1,0-0.2,0c0.4-0.5,0.9-0.8,1.2-1.4c0.3-0.2,0.2-0.1,0.1,0.1c0.4-0.6,1.3-1.6,2.2-2.5
		c0.5-0.2-0.4,0.6-0.7,1.1c1.6-1.9,3.3-3.7,4.9-5.5l0.4-0.3l0.2-0.1c0,0,0,0,0.1,0c0.1,0.1,0.1,0,0,0c0,0,0-0.1-0.1-0.1c0,0,0,0,0,0
		c0,0,0,0-0.1,0.1c0.1-0.2,0.1-0.1,0.1-0.2c0,0,0-0.1,0-0.1c0-0.1,0-0.1,0.1-0.2c0.1-0.1,0.1-0.3,0.2-0.5c0.1,0.1,0.3-0.2,0.2,0.1
		c0.1-0.1,0-0.4,0.3-0.3c0.1-0.3-0.1-0.1-0.2-0.1c0.1-0.2,0.2-0.4,0.3-0.5c0.1-0.1,0.1-0.1,0.2-0.2c0,0,0.1-0.1,0.1-0.1l0-0.1
		c0,0,0,0,0,0c0,0.1,0,0.1-0.1,0.2c0,0,0.1,0,0.1,0c0,0,0.1,0.1,0.1,0.2c0-0.4,0.1,0,0.3-0.1c0.1,0.2,0.3,0.4,0.5,0.5
		c0.1,0.2,0.3,0.3,0.4,0.5l0.2,0.3l0.1,0.1c0.2,0.2,0.3,0.3,0.5,0.4c0.6,0.6,1.2,1.2,1.6,1.8c0.8,0.2,2.3,1.8,3.2,2.6
		c-0.2,0.1-1.3-1.2-1.9-1.6c0.2,0.3,0.4,0.5,0.6,0.8c-0.9-0.7-2-1.4-2.8-2.2c0.2-0.1-0.3-0.6-1-1.2c-0.2-0.2-0.4-0.4-0.6-0.5
		c-0.1-0.1-0.1-0.1-0.1-0.1c0,0.1,0,0.2,0.1,0.2l0,0.1c0.1,0.1,0.2,0.2,0.4,0.4c0.5,0.5,1.1,1,1.6,1.6c1.1,1,2.3,2,3.2,2.6
		c0.1,0.2-0.4-0.2-0.6-0.3c0.9,0.8,2.8,2.7,3.1,2.5c0.6,0.5,0.2,0.5,0.5,0.8c1.9,1.5,2.9,2.5,5,4.1c2.2,2.2,4.5,4.3,7.1,6.3
		c1.3,1.3,3.5,3.2,4.6,3.9c2.7,2.8,8.3,6.9,11.6,10.8c-0.6-1.2,2.4,1.9,2.5,1.5c0.7,0.8,1.9,1.3,2.4,2.2c3.4,2.7,6.5,5.7,9.3,8.8
		c0.5,0.3,1,0.7,0.9,0.4c0.5,0.4,1,0.9,1.3,1.5c0.6,0.4,1,0.8,1.4,1.2c0.3,0.1,0.7,0.5,1.2,0.7c-0.2-0.3-0.6-0.5-0.9-0.8
		c2.1,1.7,5.3,4.8,7.4,7.2c0.5,0.1,1.3,0.9,2.3,1.9c2.2,1.5,4.7,3.6,7.2,5.8l0.7,0.9c-0.1-0.3,1.4,1.2,2.1,1.7c0,0.1,0.1,0.2-0.1,0
		c2.2,2,4.2,3.9,6,5.4c2.2,2.1,5.3,4.9,7.2,6.5c1.5,1.5,4.4,4,5.7,5.1c2.1,1.9,4,3.6,5.6,5c-0.5-0.5-0.5-0.6-0.8-0.9
		c0.4,0.4,0.8,0.8,1.2,1.1c-0.7-0.7-1-1-1.4-1.4c-0.8-0.6-1.9-2-2.2-2.1c-0.4-0.3-0.6-0.7-0.9-1c-0.9-0.9-1.8-1.8-2.8-2.7
		c0.9,0.8,1.3,1.2,2.5,2.2c-3.4-3.4-8-8.1-12.2-11.8c-0.4-0.4-0.8-0.8-1.1-1.2c-0.1,0,0,0.1,0,0.2c-0.4-0.4-0.9-0.8-1.4-1.3
		c-0.4-0.8-2.4-2.2-3.3-2.9c-0.3-0.5,0.3,0.1,0.8,0.5c-0.4-0.4-1-1-0.9-1.1c0.8,0.6,0.9,0.8,1.4,1.2c-0.3-0.4-0.8-0.6-1-1
		c-0.6-0.5-0.3-0.1-0.7-0.5c-0.2-0.2-0.4-0.4-0.6-0.6c0.1,0,0.8,0.5,0.8,0.5c0.2,0.1,0.3,0.3,0.4,0.4c-0.5-0.2,0.9,0.9,1.4,1.4
		c0.2,0.3,0,0.2,0.3,0.5c1.3,1.2,1.8,1.3,2.9,2.4c0,0.2-1.1-0.9-1.5-1.2c0.5,0.5,1.6,1.6,1.4,1.2c1.3,1.4,2.9,2.7,4.3,4.1
		c-0.8-0.9-1.8-1.7-2.7-2.5c0.7,0.4,2.5,2.1,3.3,3.1c1.2,1.1,2.4,2.2,3.4,3.3c3.6,3.3,6.9,6.8,10.4,10.2c-0.7-0.8-1.5-1.6-2.1-2.4
		c-0.8-0.8-1.6-1.7-2.3-2.5c-0.3-0.3-0.2-0.1-0.4-0.3c-0.5-0.7-1.2-1.3-1.8-1.9c-0.2-0.3,0.1,0,0.5,0.4c-0.7-0.8-1.5-1.6-2.2-2.4
		c-0.5-0.6,0.4,0.3,0-0.2c-1-1.2-1.8-1.7-3.1-3c-0.3-0.4,1.3,1,1.8,1.5c-0.2-0.2-0.4-0.5-0.6-0.8c-0.2-0.1,0,0.1,0.1,0.2
		c-0.6-0.6-0.8-0.9-1.2-1.2c-0.2-0.3-0.1-0.2-0.3-0.5c-1-1-1.9-1.9-2.8-2.9c-0.4-0.3-0.5-0.3-0.2,0.1c-0.3-0.3-0.6-0.6-0.9-0.8
		c-0.2-0.4-0.2-0.5-0.3-0.7c1.1,1.2,3,2.9,3.4,3.1c1.8,1.8,3.5,3.6,5.2,5.5c-0.3-0.5,0.9,0.9,1.6,1.6c0.1,0.2-0.7-0.8-1-1
		c0.7,0.8,1.6,1.6,2.3,2.4c0.5,0.6-0.4-0.3,0.3,0.5c0.3,0.1,2.2,2.2,3.1,3.3c0.9,0.8,1.8,1.9,3,3.1c0.2,0.1-1-1.1-1.3-1.5
		c1,1,3.4,3.5,5,5.4c1.2,1.2,5.1,5.6,5.5,5.9c1,1.1,1.4,1.5,2.2,2.4c0,0-0.5-0.6-0.5-0.5c2.2,2.4,4.4,4.9,4.6,5
		c-0.5-0.6-1.3-1.6-1.1-1.4c-1.1-1.3-2.9-3.4-3.1-3.8c-0.6-0.6-1.5-1.8-1.7-1.9c0.2,0.2,0.4,0.4,0.5,0.6c0.2,0.3-0.1-0.1-0.5-0.5
		c-0.3-0.4-0.6-0.8-1-1.2c-0.4-0.5-0.2-0.3,0.2,0.2c-0.3-0.4-0.7-0.8-0.7-0.8c-0.7-1-2.7-3.2-4-4.6c-1.4-1.8-3.1-3.5-4.7-5.2
		c-0.1-0.1-0.2-0.2-0.2-0.3c0.8,0.6,2.3,2.4,3.1,3.2c-0.2-0.3-0.5-0.6-0.7-0.9c-2.4-2.6-3.8-4.2-6.1-6.7c-0.1-0.1,0,0-0.1-0.2
		c0.8,0.9,2.1,2.3,2.6,2.7c-0.3-0.4-0.7-0.8-1-1.2c0.1,0.2-0.3-0.2-0.7-0.8c0.1,0.2,0,0.2-0.1,0c-0.7-0.9-2.5-2.9-2.3-2.4
		c-0.4-0.3,0-0.2-0.6-0.8c-0.1-0.1,0.6,0.6,0.4,0.3c-0.5-0.6-1.1-1.1-1-0.9c-0.4-0.4-0.2-0.4-0.5-0.8c-0.8-0.8-0.4-0.2-0.8-0.7
		c-0.4-0.4-0.4-0.6-0.2-0.3c-0.5-0.7-0.5-0.4-0.7-0.6c-0.2-0.2-0.7-0.8-0.7-1c0.4,0.3,0.7,0.7,1,1c-0.7-0.9-1.2-1.3-1.2-1.2
		c-1-1.1-1.8-2-2.6-2.7c-0.6-0.8,0.2,0-0.1-0.4c0.6,0.6,1.1,1.2,1.7,1.8c-0.4-0.6-0.4-0.6,0.2-0.1c-0.3-0.4-0.7-0.8-0.7-0.7
		c0-0.1-0.6-0.7-0.7-1c-0.8-0.8-1.5-1.6-2.5-2.7c-0.1-0.3,0.8,0.8,1,1.1c0.2,0.2,0.1,0.1,0,0l0.3,0.3c-0.5-0.6-1.1-1.2-1.6-1.8
		c-0.2-0.3,0.2-0.1,0-0.4c-0.4-0.3-0.3-0.3-0.9-0.9c-0.5-0.6-0.2-0.4-0.5-0.8c-0.4-0.4-0.3-0.3-0.5-0.4c-0.3-0.5,0-0.1-0.4-0.7
		c-0.9-0.9-1.6-1.8-2.4-2.7c-0.3-0.5,0.4,0.3,0.8,0.7c-0.3-0.5-0.9-0.9-1.2-1.4c0,0-0.4-0.3-0.3-0.1c-1.9-2.3-4.1-4.4-6-6.7
		c-0.2-0.1,0.1,0.2,0.2,0.3c-0.4-0.3-0.8-0.6-1.1-1c-0.2-0.8-2.7-2.9-3.8-4.2c0.7,0.2,2,1.8,3.3,3c-0.5-0.7-1.4-1.4-1.4-1.7l-1-0.8
		c-0.3-0.4-0.2-0.3-0.3-0.5c0.4,0.4,0.8,0.8,1.1,1.2c-0.1-0.3,0.4,0.3,0.6,0.4c-0.4-0.8-1.5-1.3-1.9-2.1c-0.7-0.6-1.5-1.2-2.2-1.7
		c-0.5-0.6-0.1-0.4,0.2-0.1c-0.3-0.6-0.9-1-1.3-1.5c0,0.1-0.2,0-0.8-0.5c0.2,0.3,0.6,0.6,0.8,0.9c-0.5-0.5-1-1-1.4-1.5l-1.5-1.2
		c-0.1-0.3,0.4,0.2-0.5-0.8c-0.6-0.8,0.4,0.3,0-0.4c-0.4,0-1.1-0.9-2.2-1.7c-0.8-0.9-1.6-1.8-2.3-2.8c-0.9-0.5-1.7-1.4-2.8-2.3
		c-0.5-0.7,0.6,0.4,0.5,0.2c-1.3-1.4-2.9-2.5-3.7-2.9c1.2,1.4,2,1.6,2.9,2.5c0.2,0.3,0.2,0.3,0,0.2c0.3,0.4,1,0.9,0.7,0.5
		c1,1.4,3.8,3.4,5.1,5.3c-1.2-0.8-3.4-3.1-4.7-4.6c-1.2-0.7-3.2-2.8-5-4.7c0.7,0.4,1.1,0.6,1.4,0.6c-0.5-0.3-0.8-0.8-1.3-1.1
		c-0.9-1.5-1.9-1.7-2.8-3.2c-1.4-1.3-1-0.9-2.3-2.1c0.3,0.4-0.2,0,0,0.2c-0.4-0.4-0.7-0.8-1.2-1.1c-0.5-0.8,0.3,0,0.7,0.5
		c0-0.2-1.7-1.8-1.8-1.7c-0.5-0.6-1.2-1.1-1.6-1.8c-0.8-0.8-1.9-1.5-2.6-2.4c-0.3-0.7,0.7,0.1,1.2,0.4c-1-1.1-1.7-1.3-3-2.8
		c-0.4-0.6-0.1-0.3-0.7-1c-0.6-0.4,0.8,0.9,0.2,0.5c0.4,0.4,0.8,0.9,1.3,1.3c0,0.3-0.1,0.2,0.7,1c0.1,0.2-0.2-0.1-0.4-0.2
		c-0.4-0.4-0.6-0.9-1-1.3c0,0-0.4-0.3-0.3-0.1c-0.5-0.5-0.9-1-1.4-1.5c-0.1-0.3,0-0.2,0.4,0.2c0.3,0.3,0.1,0.2,0.3,0.5
		c0.2,0,0.5,0.2,0.2-0.3c-2.4-1.7-4.2-3.6-6.3-5.4c-0.2-0.3-0.3-0.5-0.1-0.4c-0.3-0.1-1.9-1.5-2.8-2.4c0-0.3,1.6,1.3,1.6,1.1
		c0.3,0.5,0.7,0.8,0.2,0.1c-1.7-1.5-3.2-3-4.4-4.3c-0.2-0.6,1.6,1.4,1.8,1.2c-0.5-0.6-0.7-0.8-1.1-1c-1.7-2.1-5.5-5.1-7.4-7.1
		c-0.3-0.5,1.3,1,0.6,0.1c-0.4-0.1-1.2-0.8-1.9-1.4c0.4,0.5,0.7,0.9,1.2,1.3c0.1,0.1-0.1,0,0,0.2c-1-0.8-1.6-1.8-2.7-2.6
		c-0.2-0.3,0-0.2-0.2-0.5c-0.8-0.6-1.4-1.3-2.1-2c-0.2-0.3-0.1-0.3,0-0.3c-0.3-0.4-0.8-0.6-0.9-1c-0.3-0.3-0.3-0.1-0.1,0.1
		c-1.3-1.4-2.4-2.5-3.5-3.6c-1.7-1.7-3.5-3.4-5.5-5.5c-0.3-0.4,0-0.3,0.7,0.3c-0.7-0.8-1.5-1.4-2.2-2.2c-1.2-1.1,0.4,0.7-0.7-0.2
		c-1-1.3-2.2-2.4-3.4-3.3c-0.6-0.8,0-0.3-0.9-1.3c-0.4-0.3,0.1,0.4-0.3,0.1c-0.1-0.2-0.2,0-0.2,0c-0.1,0.1-0.1,0.1-0.2,0.2
		c-0.1,0.1-0.2,0.2-0.3,0.3c-0.2,0.2-0.3,0.4-0.5,0.6c-0.3,0.4-0.7,0.9-1.6,1.9c-0.7,0.6-0.1-0.2-0.9,0.6c-0.2,0.3-0.2,0.4,0.2,0.1
		c-1.5,1.7-4.7,4.6-4.8,4.3c-2.2,2.4,1.9-1.5,0.6,0.1c-0.8,0.8-0.6,0.4-1.7,1.4c-0.5,0.6-1.1,1.2-1.6,1.8c-0.3,0.3-0.4,0.4-0.5,0.6
		c-0.1,0.1-0.2,0.3-0.2,0.4c-0.6,0.6-1.3,1.4-1.7,1.4l-0.6,0.9c0.7-0.3,0.1-0.3,0.7-0.7c-0.2,0.6-2.5,2.6-3.6,4
		c0.1-0.3-0.1-0.3,0.5-1c-1.1,0.8-1,1.4-2,2.5c-0.8,0.4-1.4,1.3-2,2.1c-0.9,0.6-1.7,1.5-2.5,2.4c-0.3,0.1,0.7-0.8,0.9-1.2
		c-0.4,0.2,0.2-0.6-0.1-0.5c-0.6,1-1.7,2.2-2.3,3.1c-0.3,0.2-0.6,0.6-1.2,1.1c-0.5,0.1,1.7-1.8,0.4-0.9c0.3-0.6,0.9-0.8,1.2-1.4
		c-0.5,0.3-1.5,1.7-1.6,1.5c-0.4,0.6-0.9,1-1.6,1.9c-0.2-0.3-0.8,0.8-1.7,1.4c-0.7,1.1-1.6,1.9-2.4,2.9c0.1,0.2,0.9-0.5,1.2-1
		c0.1,0.3-1.3,1.4-1.8,2c-0.2,0,0.1-0.5,0.3-0.7c-0.2,0-0.6,0.4-0.8,0.3c0.2,0.3-0.8,0.9-1.4,1.9c0.5-0.1,0.6-0.7,1.1-0.9
		c-0.5,0.5-0.9,1.1-1.4,1.4c-0.2,0.1,0.2-0.3,0.4-0.5c-0.3,0.1-0.6,0.6-0.5,0.3c-0.6,0.4,0,0.4-0.7,0.8c0.2,0,0.6-0.2,0.2,0.4
		c-0.7,0.7-0.1-0.1-0.7,0.4c-0.3,0.5-0.1,0.4,0,0.4c-0.2,0.3-0.5,0.4-0.7,0.8c-0.9,0.6,0.2-0.7-0.4-0.3c-0.1,0.2-0.3,0.6-0.1,0.6
		c-0.4,0.6-1,0.8-1.4,1.5c-0.6,0.5-0.5,0.2-0.9,0.5c-0.5,0.8-1.2,1.3-1.8,1.9c-0.2,0.6-1.3,1.6-2,2.3c-0.4,0.3,0.6-0.9-0.1-0.2
		c-0.5,0.8-1.3,1.5-2.2,2.4c-0.5,0.7,0.4-0.1,0,0.4c-0.8,0.9-0.3,0-1,0.6c-0.4,0.4-0.5,0.6-0.5,0.7c-1.7,1.1-2.7,3.1-4.3,4.3
		c-0.3,0.7-0.7,1-1.5,2.1c-0.3,0.3-0.5,0.3-1.1,0.9c-0.3,0,0.8-0.9,1-1.4c-0.9,0.8-1.5,1.6-2,2.3c-0.7,0.7-0.5,0.3-1,0.6
		c-0.5,0.6-0.9,0.9-1.1,1.3c-0.2,0.1-0.4,0.3-0.6,0.4c0.4-0.1-1.1,1.5-1.8,1.9c-0.3,0.7-0.7,1-1.5,1.7c-0.5,0.7,0.1,0,0.4-0.2
		c-0.3,0.4-0.7,0.7-1,1c-0.7,0.4-0.3,0-0.2-0.3c-0.6,0.6-1.3,1.2-2,1.6c0.1-0.2,0.3-0.3,0.4-0.5c-0.2,0-1.4,1.4-2,2
		c1.5-1.4,1.4-1,2.9-2.4c-1.1,1.6-1.7,1.4-2.6,2.5c0.1,0.1,1.3-0.9,1.2-0.6c-0.5,0.3-1.4,1.3-1.9,1.5c-0.3,0.5-0.2,0.7-0.5,1.2
		c0-0.4-0.7,0.4-1.3,0.8c-0.3,0.2,0.5-0.8-0.2-0.3c-0.2,0.3-0.3,0.5-0.1,0.6c-0.4,0.4-1,0.8-0.5,0.6c-0.4,0.4-0.9,0.8-1.4,1.1
		C54,70.2,55.4,68.9,55,69c-0.7,0.9-3.9,4.6-3.5,3.6c-0.4,0.4-0.8,1-1.3,1.3c-0.4,0.9-2.1,2.2-2.9,3.6c-0.4,0.1-1.2,1.1-1,0.6
		c-0.5,0.4-0.3,0.5-0.9,1.2c-1.1,1.1-2.2,2.1-3.2,3.4c-0.2,0-1.1,1-1.1,1.2c-0.5,0.3-0.9,0.8-1.4,1.2c0.2,0,0.4-0.3,0.7-0.3
		c-0.5,0.6-1.2,1.1-1.5,1.3c-0.8,0.7-0.3,0.6-1.4,1.4c0,0.1,0.2-0.1-0.1,0.3c0.6-0.7,1.2-1.3,1.9-1.8c-1,1.1-2.1,2.1-3.1,3.2
		c-0.1,0.1,0-0.1-0.2,0.1c0.4-0.5,1.4-1.3,1.3-1.6c-0.8,0.7-1.3,1.6-2.4,2.4c-0.2,0.2-0.3,0.5-0.5,0.6c-0.1,0.2-0.1,0.2,0.2,0
		c-0.6,0.7-1.2,1.3-1.8,2c-0.5,0.5-0.2,0.1-0.7,0.4c-0.5,0.6,0.4-0.2-0.3,0.6c-0.6,0.5,0.2-0.5-0.5,0.3c-0.4,0.5,0.1,0-0.1,0.3
		c-2.4,2-4.8,5-6.6,6.7c-0.3,0.2,0.3-0.5,0.2-0.5c-0.8,0.8-1.5,1.9-2.4,2.5c-0.1,0.2-0.1,0.2,0.2,0c-0.2,0.4-0.5,0.6-0.8,1
		c-0.4,0.3-0.1,0,0.1-0.3c-0.5,0.4-0.8,0.9-1.3,1.3c-0.1,0.2,0.2-0.1,0.3-0.2c-0.2,0.4-0.6,0.6-0.8,0.9c-0.1,0,0.1-0.3-0.2,0
		c-0.2,0.2-0.3,0.5-0.5,0.7c-0.4,0.4-0.1-0.1-0.6,0.4c-1.3,1.5-2.6,2.9-4,4.4l0.4-0.4c-0.4,0.4-0.7,0.9-1.1,1.2
		c-0.4,0.3-0.1,0,0.1-0.3c-0.8,0.8-2.2,2.5-2.6,2.9c-0.3,0.1-0.6,0.5-1.1,1.1c0.8-0.7,0.1,0-0.2,0.4c1.2-1.4,1.9-1.9,3.2-3.4
		c0.1-0.2-0.1,0.1-0.3,0.2c0.2-0.4,0.6-0.5,0.8-0.9c0.5-0.4,0.5-0.4,1.2-1c-1.7,1.6-3.8,4.2-5,5.3c-0.1,0.1,0,0-0.1,0.2
		c-0.5,0.6,0.1-0.2-0.5,0.3c-0.7,1.1-1.6,1.9-2.5,2.7c-0.2,0.4-0.7,1-1.3,1.6c0.2-0.3,0.6-0.9,0.2-0.6c0.4-0.5,1.1-1.2,1.1-1.3
		c-0.5,0.6-0.5,0.6-0.9,0.8c-0.2,0.3-0.5,0.7-0.6,0.9c-0.2,0.2-0.6,0.7-1,1.1c-0.4,0.4-0.8,0.8-1.2,1.3c-0.5,0.4-1.3,1.2-2.1,2.1
		c-0.4,0.4-0.8,0.9-1.2,1.4c-0.2,0.2-0.4,0.5-0.6,0.7l-0.1,0.2c0,0.1,0.1,0.1,0.2,0.2c0.1,0.1,0.2,0.2,0.3,0.3c-0.2,0,0.7,0.9,2,2.1
		c0.1,0.2,0.1,0.2-0.4-0.3c0.7,0.8,1.6,1.6,2.4,2.3c0.8,0.7,1.8,1.7,2.2,2c0.3,0.2-0.3-0.4,0.1,0c0.4,0.3,0.5,0.6,0.9,0.8
		c0.2,0.3,0.2,0.3,0,0.2c0.5,0.4,0.1-0.1,0.8,0.7c0.3,0.4,0.4,0.5,0.2,0.3c0.8,0.7,2.1,2,2.5,2.2c0.4,0.4,0,0.1,0.5,0.6
		c0.1,0,0.8,0.7,0.8,0.7c1.1,1,1.5,1.2,2.6,2.3c0.3,0.1,1.5,1.3,2.1,1.9c0,0.1-0.2-0.2,0.1,0.2c0.6,0.4,1.2,1.1,2,1.8
		c0.3,0.2-0.7-0.8-1-1c-0.3-0.3,0.8,0.6,1,0.8c0.4,0.2-0.6-0.6-0.8-0.8c-0.1-0.2,0.3,0.2,0.5,0.4c0.2,0.2,0.7,0.8,1.5,1.4
		c0.3,0.4,0.7,0.7,0.3,0.5c0.5,0.5,1.1,1,1.6,1.5c0.2,0.1,0.1-0.1,0.7,0.5c-0.4-0.3-1.6-1.3-2.8-2.3c0.5,0.5,0.9,0.9,1.4,1.4
		c0.2,0.2,0.4,0.2,0.8,0.7c0.2,0.1,0,0,0.2,0.1c0.7,0.6,0.3,0.4,0.9,1c0-0.2,2.6,2.3,2.8,2.6c0.1,0,0.6,0.6,1.1,1
		c-0.4-0.5-1-0.9-1.4-1.4c0.1,0,1.3,1.2,1.8,1.7c0.1,0,0.3,0.2,0.7,0.5c0.4,0.3,0.3,0.3-0.1,0c0.5,0.5,0.6,0.5,0.3,0.1
		c-0.4-0.3-0.7-0.7-1.1-1c-0.1-0.1-0.1-0.2-0.2-0.3c0.7,0.6,1.3,1.3,2,2c0.1,0.2-1.2-0.9-0.2,0c-0.1-0.2,0.2,0.2,0.8,0.7
		c0,0.1-0.5-0.5,0.5,0.6c0.1,0,0.2,0.1,0.8,0.7c0.1,0.3,1.1,1,1.7,1.7c-1.8-1.7-3.2-3-5.1-4.9c0.6,0.7-1.4-1.3-1.2-0.9
		c0.2,0.2,0.5,0.5,0.7,0.7c0.4,0.2,1.5,1.4,1.7,1.7c-0.3-0.4,0.8,0.6,0.3,0.1c0.4,0.4,0.8,0.7,1.2,1.1c0.2,0.3-1.2-1.1-0.2-0.1
		c-0.4-0.3-0.5-0.6-0.9-0.8c0.3,0.3,0.1,0.1,0.4,0.4c0.9,0.8,1.1,1,1.3,1.3c0.1,0,1.9,1.8,2.8,2.7c0.4,0.3,0-0.1-0.4-0.4
		c1.1,0.9,2.6,2.5,3.2,2.9c0.6,0.6-0.1-0.1,0,0.2c-0.8-0.8-1.6-1.5-2.3-2.3c-0.3-0.2-0.3-0.2-0.1,0c0.2,0.2,0.4,0.4,0.6,0.6
		c0.1,0.1,0.2,0.1,0.1,0c0.7,0.8,3,2.9,3.6,3.4c-0.5-0.3,1,1,1.3,1.4c0.3,0.2,0.5,0.5,0.7,0.7c0.3,0.2-0.6-0.6-0.8-0.9
		c-0.2-0.3,0.7,0.5,1.5,1.3c0.6,0.7-0.7-0.6-0.7-0.6c0.7,0.7,0.6,0.6,1.3,1.3c-0.2-0.3,0-0.1,0-0.2c0.4,0.3,0.6,0.7,1,1
		c-0.6-0.6-1.3-1.2-1.8-1.9c-0.8-0.7-1.6-1.4-2.3-2.1c-0.2-0.3,0.7,0.6,0.9,0.8c0.3,0.3-0.7-0.8-0.6-0.6c0.1-0.3,4.2,4,6.5,6.2
		c-0.2-0.2-0.4-0.4-0.2-0.3c-0.3-0.3-0.7-0.7-1-1c0-0.1,1.1,1,1.5,1.4c-0.2-0.3,1.1,0.9,1.5,1.4c0.2,0.2-0.9-0.8-1.2-1.1
		c0.1,0.2-0.4-0.3-0.6-0.4c0.6,0.6,0.4,0.5,1.1,1.2c-1.1-1-1.6-1.6-3-2.8c0.5,0.6-0.1,0,0.7,0.9c0,0-0.5-0.6,0.4,0.3
		c1,1,1.9,1.9,2.9,2.9c-0.3-0.4-0.4-0.5-0.2-0.3l-1.3-1.3c0.1,0,0.6,0.6,1,0.8c0.3,0.3,0.1,0.2-0.1,0c0.8,0.8,0.3,0.2,1.2,1.1
		c0,0.1-0.4-0.3-0.3-0.1c1.1,1,2.9,2.9,4.1,4c0.2,0.2-0.2-0.1,0.3,0.4c0.6,0.5,1,1.1,1.6,1.6c-0.3-0.4-0.5-0.5-0.5-0.6
		c0.7,0.7,1.3,1.3,2,2c0.3,0.3-0.6-0.4-1.2-1.1c0.3,0.3-0.3-0.2,0,0.2c0.7,0.6,1.3,1.2,2.5,2.4c-0.3-0.3-0.7-0.7-1-1
		c0.1,0,0.8,0.8,1.4,1.3c0.2,0.3,0.1,0.1,0.3,0.4c0.5,0.3,1.6,1.7,2.5,2.5c0.3,0.4-1.2-1.1-1.3-1.1c0.1,0.1,0.3,0.3,0.4,0.4
		c0.6,0.7-0.4-0.4,0.2,0.3c0.5,0.5,1.3,1.3,1.1,1c0.5,0.5,0.9,1,1.4,1.5c0.1,0.1-0.2-0.1-0.6-0.6c0,0.1,1.9,1.9,1.9,2.1l0.9,0.9
		c-0.3-0.4-0.2-0.3-0.3-0.4c0.6,0.6,0.5,0.6,0.8,0.9c1,0.9,1.7,1.8,3.2,3.4c0.9,0.8,2.6,2.8,3.9,4.1c0.1,0-0.6-0.6-0.9-1
		c0.3,0.2,1.6,1.7,2.3,2.4c0.2,0.3-0.9-0.9-0.8-0.7c0.4,0.5,0.7,0.8,0.7,0.9c0.4,0.3,1.1,1,1.6,1.4c0.7,0.7,0.4,0.5,0.8,1.1
		c0.3,0.4,1.5,1.5,1.2,1.3c1.1,1.1,2.2,2.3,3.2,3.4c0.6,0.7-0.6-0.5,0,0.2c0.8,0.8-0.1-0.3,0.6,0.4c0.7,0.7,0.6,0.8,0.9,1.2
		c0.4,0.4,0.7,0.8,1.1,1.2c-0.2-0.1-0.1,0.1,0.4,0.6c0,0,0.2,0.2,0.5,0.4c0.4,0.3-0.4-0.5-0.5-0.6c0.4,0.4,0.7,0.8,1.1,1.2
		c0.3,0.3-0.4-0.6-0.6-0.8c0-0.1,0.2,0.1,0.3,0.1c0.5,0.6,0.5,0.6,0.9,0.9c0.5,0.7-0.2-0.1-0.3-0.1c0.5,0.6,0.5,0.5,0.8,0.7
		c0.7,0.7,1.2,1.4,1.9,2.1c0,0.1-0.5-0.4-0.6-0.4c0.6,0.7,1,1.4,1.8,2.2c0.4,0.7,0.5,0.8,1.7,2.2c-0.3-0.4-0.8-0.9-0.7-1
		c0.5,0.4,0.8,0.9,1.2,1.4c0.3,0.3-0.1-0.3,0.4,0.3c-0.5-0.6-1.4-1.7-1.6-1.8c0-0.1-0.1-0.3,0.3,0.1c0.5,0.5,0.2,0.4,1,1.1
		c0.6,0.7-0.4-0.3,0.1,0.3c0-0.2,0.7,0.7,1.3,1.3c0.4,0.3-0.1-0.2-0.4-0.6c0.3,0.2,0.5,0.5,0.7,0.7c0.1,0.2,0.8,1.1,0.5,0.8
		c0.2,0.3,1.3,1.2,0.9,1.1c0.4,0.5,0.9,0.7,1.5,1.5c0.1,0.2-0.3-0.2-0.5-0.4c0.7,0.8,1.8,2.2,2.1,2.4c0.2,0.2,1.1,1.3,0.4,0.6
		c1.2,1.3,2.9,3,3.5,3.3c0.3,0.3,0.6,0.7,1,1c0.5,0.6-0.6-0.5,0,0.4c-0.7-0.7-0.7-0.7-1.1-1.2c-0.7-0.7-0.9-0.8-0.5-0.2
		c0.2,0.1,0-0.1-0.1-0.2c0.5,0.4,0.9,0.9,1.2,1.4c0.2,0.4-0.4-0.5-0.6-0.6c0.3,0.5,0.8,0.8,1,1.2c0.5,0.1,1.8,1.9,2.6,3.1
		c0.5,0.4,1.1,0.8,0.2-0.3c0.1,0.3-0.4-0.3-0.9-0.9c-0.1-0.2,0.3,0.2,0.4,0.4c-0.1-0.3-1.6-1.8-2.2-2.6c2.3,2.3,5.5,6.1,8.2,9
		c0.1,0.2-0.2-0.1-0.4-0.2c0.3,0.4,0.7,0.8,1.1,1.2c0,0.3,0.5,0.6,1,1.3c0.3,0.5-1-0.9-0.3-0.1c0.7,0.4,0.8,0.8,1.8,1.9
		c0.3,0.2,0.6,0.4,0.8,0.7c0.1,0.1,0.2,0.2,0.3,0.3c0.1,0.1,0.3,0.3,0.4,0.4c0.3,0.3,0.5,0.6,0.8,1c1,0.8,1.7,1.7,2.7,2.5
		c1.2,1.5,3.1,3.7,5.3,6c0.1,0.1,0.1,0.2,0.2,0.2l0.2-0.2l0.4-0.4c0.3-0.3,0.6-0.5,0.9-0.8c0.6-0.6,1.2-1.1,1.8-1.7
		c1.2-1.1,2.5-2.3,3.7-3.4c-0.1-0.1,1.1-1.4,1.6-1.7c1.1-1.2,0.8-1,0.8-1.1l0.5-0.5c0.2-0.2,0.4-0.4,0.5-0.4c0,0.2,0.4-0.1-0.7,1.1
		c0.4-0.3,0.6-0.6,0.8-0.7c0.1-0.1,0.1-0.2,0.1-0.2c0-0.1,0.1-0.2,0.6-0.6c0.1-0.4,0.4-0.6,1.2-1.4c0.3-0.2,0,0.2-0.3,0.6
		c1.3-1.5,3.6-3.4,4.3-4.7c0.7-0.7,0.7-0.6,1.2-1.1c0.5-0.3-0.3,0.5,0.3,0.1c0.5-0.6,0.3-0.6,0.1-0.5c0.7-0.7,0.5-0.6,1.1-1.3
		c0.5-0.3-0.3,0.9-1,1.5c0.3-0.2,0.2-0.1,0,0.1c1.1-0.8,2.6-1.9,4-3.8c0.6-0.4-0.6,0.8,0.1,0.3c0.4-0.7,2-1.9,2.9-2.8
		c0.2-0.3,0.1-0.2,0.3-0.6c0.1,0-0.1,0.3,0.2,0c0.5-0.5,0.1-0.2,0.5-0.7c0.1-0.1-0.1,0.3,0.1,0.1c0.7-0.5,1.3-1.2,1.1-1.3
		c0.2-0.1,0.3-0.2,0.4-0.4c0.2-0.1-0.1,0.2-0.2,0.4c1.4-1.3,3.6-3.2,4.3-4.3c1.4-1.1,0.9-1,1.8-1.7c0.6-1,1.1-1.4,1.9-2.5
		c-0.4,0.3-0.7,0.6-1.1,0.9c0.4-0.5,0.9-0.8,1.3-1.3c0.2-0.1-0.1,0.2-0.2,0.4c0.9-0.9,1.9-1.7,2.8-2.6c0.2-0.1-0.1,0.2-0.2,0.4
		c0.4-0.4,0.9-0.8,1.3-1.3c0.3-0.8,3.4-3.2,4.6-4.9c-1.7,1.6-3.3,3.3-5.1,4.9c0.5-0.7,1.1-1.2,1.7-1.7c0.1-0.4-0.8,0.7-1,0.9
		c0.2-0.4,0.5-0.7,0.7-1.1c0.3-0.2,0.2,0,0.5-0.3c1.1-1.3,0.9-1.5,2.4-2.8c0.2,0-0.9,1.1-1.2,1.5c0.1,0,0.5-0.3,0.3,0.1
		c0.3-0.3,0.7-1.4,2-2.4c0.2-0.2,0.1,0-0.2,0.5c0.7-0.5,1-1.4,1.9-2.2c0.6-0.5-0.3,0.6,0.4,0c0.1-0.2,0.1-0.1,0-0.1
		c-0.1-0.1,0.7-0.8,0.5-0.8c0.3-0.2,1.2-1.2,0.9-1.1c0.3-0.3,0.6-0.7,1-1c0.1,0.1-0.8,1.2-0.5,1.1c0.3-0.4,0.8-1,1.2-1.5
		c0.4-0.3,0.1,0.1,0.7-0.4c0.8-0.9,1.7-1.7,2.5-2.6c0.3-0.2-0.5,0.6-0.6,0.9c1.1-1,1.1-1.7,2.3-2.6c0.3-0.3,0.5-0.8,0.8-1
		c0.3-0.4-0.4,0.4-0.6,0.5c0.1-0.2,0.2-0.3,0.4-0.5c0.9-0.8,1.7-1.8,2.6-2.5c0.1,0.1-1,1.3-1.5,1.6c-0.3,0.5-0.7,0.9-1.1,1.3
		c0.5-0.5,1.7-1.4,2.2-2.3c0.6-0.5-0.1,0.3,0.6-0.2c0.4-0.8,2.1-2.5,3.4-3.9c0.4-0.2-0.4,0.5-0.5,0.7c0.6-0.6,0.4-0.2,0.9-0.7
		c0.7-0.9,1.5-1.6,2.2-2.5c1.1-0.9,1-1.1,2.4-2.9c-0.6,0.7-1.2,1.4-1.8,1.9c-0.3,0.3-0.1,0.2,0.1,0.1c-0.3,0.4-0.7,0.8-1.1,1.2
		c-0.4,0.3,0.4-0.5,0.5-0.6c-0.2,0.1-1.8,1.3-2.3,2.2c-0.5,0.3-2.1,2-3,3c-0.4,0.3-0.3,0-0.7,0.7c-1.5,1.3-3,2.8-4.4,4.4
		c-0.2-0.1-1.6,1.5-1.3,0.9c-0.2,0.3-0.7,0.8-1.2,1.4c0.3-0.2,0.5-0.5,0.8-0.6c-0.3,0.3-0.5,0.6-0.8,0.9c-0.1,0.1-0.2,0,0.1-0.3
		c-0.4,0.3-0.8,0.7-1.2,1c-0.2,0.3-0.1,0.2-0.2,0.4c-0.4,0.2-0.7,0.5-1,1c-0.3,0.2-0.5,0.4-0.8,0.6c-0.4,0.3,0.7-0.9-0.1-0.2
		c-0.4,0.8-2.9,3.2-3.6,3.6c-0.6,0.5-0.1,0.3-0.5,0.7c-0.1,0.2-0.3,0.3-0.4,0.5c-0.6,0.5-0.3,0-0.8,0.5c-0.8,1.1-2.7,2.8-4.1,4.1
		c-0.3,0.5-0.6,0.8-0.9,1.2c0.8-0.6,0.5-0.7,1.3-1.3c-0.3,0.4-0.2,0.3,0.3,0.1c-0.8,1.1-1.7,1.8-2,1.9c0.3-0.5,0.8-0.6,1.1-1.1
		c-0.6,0.6-1,0.8-0.6,0.1c-0.9,0.9-1.9,1.7-2.8,2.6c0.2-0.4,0.1-0.2-0.7,0.4c0.5-0.5,1-0.9,1.5-1.3c0.2-0.3-0.4,0.2-0.1-0.2
		c-0.5,0.6-1.1,1-1.6,1.5c-0.3,0.4,0.3,0,0.7-0.3c-0.8,0.9-1.6,1.6-2.4,2.5c-0.1,0.2,0.3,0,0.1,0.3c-0.8,0.9-0.1-0.1-0.8,0.5
		c-0.2,0.1,0.2-0.3,0.4-0.5c-1,0.6-2.8,2.6-3.9,3.4c-1,1.3-2.3,2.3-3.4,3.5c-0.5,0.2,0.7-0.9,0.7-1.2c-1,0.7-1,1.3-1.4,1.2
		c-0.2,0.4-0.1,0.5,0.2,0.3c-1,1.1-2,2-3.1,2.9c-0.2,0.5-1.2,1.4-2,2.1c-0.2,0.1,0.1-0.2,0.2-0.4c0.2-0.3,0.5-0.4,0.8-0.6
		c0.2-0.2,0.2-0.3,0.1-0.2l0.3-0.3c-0.6,0.4-1,1.1-1.7,1.5c0.3-0.4,0.7-0.7,1-1c0.1-0.3-0.9,0.7-1.2,1c0.8-1.2-1.1,1-2,1.7
		c0.1,0,0,0.4-0.6,1c0.3-0.5-0.5,0.2-0.6,0.1c-0.1,0.2-0.3,0.3-0.4,0.5c0.4-0.1-0.6,0.8-0.7,1.2c-0.4,0.4-1.8,1.4-2.5,2.3
		c-0.6,0.4-0.1-0.1-0.1-0.3c-0.9,0.7-1.6,1.4-2.2,1.8l-0.3,0.3l-0.1,0.2l-0.2,0.3l0.2-0.2l0.2-0.1l0.3-0.2c0.4-0.7,1.1-1,1.6-1.5
		c-0.6,0.8-1.4,1.2-2.1,2c-0.1-0.4-2.7,2.3-4.6,3.9c0.7-0.6,1.4-1.4,2.1-2c0-0.3-1.9,1.7-2.6,2.3c-0.2,0.3-0.1,0.4-0.5,0.8
		c-1.3,1.3-0.6,0.4-1.1,0.7c-0.3,0.4-0.6,0.6-0.9,0.9c0,0.2-0.3,0.5-0.8,0.9c-0.2,0.2-0.5,0.4-0.7,0.6l-0.1,0.1c0,0,0,0,0,0l0-0.1
		c-0.1-0.1-0.1-0.2-0.2-0.2c-0.1-0.2-0.3-0.3-0.4-0.5c0.6,1-0.4-0.3-1.5-1.2c-1.2-1.5,1.7,1.6,0.2-0.3c-0.5-0.2-1.3-1.2-2-1.7
		c-1-1.3,1.4,1.3,1.1,0.8c-1.1-1.2-1.3-1.4-2.1-2c-0.9-1.1,0.8,0.7,0.6,0.3c-0.9-1.1-1.5-1.7-2.1-2.3c-0.3-0.3-0.7-0.6-1-1
		c-0.3-0.3-0.7-0.6-1.1-1c-0.3-0.4,0-0.3-0.5-0.8c-0.7-0.6-1.2-1.3-1.9-1.9c-0.1-0.2,0.3,0,0.2-0.1c0.2,0.2,0.4,0.4,0.6,0.6
		c0.4,0.5-0.1,0-0.2,0.1c0.9,0.9,1.2,1.1,2.2,2.2c-0.6-0.7-1-1.4-1.7-2c-0.4-0.5,0.8,0.8,0.4,0.2c0.3,0.4,0.6,0.7,0.9,1.1l1.1,1.2
		c0.2,0.2-0.2-0.3,0.1-0.1c0.9,0.8,0.1,0.3,0.9,1.2c0.4,0.3,0.8,0.7,1.1,1.1c0.2-0.1,0.7,0.5,1.3,1.1c0.6,0.7,1.4,1.6,2,2.1
		c0.7,0.9-0.3,0,0.8,1.1c0.7,0.5-0.1-0.5,0.6,0.1c-0.5-0.7-1.1-1.2-1.6-1.8c-0.2-0.2,0.2,0.3,0.4,0.6c-0.8-0.6-1.4-1.5-2.1-2.2
		c-0.1-0.2,0.7,0.7,1,0.7c0.8,0.9,1.6,1.8,2.5,2.6c0.4,0.4,0.3,0.5,0.3,0.5c0,0,0,0,0,0.1c0,0,0.1,0.1,0.1,0.2c0,0,0.1,0.1,0.1,0.1
		c0,0,0.1,0.1,0.1,0.1l0,0l0,0c0.8-1.1,2.2-2.5,3.9-4c0.8-0.8,1.7-1.6,2.6-2.4c0.8-0.7,1.5-1.5,2.2-2.1c0.2,0-0.5,0.7-0.2,0.5
		l-4,3.7c-1.3,1.2-2.6,2.4-3.9,3.6c-0.4,0.6,0.9-0.7,1.3-1.2c0.6-0.5,1.5-1.3,0.6-0.3c0.7-0.7,1.5-1.5,2.2-2.2
		c0.2-0.1-0.6,0.8,0.5-0.1c0.7-0.9,0.9-1.1,2-2.1c0.9-0.7-0.1,0.4,0.7-0.4c0.3-0.3,0.7-0.7,1.1-1c0.3-0.3,0.5-0.5,0.8-0.8
		c0.5-0.5,0.9-1.1,1.2-1.4c0,0.1,0.4-0.2,0.2,0c-0.4,0.5-0.1-0.1-0.6,0.6c0.9-0.7,1.8-1.7,2.7-2.4l0.9-1.2c0.3-0.2,0.4-0.1,1-0.6
		c0.5-0.8-0.5,0.2-0.8,0.2c0.5-0.6,1.2-0.8,1.6-1.5c0.8-0.5-0.4,0.8,0.5,0.1c0.1-0.2-0.1,0-0.2,0c1.1-1.2,2.2-2.2,3.4-3.2
		c0.5-0.7-0.5,0.1-1,0.6c0.5-0.6,0.9-1.4,1.5-1.8c0.3-0.1-0.6,0.6-0.3,0.6c0.4-0.1,0.5-0.6,0.9-0.8c0.3-0.4-0.2-0.1,0.6-0.9
		c0.4-0.3,0.4-0.2,0.1,0.2c0.9-0.7,0.6-0.9,1.4-1.5c0.3-0.1-0.7,1,0,0.4c0.5-0.6,0.3-0.5,0.6-0.9c0.2-0.2,0.4-0.4,0.6-0.6
		c0.1,0.1-0.7,0.9-0.4,0.8c0.7-0.7,0.6-0.5,1.4-1.1c1.4-1.2,2.7-2.8,3.7-3.8c-0.7,1,2.4-2.2,3.4-3.1c0,0.2-1.3,1.3-1.8,2
		c1.3-1,2.1-2.3,3-3c0.1-0.2-0.2,0.1-0.4,0.2c0.3-0.5,0.8-0.8,1.1-1.3c1.3-0.8,2.5-2.5,3.3-2.9c1.2-1.5,2.1-2.1,3-3.3
		c-0.5,0.5-0.2,0.1-0.6,0.4c1.5-1.8,2.1-1.9,2.4-1.7c0.3-0.5-0.1-0.3,0.1-0.7c0.6-0.6,1.2-1.2,1.9-1.8c0.3-0.1-0.7,0.8-0.9,1.2
		c-0.2,0.1,2.2-2.1,2.6-2.5c0.4-0.3,0.4-0.1,0.1,0.1c0.1,0.1,0.6-0.6,0.9-0.9c0.1-0.2-0.2,0.1-0.3,0.2c1.2-1.2,3.2-2.7,4.6-4.4
		l0.8-0.6c0.3-0.3,0.6-0.5,0.8-0.9c1.4-0.9,2.4-2.5,3.8-3.5c1.2-1.5,2.5-2.7,3.9-3.8c-0.7,0.9-0.7,1-1.3,1.7
		c1.4-1.5,2.7-3.1,3.5-3.7c-0.2-0.2,0.8-1.4,0.2-1.2l2.2-2c-0.2-0.2-2.6,2.6-2.7,2.2c0.2-0.4,0.6-0.5,0.9-0.8c0-0.3,1.1-1.2,1.6-1.9
		c0,0.2-0.1,0.4,0.7-0.3c-0.1-0.1,0.3-0.6,0.8-1.3c0.5-0.3,1.4-1.1,1.3-1.2c0.5-0.5,0.3-0.1,0.9-0.7c0.3-0.2,0,0.1-0.3,0.6
		c0.6-0.6,1.2-1.2,1.8-1.9c0.5-0.4-0.4,0.7,0.1,0.3c0.2-0.3,0.3-0.7,0.9-1.2c0-0.1,0.4-0.6-0.2,0c0.8-0.9,0.6-0.7,0.9-1.2
		c0.2-0.4,0.6-0.4,0.9-0.8c0.6-0.8-0.4,0.3-0.6,0.4c0.4-0.4,0.8-0.7,1.1-1.2c0.3-0.2-0.5,0.8,0.1,0.2c0.1-0.3,1-1.1,0.7-0.7
		c0.7-1.1,2.2-2.5,3.5-3.6c0-0.1,0.3-0.5,0.3-0.6c-0.6,0.6-0.4,0.3-0.9,0.7c-0.3,0.4,0,0.2,0.2,0c-1.1,1.3-2.4,2.3-3.6,3.5
		c0.9-1.1,2-1.9,2.9-3.1c-0.5,0.5-1,1-1.6,1.5c0.5-0.6,1.1-1.1,1.6-1.9c0.3-0.2-0.2,0.4,0.4-0.1c0.2-0.3,0.5-0.5,0.7-0.8
		c0.4-0.3,0.1,0-0.1,0.3c0.3-0.2,0.5-0.6,0.8-0.8c0.1-0.3,1-1.2,1-1.4c0.8-0.7,0.1,0.2,0.7-0.3c0.5-0.7,1.8-2,2-2
		c0.8-1,0.9-0.9,1.6-1.8c0.4-0.3-0.4,0.5-0.5,0.7c0.8-0.7,1.6-1.7,2.4-2.5c0.3-0.4,0.3-0.5,0.3-0.7c0.5-0.5,1.3-1.5,1.3-1.6
		c0.6-0.6-0.3,0.5,0.3-0.2c0.4-0.4,0.8-1,1.2-1.3c0.5-0.6,0.1-0.3,0.6-0.9c0.5-0.4-0.6,0.8-0.5,0.8c-0.3,0.4-0.7,0.5-1,1
		c0.2,0,1.2-1.2,1.8-1.9c0.5-0.5,0.2-0.1,0.6-0.5c0.7-0.8,2-2.5,2.3-2.6c0.2-0.2,0.2-0.3,0.1-0.2c0.5-0.6,1-1.1,1.5-1.6
		c0.3-0.4,0.6-0.7,0.9-1.2c-0.6,0.7-1.2,1.2-1.8,1.9c-0.4,0.3,0.1-0.3-0.9,0.7c0.7-1,1-1.1,1.2-1.3c0.5-0.7-0.6,0.5-0.6,0.4
		c-0.2,0.4-0.5,0.7-0.8,0.9c-0.3,0.5-0.7,0.8-0.6,0.9c0.5-0.4,0.8-0.9,0.7-0.6c-0.3,0.4-0.7,0.6-1,1c-0.3,0.2,0.3-0.5-0.5,0.3
		c0.3-0.2-0.6,0.7-1.1,1.2c-0.1,0.1,0-0.2,0.4-0.6c-0.4,0.4-1.3,1.2-2,2c-0.6,0.4-1.4,1.4-1.9,1.7c-0.7,0.8-0.6,0.8-1.3,1.6
		c-0.2,0.1,0.2-0.3,0.4-0.6c-0.7,0.5-1.2,1.2-1.8,1.8c-0.2,0.3,0,0.2,0.3-0.2c-0.3,0.5-1,1-0.9,1.2c-0.1,0-0.3,0-0.6,0.5
		c-0.3,0.2,0-0.1,0.4-0.6c-0.8,0.7-1.5,1.6-2.3,2.2c-0.1,0.5-1.1,1-1.6,1.9c0.1-0.3-0.6,0.6-0.8,0.6c0.5-0.6,1-1.1,1.6-1.5
		c0.4-0.7,1.7-1.9,2.7-2.7c0-0.1,0-0.3,0.6-1c-1.2,1.7-4.2,3.9-5.2,5.7c-0.9,0.9-1.8,1.9-2.7,2.7c-0.2,0.3,0,0.2,0.3-0.2
		c-0.3,0.3-0.5,0.7-0.8,1c-0.3,0.3-0.6,0.6-0.9,0.8c0.4-0.5,0.8-0.9,1.2-1.4c-0.5,0.4-0.9,0.8-1.3,1.2l-0.5,0.7
		c-0.2,0.2-0.5,0.5-0.7,0.7c-0.3,0.2,0-0.2,0.3-0.6c-1.1,1-0.4,0.8-1.6,1.9c-0.1,0.2-0.1,0.2,0.2,0c-0.3,0.3-0.5,0.7-0.8,0.9
		c0.4-0.8-1.8,1.4-2.6,2.1c0.8-0.9,2.9-2.9,2.8-3c0.8-0.9,1.7-1.7,2.6-2.6c0-0.2-1,1-1.5,1.3c0.6-0.8,0.7-0.7,1-1.3
		c0.5-0.1,0.8-0.8,1.2-0.9c0.7-0.8,0.3-0.6,0-0.4c0.5-0.6,0.6-0.5,0.9-0.7c0.3-0.4,0.6-0.7,0.9-1.1c0.5-0.5,0.2-0.1,0.6-0.4
		c0.6-0.8,0.4-0.4,1-1c0.6-0.8,1.3-1.4,1.9-2.1c0.6-0.5,0,0.2,0.2,0c-0.7,0.8-2,2-1.8,2c0.4-0.4,0.7-0.9,1.1-1.3
		c0.1,0,0.1,0,0.3-0.2c0.6-0.7,0.7-0.9,1.2-1.3c0.8-0.9-0.2-0.1,0.6-1c0.1-0.2,0.3-0.3,0.4-0.5c0.5-0.5,0.1,0.1,0.1,0.2
		c0.4-0.3,0.7-0.8,1.2-1.1c0.3-0.3,0.1-0.2,0-0.1c0.8-0.9,1.7-1.6,2.5-2.7c1.5-1.5,2.6-2.8,3.9-4c0.4-0.6,0.9-1,1.4-1.5
		c0.1-0.3-0.1-0.1,0.3-0.6c-0.7,0.6-0.7,0.6-1.2,1c-0.3,0.4,0,0.1-0.5,0.8c-0.6,0.7-1.2,1.2-1.8,2c-0.4,0.3,0.5-0.8,0.6-1
		c-0.4,0.3-1.4,1.5-1.3,1.2c-0.9,0.9-1.8,2.1-2.8,2.9c0.5-0.7,1.1-1.2,1.6-1.8c-0.4,0.4-0.7,0.8-1.2,1.1c-0.1,0.3-0.2,0.4-0.6,0.6
		c-1,1.3-2.2,2.1-3.2,3.3c-0.6,0.5,0-0.2,0.2-0.4c-0.4,0.3-0.7,0.8-1.1,1.1c0.3-0.2,0.3-0.1,1.1-0.7c0,0,0,0.1-0.1,0.3
		c-0.3,0.4-0.7,0.7-1,1c-0.2,0.1,0.3-0.4-0.3,0.1c-0.3,0.4-0.2,0.4-0.4,0.6c-0.2,0.2-0.4,0.4-0.6,0.6c-0.4,0.2,0.3-0.4,0.2-0.4
		c0.4-0.5,0.9-0.8,1.3-1.3c-4.4,4.4-8.8,8.9-13.3,13.2c-0.2,0.5-1.7,1.8-2,2c-0.2,0.4,0.3,0.1,0,0.5c-0.8,0.9-0.8,0.6-1.6,1.5
		c-0.2,0.1,0.1-0.2,0.2-0.4c-0.7,0.7-1.4,1.5-2.1,2.2c0.7-1.2-1.8,1.5-3.1,2.5c-0.5,0.6,0.1,0.1,0.4-0.1c-1.2,1.1-0.7,0.6-1.8,1.6
		c-0.1,0.2,0.4-0.3,0.2,0c-0.3,0.3-0.6,0.6-0.9,0.8c0,0.1-0.1,0.3-0.5,0.7c-0.6,0.7-0.5,0.3-1.1,1.1c-0.2,0.2-0.1,0,0.2-0.5
		c-1.8,1.6-1.5,1.3-3.6,3.5c-0.1,0.1-0.2,0,0.1-0.3c-1.2,1.5-2.7,2.7-3.9,4.1c-0.1,0-0.2,0-0.1-0.1c-0.5,0.5-1,1.1-1.5,1.8
		c-0.5,0.4-0.5,0.3-0.1-0.2c-1.7,1.8-3.6,3.2-5.1,5.2c-0.6,0.5,0-0.3-0.5,0.2c0.3-0.3,0.6-0.5,0.8-0.9c-1.3,1.4-2.9,3.2-4.7,4.8
		c-0.1,0.4,1.2-1,0.4,0c-0.8,0.6-1.5,1.1-2.1,1.8c-0.3,0.6,0.6-0.6,1.1-0.9c-0.4,0.7-1,1.1-1.5,1.7c-0.1-0.1,0-0.3,0.1-0.6
		c-1.4,1.5-2.3,2.8-4.1,4.3c-0.1,0.1,0.1-0.3-0.1-0.1c-0.3,0.2-0.5,0.4-0.8,0.6c-0.5,0.6-0.2,0.4-0.8,1c-0.1,0-0.3,0.1-0.7,0.4
		c-0.7,0.8-1.4,1.4-2.1,2.2c-0.4,0.3,0.4-0.6,0.5-0.6c-0.7,0.4-1.7,1.8-2,2.4c-0.8,0.7-0.2-0.1,0.1-0.5c-1,1-1.9,2.3-2.9,3.1
		c-0.4,0.3,0.3-0.6,0.5-0.6c-0.3,0-0.8,0.5-1.5,1.2c0.2-0.2,0.8-0.9,0.2-0.4c0.3-0.3,0.6-0.5,0.8-0.9c-0.5,0.4-1,0.9-1.5,1.4
		c0.2-0.1-0.1,0.4-0.6,0.9c-0.1,0.2,0.3-0.2,0.5-0.3c-0.5,0.6-1.1,1.2-1.6,2c-0.7,0.6,0.2-0.5-0.4,0c-0.4,0.5-1.1,1.2-1,1.4
		c-1.3,1.2-2.7,2.5-3.5,3.3c0,0.1,0.2,0-0.3,0.6c-0.6,0.3,0.2-0.6-1,0.5c0.3-0.5,0.7-0.8,1.1-1.2c-0.1-0.1-1.3,1.3-1.9,1.8
		c0,0.1,0.2-0.1-0.1,0.3c-0.5,0.4-0.8,0.7-1.3,0.9c-0.5,0.6-0.1,0.3-0.6,0.9c-0.4,0.4-1,0.6-1.6,1.5c-0.4,0.3-0.1-0.1-0.7,0.4
		c0.3-0.4,0.7-0.7,1-1c-0.3,0.2-0.6,0.5-0.9,0.8c-0.3,0.3-0.7,0.6-1.1,1c-0.7,0.7-1.5,1.5-2.3,2.3c-0.8,0.8-1.6,1.6-2.4,2.4
		l-0.3,0.3l-0.1,0.1c0,0,0,0-0.1,0l-0.1-0.1c-0.2-0.2-0.4-0.4-0.6-0.6c-0.4-0.4-0.8-0.8-1.1-1.2c0-0.1,0.3,0.1,0.7,0.4
		c-0.5-0.6-1.2-1.1-1.7-1.7c-0.4-0.4-0.3-0.1-0.3,0c-0.7-0.7-1.6-1.7-2.5-2.7c-0.9-1-1.8-1.8-2.6-2.4c-0.3-0.5,0.6,0.4,0.6,0.3
		c-0.9-0.9-1.1-1.1-1.8-1.9c-0.2-0.1-0.1,0.1-0.3-0.1c-1-0.9-2.2-2.7-2.9-3.1c-0.3-0.4,0-0.2-0.5-0.8c-0.5-0.4-1-0.8-1.3-1.3
		c-0.9-0.5-2.4-2.5-3.7-3.6c0.2,0.1-0.4-0.6-0.1-0.4c-0.8-0.7-1.6-1.4-2.1-2.2c-0.4-0.3-0.7-0.5-0.9-0.8c0-0.1,0-0.1-0.2-0.3
		c-0.2-0.1-1-0.9-0.6-0.6c-0.5-0.4-1.2-1.2-2-2c0.1,0.2-0.3-0.2-0.8-0.7c-0.1-0.2,0.2,0.1,0.4,0.2c-0.7-0.7-1.4-1.4-2.1-2.2
		c0.7,0.5,0.7,0.8,1.1,1c-0.4-0.4-0.8-0.9-1.3-1.3c-0.1-0.2,0.3,0.2,0.5,0.4c0.5,0.5,0.9,1.1,1.5,1.6c-0.7-0.6-0.2-0.4-0.9-1.1
		c-0.1-0.2,0.5,0.3,1,0.8c0.2,0.3-0.2-0.1-0.3-0.1c0.5,0.6,0.8,0.7,1.1,1c0.5,0.5,1,0.9,1.4,1.5c-1-1.1-0.9-0.7-1.7-1.5
		c-0.4-0.2,0.9,0.9-0.1,0.1c-0.6-0.5,0.3,0.1-0.4-0.5c-0.8-0.7-0.1-0.1,0.1,0.3c-0.2-0.2-0.4-0.4-0.6-0.6c0.5,0.7,2.5,2.5,3.5,3.6
		c-0.2-0.4,0.6,0.5,0.7,0.5c-0.7-0.7-1.4-1.3-2.1-2c0-0.5,2.2,1.9,3,2.6c0.9,1.1-0.2,0.2,0.3,0.9c0.2,0,0.9,1,1.5,1.4
		c-0.5-0.4-1.7-1.7-1.1-1.4c0.6,0.9,0.8,0.7,1.8,1.9c0.5,0.6-0.3-0.1,0.2,0.5l0.8,0.7c-0.2-0.2-0.4-0.5-0.2-0.3
		c1.5,1.3,2.7,2.6,4.1,3.9c-0.3-0.5-0.8-0.9-1.2-1.3c0.9,0.8,2.4,2.2,2.5,2.6c-0.4-0.4-0.8-0.8-1.2-1.1c-0.3-0.1,0.7,0.7,0.3,0.5
		c0.9,0.9,1.9,1.5,2.3,2.3c0.4,0.3,0.7,0.6,1,1c0,0,0.4,0.3,0.3,0.1c0.9,1.1,2.9,2.8,3.3,3.5c0.6,0.6,1.3,1.2,1.9,1.8
		c0,0.1-0.1,0-0.2,0c0.5,0.6,0.5,0.3,0.8,0.6c0.5,0.7,0.1,0.4-0.2,0.3c0.6,0.7,1.5,1.5,1.7,2c0.2,0.1-0.3-0.7,0.4-0.1
		c-0.9-1-0.4,0-1.5-1.4c-0.1-0.3,0.1-0.2,0.7,0.3c0.3,0.3,0.5,0.5,0.8,0.8l0.4,0.5l0.1,0.1c0,0,0.1-0.1,0.1-0.1l0.2-0.2
		c0.5-0.4,1.1-0.9,1.7-1.5c0.4-0.2-0.5,0.6-0.9,1.2c0.5-0.4,1-1,1.5-1.6c0,0-0.1,0-0.3,0.1c0.4-0.4,0.6-0.4,0.6-0.7
		c0.9-0.7,1.6-1.9,2.5-2.4c0-0.2,1.2-1.5,1.5-1.4c0.3-0.7,1.7-2.1,2.7-2.8c0.3-0.3,0.1-0.2,0.2-0.4c0.8-0.6,1.6-1.6,1.7-1.3
		c0.3-0.4,0.6-0.8,0.9-1.2c1-0.9-0.2,0.5,0.5,0c0.6-0.7,1.2-1.3,1.9-1.9c0-0.2,0.6-0.9,0.7-1.2c0.5-0.3-0.5,0.9,0.2,0.4
		c-0.2-0.3,1.7-2.1,2.7-2.9c0.7-0.8,0.5-0.9,1.3-1.6c0,0.1-0.4,0.8,0.4-0.1c0.2-0.1-0.1,0.4-0.6,1c0.1-0.1,0.2-0.2,0.3-0.3
		c0.1-0.1,0.2-0.1,0.3-0.2c0.4-0.5,0-0.3,0.4-0.8c0.7-0.8,0.7-0.5,1.6-1.2c0.5-0.6,1.1-1,1.6-1.6c-0.7,0.4-1.2,1-1.8,1.6
		c0-0.1-0.4,0.2-0.8,0.5c0.6-0.6,0.5-0.6,1.3-1.2c0.6-0.7-0.4,0.2,0.2-0.5c0.7-0.5,2-1.8,3.1-2.8c0.1-0.3-0.9,0.7-1.2,1.1
		c-0.3-0.1,1.1-1.4,1.8-2c0.5-0.3-1,1-0.5,0.7c0.8-0.6,0.5-0.7,1.3-1.3c-0.7,1.1,2.2-2.2,3.3-2.9c0.3-0.5,1.3-1.6,2-2.5
		c0.1,0.3,2.3-2.2,2.6-2.6c0.2-0.2,0.5-0.3,0.4-0.2c0.2-0.3,0.8-0.8,1.4-1.5c0.6-0.2,1-1,2-2.1c0.3-0.1-0.1,0.3,0.6-0.2
		c1.7-1.9,2.7-2.7,4.5-4.7c0.3-0.1-0.1,0.3,0.5-0.3c-0.1-0.3,0.9-1.1,1.5-1.4c-0.4,0.1,0.5-0.9,1.3-1.7c0.3-0.1-0.9,0.9-0.6,0.9
		c0.3-0.2,0.5-0.4,0.8-0.6c0.2-0.3-0.2,0,0.3-0.6c0.2-0.1-0.3,0.5-0.1,0.3c1-0.8,1.2-1.2,1.1-1.3c0.7-0.8,0.1,0.2,0.8-0.6
		c-0.2-0.1,0.4-0.7,1-1.4c0.4-0.1,0.4-0.4,1.1-0.8c-0.1-0.1,0.7-0.8,1.1-1.2c0.1,0-0.3,0.3-0.1,0.3c0.1-0.4,2.5-2.4,2-2.4
		c0.6-0.4,1-1.2,1.5-1.6c0.5-0.3-0.4,0.6-0.7,1.1c0.6-0.5,1-1.1,1.6-1.5c0-0.6,2.1-2.4,2.6-3c0,0.2-0.7,0.9-0.9,1.2
		c-0.3,0.3-0.2,0.1-0.1-0.1c-0.7,0.6-0.4,0.5-1.1,1.3c1-0.9,1.2-1.2,2.1-1.8c0.6-0.6-0.1-0.1,0-0.3c1-0.6,4.2-4.2,5.5-5.4
		c0.2-0.2,1.1-1.3,0.6-0.9c0.7-0.9,1.5-1.3,1.4-1.5c0.5-0.4,0,0.2,0.1,0.2c-0.2,0.3-0.5,0.4-0.8,0.6c-0.4,0.6,0.4-0.2-0.5,0.8
		c0.7-0.7,0.8-0.9,1.6-1.9c0.1,0,0.1,0,0.3-0.2c0.4-0.6-0.3,0.2-0.2,0c0.4-0.5,0.9-0.8,1.3-1.4c-2.3,2.1-4.5,4.2-6.7,6.4
		c-0.7,0.6,0.3-0.5-0.4,0.1c-0.5,0.5-0.3,0.4-0.6,0.8c-0.6,0.5,0.2-0.6,0.7-1.2c1.2-1.2,2.7-2.3,4.2-4c0.4-0.4,0.9-0.7,1.3-1.2
		c-0.5,0.3-0.3,0.2,0.5-0.6c0.5-0.5,0-0.1,0.2-0.4c1.2-0.9,1.4-1.3,2.3-2.2c0.4-0.3,0.1,0.1,0.7-0.4c-0.1-0.1,0.3-0.6,0.9-1.1
		c0.4-0.3-0.7,0.8,0.1,0.2c0.2-0.2,0.4-0.4,0.6-0.6c0-0.1,0.1-0.3,0.4-0.6c1.3-1.2,1.9-1.8,3-2.6c0.1-0.5,1-0.9,1.5-1.6
		c0.3-0.2-0.5,0.6-0.7,0.8c0.5-0.5,1-1.1,1.6-1.5c0.3-0.3,0.5-0.7,0.8-1c-0.2,0.1-0.1-0.1,0.6-0.9c-1.1,1.1-1.6,1.4-2.5,2.4
		c-0.6,0.4,0.3-0.4-0.2,0c-0.6,0.7-0.6,0.8-0.3,0.6c-0.3,0.4-0.7,0.7-1,1.1c-0.1-0.1-1,0.9-1.5,1.4c-0.4,0.3,0.6-0.7,0.6-0.9
		c-0.6,0.5-0.6,0.6-0.8,1c-0.2,0.1-0.7,0.5-1.5,1.3c0,0.1-0.4,0.6-0.8,1.1c-0.2,0.1-0.1-0.2-0.7,0.3c-0.3,0.5-0.8,0.7-1.2,1.1
		c0.1-0.2-0.3,0.1-0.2,0c-1.5,1.6-3.1,3-4.7,4.5c-0.8,1-1.8,1.6-2.6,2.6c-1.7,1.2-3.6,3.8-4.9,4.5c-0.2,0.4-0.6,0.6-0.8,1
		c-0.4,0.3-0.8,0.6-1.2,1c0.6-0.6,1.1-1,1.2-1.4c-0.2,0.4,0.4-0.3,0.9-0.7c0.3-0.5-0.2,0.1-0.6,0.4c0.6-0.8,1.3-1.4,2-2
		c0.3-0.2-0.6,0.7-0.8,0.9c0.3-0.1,1.7-1.7,2.5-2.4c-0.4,0.2-0.7,0.7-1.1,0.9c1.4-1.3,1.8-1.9,3-3.1c0.5-0.4-0.9,1.1-0.1,0.3
		c0.2-0.2,0.4-0.5,0.5-0.7c1.3-1.1,2.8-2.7,3.6-3.6c-0.8,1,0.6-0.4,1.4-1.1c0.1-0.2,0.4-0.6-0.2,0c0.9-1.2,1.2-1,2-2
		c0.5-0.3,0.3,0,0.3,0.1c0.4-0.4,1-1.1,0.9-1.2c0.6-0.6,1.8-1.5,1.9-1.9c0.3-0.3,1.3-1.1,1.1-0.9c0.5-0.7,2.1-2.2,3.5-3.4
		c-0.7,0.8-0.7,0.7-1.2,1.4c0.5-0.4,1-0.8,1.5-1.3c0.4-0.4-0.5,0.3,0.1-0.3c0.2-0.4-0.7,0.6-0.9,0.8c-0.2,0,1.4-1.8,2.3-2.4
		c1-0.9,1.8-2.2,2.8-3c0.2-0.2,0.4-0.4,0.5-0.7c0.5-0.4,0,0.1,0.1,0.1c0.6-0.5,1.1-1.3,1.7-1.7c0.3-0.2-0.5,0.6-0.7,0.8
		c1.6-1.6,3.1-3.2,4.2-4.1c0.5-0.5,1-0.9,1.4-1.5c-0.4,0.3-0.5,0.3-0.2,0c0.6-0.5,2.1-2.1,3.2-3c-0.3,0.4-0.6,0.8-1,1
		c0.3-0.2,1.9-1.7,2.6-2.5c0.6-0.7-0.5,0.5-0.8,0.6c0.5-0.5,1-0.9,1.4-1.5c-0.1,0.1-0.1,0,0.1-0.2c-0.4,0.3-0.5,0.5-0.6,0.5
		c0.2-0.2,0.4-0.4,0.6-0.6c0.8-0.6,1-0.8,1.9-1.7c-0.5,0.6-1,0.9-1.4,1.4c0.4-0.3,0.7-0.6,1-0.9c-0.3,0.2,1-1.1,1.6-1.7
		c0.2-0.1-0.1,0.2-0.3,0.4c0.4-0.3,0.8-0.7,1.2-1.1c0.2-0.3-0.4,0.3-0.3,0.2c1-1,2-1.9,3-3c0-0.1-0.7,0.7-1.2,1.1
		c-0.1,0.1,0,0-0.2,0.1c0.7-0.7,0.9-0.9,1.7-1.8c-0.1-0.1-0.8,0.7-1,1c-0.7,0.6,0.6-0.7-0.3,0.2C224.4,144.4,225.4,143.4,224.7,144z
		 M168.3,195.9c-0.5,0.6-1.1,1-1.6,1.5C167.1,196.8,167.7,196.3,168.3,195.9z M124.3,237.3c0-0.3,0.2-0.5,0-0.4l0-0.1l0.3-0.3
		c0.2-0.2,0.4-0.4,0.6-0.6c0.4-0.4,0.8-0.8,1.2-1.2c-0.3,0.5-0.5,0.5-0.7,1.1c-0.3,0.2-0.5,0.4-0.8,0.6c-0.2,0.2,0.2,0,0.1,0.1
		c-0.1,0.1-0.3,0.3-0.4,0.4c-0.1,0.1-0.1,0.1-0.1,0.1l0,0.1C124.5,237.3,124.4,237.4,124.3,237.3z M208,91.8c0.5,0.5,0.5,0.3,1,1
		C209,92.8,208.3,92.2,208,91.8z M209.3,89.6c0.9,0.9,1,1,1.8,1.7c0.2,0.4,0.6,0.7,1,1.1c0.3,0.5,0.4,0.6,0.6,1
		c0.8,0.8,0.4,0.2,0.3-0.1c1.1,1.3,0.8,1.3,0,0.6c-0.8-1.1-2-2.1-2.9-3.2c-0.4-0.6,0.6,0.6,0.4,0.3
		C210.1,90.5,209.3,89.7,209.3,89.6z M113.9,9.5c-0.4,0.5-0.8,0.9-1.3,1.3l-0.7,0.6l-0.3,0.3c-0.1,0.1-0.1,0.1-0.2,0.2
		c0.1-0.3,0.6-0.8,1.1-1.2C113,10.3,113.5,9.9,113.9,9.5z M68.7,56c-0.3,0.1-1.3,1.1-1.1,0.8C68,56.6,68.9,55.4,68.7,56z M35,90.4
		c0.4-0.4,0.7-0.9,1.2-1.1C35.9,89.7,34.9,90.7,35,90.4z M175.1,204.8c0.6-0.6,1.2-1.3,1.9-1.8C176.5,203.6,175.2,204.9,175.1,204.8
		z M161.9,215.1c0-0.2,2.5-2.7,2.2-2.1C163.3,213.6,162.8,214.5,161.9,215.1z M211.4,164.1c-0.1,0.2,0,0.2-0.4,0.6
		c-0.2,0.2-0.5,0.5-0.7,0.7C210.7,164.9,211,164.4,211.4,164.1z M142.9,227c1.3-1.3,1.9-1.9,3-2.9C145,225.2,144,226.2,142.9,227z
		 M170.7,199.6c0.5-0.4,1.6-1.6,1.6-1.5C171.9,198.6,170.8,199.8,170.7,199.6z M185.1,185.7c0,0,0.4-0.7,0.8-1
		C186.2,184.6,185.3,185.6,185.1,185.7z M219.8,149c0.3-0.3,0.2-0.2,0.4-0.5c0.5-0.3,0.9-0.9,1.3-1.2
		C221.1,147.9,219.8,149.1,219.8,149z M199,168.2c0.4-0.4,0.7-0.8,1.2-1.1C199.6,167.8,199.1,168.1,199,168.2z M178.3,186.6
		c0-0.2,0.9-1,1.5-1.4C179.4,185.8,178.8,186.2,178.3,186.6z M174.1,190.6c0.5-0.5,1.7-1.7,1.8-1.6
		C175.3,189.5,174.7,190.2,174.1,190.6z M206.6,166.8c-0.9,1-1.8,2-2.8,2.9C204.6,168.7,206.1,167.1,206.6,166.8z M160.1,200.8
		c0-0.2,1-1.2,1.6-1.6C161.2,199.9,160.7,200.4,160.1,200.8z M181.9,186c0.5-0.5,0.9-1,1.5-1.4C183,185,181.9,186.2,181.9,186z
		 M206.7,167.2c0.2-0.1,1.1-1.2,0.9-0.8C207.2,166.8,206.4,167.8,206.7,167.2z M205.8,168.3c-0.3,0.1-0.4,0.4-1,1
		c0.2-0.3-0.3,0.2-0.2,0c0.7-0.7,0.5-0.4,1.1-1.2l0.5-0.4C206,167.9,206.1,167.9,205.8,168.3z M203,170.8c0.5-0.5,0.9-1.1,1.4-1.5
		C204,169.9,203.5,170.4,203,170.8z M183.5,186.5c-0.3,0.3-0.5,0.6-0.8,0.9c0.6-0.7,0-0.6,1-1.4C184,185.9,182.9,186.9,183.5,186.5z
		 M198.7,175.4c0.2-0.2,0.3-0.5,0.5-0.7c0.1-0.1,0.3-0.2,0.5-0.4C199.4,174.8,199,175,198.7,175.4z M207.9,167.9
		c0.3-0.1,0.6-0.6,1.1-1.1C209.1,166.8,207,169,207.9,167.9z M180.4,189.7c-1,0.8-2,2.2-2.7,2.4c0,0.2-1,1.2-1.5,1.7
		c1.4-1.4,1-1.4,2.2-2.8c0.7-0.3,0.5-0.5,1-0.7c0.7-0.8,2.1-2.3,2.4-2.4c-0.1,0.1-0.9,0.9-0.5,0.6c0.5-0.5,1-1,1.5-1.4
		c-0.3,0.5-0.8,0.8-1.2,1.1C181.2,188.7,180.3,189.5,180.4,189.7z M162.5,201.6c-0.1-0.2,0.8-0.9,1.3-1.4
		C163.8,200.4,163,201.2,162.5,201.6z M183.7,186.9c-0.2,0.2-0.4,0.3-0.6,0.5c0.2-0.4,0.5-0.7,0.8-0.9
		C183.3,187.2,184.3,186.2,183.7,186.9z M202.9,172.9c0.4-0.6,0.9-0.8,1.2-1.4c0.5-0.4,0,0.2,0.8-0.6
		C204.1,172.2,203.8,172,202.9,172.9z M194,180c0.4-0.5,0.8-1.1,1.2-1.4C194.8,179.1,194.5,179.7,194,180z M200.1,175.2
		c0.6-0.4-0.7,1.3-1.4,1.9c-0.1-0.1,0.3-0.6,0.6-0.9C199.4,176.2,199.8,175.6,200.1,175.2z M171.2,198c0.1,0.1,0.6-0.5,0.8-0.9
		c0.4-0.4,0.6-0.5,0.6-0.4c0.9-1.1,2.1-1.9,3-3.1c0.5-0.4,0.1,0.3,0.8-0.6c0.5-0.4,0.7-0.2-0.2,0.5c0.1-0.2,0.3-0.4-0.1-0.1
		c0.1,0.4-1.7,2-2.6,3l-0.8,0.6c-0.6,0.6-1,1.3-1.7,1.8c0.2-0.4,1.5-1.8,2.2-2.5c-0.2,0.1,0-0.1,0.3-0.3c-0.5,0.5-1,0.8-1.5,1.3
		c-0.6,0.9-1.3,1.7-2.1,2.3C171.2,198.3,170.8,198.5,171.2,198z M193,181.1c-0.2,0.3,0.4-0.3,0.1,0.2c-0.3,0.2-0.5,0.6-0.9,0.8
		c0.4-0.5,0.2-0.5,0.7-1.1l0.5-0.4C193.3,180.8,193.2,181,193,181.1z M145.2,214.8c-0.3,0.1,0.6-1,1-1.1
		C145.9,214.1,145.6,214.6,145.2,214.8z M153.3,210.1c0.2-0.5,1.9-1.8,1.3-1.2C154.2,209.3,153.9,209.8,153.3,210.1z M195.1,180.5
		c0.2-0.2,0.3-0.5,0.5-0.7c0.2-0.1,0.5-0.4,0.3-0.2C195.6,179.9,195.7,180.1,195.1,180.5z M189.4,185.5c0.2-0.3,0.1-0.3-0.2,0
		l0.6-0.9c0.4-0.4,0.9-0.8,1.3-1.2C190.6,184.1,190,184.8,189.4,185.5z M194.8,180.9c-0.2,0.4-0.1,0.3,0,0.4
		c-0.3,0.2-0.5,0.6-0.9,0.8c1-1.4-1.1,1-0.8,0.5c0.6-0.5,1.8-2,2-1.9L194.8,180.9z M186.7,187.7c0.3,0,0.9-1,1.6-1.5
		C188.1,186.8,186.4,188.3,186.7,187.7z M185.5,188.8c-0.5,0.5-0.3,0-0.6,0.5c-0.2,0.3,0.2,0,0,0.3c-0.2,0.2-0.4,0.3-0.6,0.5
		c0.2-0.3,0.5-0.6,0.1-0.3c0.3-0.4,0.6-0.8,0.9-1.1c-0.1,0.2-0.3,0.4,0.1,0.1c0.5-0.6,0.1-0.3,0.5-0.8
		C186.5,187.5,185.6,188.5,185.5,188.8z M181.2,192c0.6-0.7,1.2-1.4,1.9-1.8C182.5,190.9,181.8,191.5,181.2,192z M192.7,183.1
		c-0.7,0.8-1.5,1.4-2.1,2.2c0.5-0.7,0.9-1.1,1.8-2C192.3,183.5,192.5,183.3,192.7,183.1z M167.7,201.9l0.5-0.7
		c0.5-0.2,0.8-0.6,1.2-1.1c0.2-0.1,0.3-0.2,0.5-0.3C169.2,200.5,168.5,201.2,167.7,201.9z M189.5,186.1c0.5-0.4,0.8-0.9,1.3-1.2
		C190.6,185.3,189.5,186.3,189.5,186.1z M146,217c0.7-0.8,1.6-1.4,2.3-2.3C148.2,215.2,146.8,216.3,146,217z M193,183.6
		c0.1,0-0.2,0.4-0.3,0.6c-0.4,0.4-0.7,0.8-1.1,1.2c-0.2,0.1,0-0.2,0-0.4c-0.5,0.9-1.2,1.5-1.9,2.2c-0.7,0.4-1.2,1-2.2,1.9
		c0.3-0.6,1.9-2,2.8-2.9c-0.3,0.2-0.3,0.2-0.2,0c0.8-0.9,1.1-1.1,0.8-0.6c0.6-0.7,2.6-2.9,3.3-3.2C193.4,183.1,193.6,183,193,183.6z
		 M184.9,190c0.1-0.4,0.4-0.7,1.2-1.4C185.1,189.6,185.9,189.1,184.9,190z M190.9,185.4c-0.3,0.3-0.7,0.7-1,0.9
		C190.2,185.8,191.2,184.8,190.9,185.4z M165.7,203.8c-0.3,0.2-0.5,0.4-0.7,0.7l-0.8,0.6c-0.9,1.1-1.2,1.2-2.2,2.4
		c0.3-0.3-0.3,0.1,0.2-0.5c0.6-0.4,1.2-1.1,1.7-1.7c-0.3,0.1-0.4,0.1,0.1-0.6c0.5-0.4,0.9-0.8,1.4-1.1c-0.4,0.5-0.9,0.9-1.2,1.4
		C164.5,205,165.6,203.8,165.7,203.8z M165.2,204.1c0.4-0.6,0.9-1,1.5-1.4C166.2,203.3,165.7,203.7,165.2,204.1z M187.1,188.9
		c-0.7,0.6,0.3-0.5-0.4,0.1c0.3-0.5,0.7-0.8,1.1-1.2C187.9,187.9,187.5,188.5,187.1,188.9z M139.3,222.2c0.3-0.5,0.7-0.9,1.1-1.2
		C140.1,221.5,139.7,221.8,139.3,222.2z M188.1,188.3c-0.3,0.3-0.2,0.1-0.5,0.3c0.3-0.4,0.6-0.7,1-1L188.1,188.3z M174.3,198.9
		c-0.3,0.2-0.5,0.3-0.5,0.3c0.6-0.7,1.2-1.4,1.9-1.8C175.3,198,174.7,198.3,174.3,198.9z M185.6,190.5c-0.8,0.7-1.5,1.6-2.3,2.3
		c0.8-0.7,1.4-1.7,2.2-2.4C185.3,190.6,185.7,190.3,185.6,190.5z M181.8,193.3l-0.5,0.7c-0.2,0.1-0.6,0.4-0.5,0.2
		C181.2,194,181.5,193.6,181.8,193.3z M186.4,190.1c-0.1,0.3,1-0.8,0.4-0.1c-0.7,0.7-0.1-0.1-0.8,0.5c0.2-0.3,0.4-0.6,0.6-0.9
		c0.2-0.1,1-1,0.8-0.6C187.1,189.5,186.8,189.7,186.4,190.1z M160.3,208.9c0.7-0.5,0.5-0.7,1.3-1.3
		C161.3,208.1,160.3,209.2,160.3,208.9z M178,197.1c0.5-0.5,1-1.1,1.5-1.6C179.1,196.2,178.5,196.6,178,197.1z M133,228.1
		c0.3-0.4,0.6-0.8,1-1C134.1,227.2,133.5,227.9,133,228.1z M173.4,200.8c0.5-0.5,1-1.1,1.6-1.5C174.6,199.9,173.4,201,173.4,200.8z
		 M157.1,212.1c-0.7,0.7-1.4,1.3-2.1,1.9C155.6,213.2,157.3,211.5,157.1,212.1z M181.3,196.5c0.5-0.7-0.1,0-0.3,0.2
		c0.3-0.5,0.7-0.6,1-1c-0.6,0.3-1,0.9-1.5,1.3c-0.1,0.1-0.8,0.4,0-0.4c-0.2,0.4,0.6-0.5,0.8-0.6c0.5-0.8,1.1-1.1,1.7-1.8
		c0.5-0.3,0.8-0.6,1.5-1.3c0.2-0.3-0.4,0.2-0.2,0c1.3-1.1,0.7-0.3,0.3,0.5c-0.3,0.3-0.1,0-0.2,0c-0.2,0.3-0.5,0.4-0.7,0.7
		c0.3-0.2,0.5-0.3,0.5-0.3c-0.5,0.6-0.9,0.9-0.6,0.9c-0.3,0.3-0.6,0.7-1,0.9c0.2-0.3,0.6-0.6,0.4-0.5
		C182.3,195.6,181.8,196,181.3,196.5z M176.6,199.8c0.1,0.1-0.4,0.6-0.8,1c-0.4,0.1-1.1,1-1.8,1.6c0.5-0.8-0.6,0.6-1,0.7
		c0.6-0.7,1.3-1.2,1.9-1.8c1-1.3,0.5-1.3,1.8-2.4C175.9,199.8,175.2,201.1,176.6,199.8z M128.3,233.2c-0.2,0,0.6-0.9,0-0.4
		c-0.7,0.9-0.3,0.6-0.5,1c-0.3,0.2-0.5,0.4-0.8,0.6c0.3-0.7,0.8-1.3,1.1-1.9c1.2-0.8,1.3-1,2.5-2C130,231.3,129.3,232.2,128.3,233.2
		z M153.7,215.5c0.2-0.4,0.6-0.9,1.2-1.4C154.5,214.6,154.1,215,153.7,215.5z M184.7,193.5c0.2-0.3-0.4,0.3-0.1-0.2
		C185.3,192.6,185.4,192.8,184.7,193.5z M173.7,202.2c0.3-0.5,0.7-0.9,1-1.4c0.2-0.2,0.4-0.4,0.6-0.5
		C175.5,200.3,174.4,201.6,173.7,202.2z M152.5,216.5c-0.4,0.3-0.8,0.7-0.5,0.3c0.3-0.2,0.5-0.6,0.9-0.8
		C152.7,216.2,152.6,216.3,152.5,216.5z M163.8,209.3c-0.9,0.6,0.4-0.8,0.9-1.2C164.5,208.6,164.1,208.8,163.8,209.3z M180.1,197.4
		c-0.3,0.3-0.9,0.8-0.5,0.2C180,197.3,180.3,197,180.1,197.4z M151.7,217.6C151.8,217.5,151.8,217.4,151.7,217.6
		c-0.2,0.2-0.5,0.5-0.7,0.7c0.4-0.6,0.9-1.1,1.4-1.5C152.2,217,152,217.4,151.7,217.6z M152.5,217.7c0.5-0.4,0.9-1.1,1.4-1.4
		C153.6,216.8,152.5,218,152.5,217.7z M185.6,194.4c0.2-0.4-0.6,0.5-0.4,0.5c-0.4,0.3-0.3,0.1-0.2-0.1c0.6-0.6,0.5-0.6,1.4-1.5
		C186.2,193.6,186,194,185.6,194.4z M123.2,238.5c0.1,0,0.2-0.1,0.3-0.1C123.4,238.6,123.3,238.8,123.2,238.5z M154.9,218
		c0.3-0.4,0.6-0.7,1-1C155.6,217.5,155.3,217.8,154.9,218z M140.5,227.9c-0.7,0.6,0-0.4,0.5-0.7C140.6,227.7,141,227.4,140.5,227.9z
		 M152.4,220.3c-0.6,0.8-2,2.1-2.2,2c0.7-0.4,1.2-1.3,1.9-1.9C151.8,220.8,152.4,220.1,152.4,220.3z M119.6,235
		c0.7,0.6,1.4,1.2,1.9,1.8C120.8,236.3,119.6,235.3,119.6,235z M172.9,206.9c0.3-0.3,1.3-1.3,1.2-1
		C173.9,206.3,172.8,207.2,172.9,206.9z M160,217.2c-0.6,0.3-1,0.9-1.5,1.2c0.5-0.6,1.1-1,1.5-1.7c0.3-0.2,0.6-0.6,0.9-0.7
		C160.3,216.8,160.4,216.6,160,217.2z M136.7,233.4c-0.6,0.4-0.9,0.6-0.3-0.1c0.5-0.4,0.7-0.4,1.4-1.1
		C137.4,232.7,137,232.9,136.7,233.4z M162.6,217c0.5-0.6,0.9-1.3,1.5-1.7C163.6,215.9,163.2,216.6,162.6,217z M148.6,226.4
		c0.3-0.4,0.6-0.7,1-1C149.4,225.8,149,226.1,148.6,226.4z M153.6,223.3c0.5-0.6,1-1.2,1.6-1.6C154.7,222.3,154.1,222.8,153.6,223.3
		z M149.6,226.4c-0.8,0.6-1.5,1.6-2.3,2.3c0.3-0.7,1.3-1.5,2.4-2.6c0.1-0.2,0-0.2,0.4-0.5C150,225.8,149.9,226,149.6,226.4z
		 M135.8,236.3c0.6-0.8,1.4-1.5,2.1-2.2C137.3,235,136.6,235.6,135.8,236.3z M159.5,220.6c0.3-0.5,0.7-0.8,1.1-1.2
		c-0.2,0.4,0.2,0.1-0.1,0.6C159.8,220.5,160,220.2,159.5,220.6z M161.7,218.2c0.3-0.1,0.6-0.5,1.2-1c-1,1-1.5,2.1-2.2,2.4
		C161.5,218.8,161.4,218.7,161.7,218.2z M159.2,220.5c0.4-0.2,1.3-1.4,1.2-1c-0.5,0.5-1,1.1-1.6,1.5c0.2-0.3,0.1-0.3-0.2,0
		c0.4-0.6,0.9-1.1,1.4-1.5C159.7,219.7,158.8,220.6,159.2,220.5z M148.1,228.6c0.4-0.3,0.7-0.8,1.2-1.1
		C149,227.9,148,228.9,148.1,228.6z M149.8,226.9c-0.4,0.5,0.5-0.3,0,0.4C149.1,227.8,149.2,227.4,149.8,226.9z M146.1,229.6
		c-0.3,0.5-0.7,0.8-1.1,1.3c-0.5,0.2-0.8,0.7-1.2,1c0.6-0.7,0.3-0.4,0.8-1c0.3-0.1,0.6-0.3,1-1C145.9,229.6,146.1,229.5,146.1,229.6
		z M121.7,243.5c0.4,0.2,0.9,0.8,0.9,0.6l0.2,0.3c0.1,0.1,0.2,0.1,0.2,0.2C122.8,244.7,122.1,244.2,121.7,243.5z M107.2,223.9
		c-0.4-0.4-0.8-0.7-0.7-0.7C107,223.5,107.7,224.2,107.2,223.9z M158,221.9c0.4-0.4,0.9-0.8,1.3-1.2
		C159,221.2,157.9,222.1,158,221.9z M124.3,245.5c0.6-0.7,1.1-1.2,1.7-1.7C125.4,244.5,124.8,245.1,124.3,245.5z M152.3,227.3
		c0.3-0.3,0.1-0.2,0.4-0.5c0.6-0.6,0.8-0.4,1.5-1.4c0-0.2-0.9,0.8-0.6,0.2c0.6-0.6,0.9-0.9,1.3-1
		C154.1,225.6,152.7,227.2,152.3,227.3z M129.1,242.5c-0.7,0.6-1.4,1.6-2.2,2.1c0.6-0.8,1.2-1.3,1.8-2
		C129.1,242.2,129.3,242.1,129.1,242.5z M142.2,234.1c-0.3,0.3-0.6,0.5-0.9,0.7C141.6,234.3,142.6,233.6,142.2,234.1z M150.1,229.4
		c0.2-0.2,0.2-0.3,0.2-0.4c0.3-0.3,0.6-0.5,0.9-0.7C150.9,228.7,150.5,229.1,150.1,229.4z M139.3,236.8c0.4-0.4,0.7-1.1,1.3-1.4
		C140.1,236,139.7,236.4,139.3,236.8z M134.7,240.4c0.5-0.7,0.8-0.7,0.9-1.1c0.3-0.2,0.5-0.3,0.5-0.3
		C135.8,239.5,135.3,240,134.7,240.4z M138,237.3c-0.7,0.4-1.1,1.3-1.8,1.6C136.6,238.3,137.9,237.2,138,237.3z M147.8,231
		c0.3-0.5,0.8-0.8,1.2-1.1C148.7,230.4,148.2,230.6,147.8,231z M137.1,238.7c0.3-0.5,0.8-0.8,1.1-1.2
		C138.4,237.6,137.6,238.4,137.1,238.7z M135.5,240.6c0.7-0.9,1-1.2,1-1.4c0.5-0.5,0.4-0.2,0.7-0.4c-0.3,0.5-0.7,0.8-1.1,1.2
		c0.2-0.2,0.6-0.6,0.5-0.3c-0.8,0.9-1.3,1.2-2,1.7c0.1-0.2,0-0.2,0.4-0.6C135.6,240.3,135.3,240.7,135.5,240.6z M133.1,242.4
		c0.9-1.1,1.9-2,2.9-2.9C136.1,239.9,134.2,241.5,133.1,242.4z M148.8,231.5c0.7-0.8,1.5-1.4,2.2-2.1
		C150.3,230.2,149.6,231,148.8,231.5z M144,234.8c0-0.1,0-0.3,0.6-0.9C144.6,234,144.4,234.5,144,234.8z M145.4,234.6
		c-0.8,0.7,0.5-0.7,0-0.4c-0.4,0.3-0.7,0.9-1.2,1.1c0.7-0.9,1.5-1.6,2.3-2.3C146.4,233.3,145.6,234,145.4,234.6z M131.8,243.1
		c-0.1,0.1-0.2,0.3-0.3,0.4c-0.1,0.1-0.2,0.2-0.4,0.4c-0.3,0.3-0.6,0.6-0.9,0.8c-0.5,0.4-0.8,0.5-0.5,0.1c0.3-0.2,0.5-0.3,0.8-0.5
		c0.1-0.1,0.3-0.2,0.6-0.5C131.2,243.6,131.4,243.4,131.8,243.1z M131.9,243.6c0.2-0.3,0.4-0.6,0.6-0.9c0.2-0.1,0.5-0.3,0.4-0.2
		C132.5,242.9,132.3,243.5,131.9,243.6z M138.5,239.6c-0.5,0.3-0.2-0.1,0-0.4c0.2-0.1,0.4-0.4,0.6-0.5
		C139,239,138.8,239.3,138.5,239.6z M141.4,237.9c-0.4,0.2-0.4,0.1,0-0.5C142.1,236.9,142,237.4,141.4,237.9z M132.8,243.3
		c-0.4,0.6-1.2,1.1-1.3,1.1c0.1-0.1,0.2-0.2,0.3-0.3c0.1-0.1,0.1-0.1,0.2-0.2c0.1-0.1,0.2-0.1,0.2-0.2
		C132.3,243.6,132.4,243.5,132.8,243.3z M139,240.3c-0.3,0.2-0.5,0.4-0.8,0.6c0.7-0.8,0.9-0.8,1.2-1.4c0.3,0,0.7-0.7,1.4-1.1
		C140.2,239.1,139.5,239.6,139,240.3z M134.7,243.9c1.1-0.7,2.6-2.6,3.2-2.8C137,241.9,134.8,244.3,134.7,243.9z M135.6,243.1
		c0.3-0.3-0.3,0.1,0.2-0.5c0.3-0.2,0.5-0.5,0.8-0.6C135.9,242.7,136.2,242.5,135.6,243.1z M128.4,250c-0.6,0.4-1.2,1.2-1.8,1.6
		c0.7-0.7,1.4-1.4,2.1-2C128.4,249.9,128.7,249.7,128.4,250z M111.4,239.6c0.5,0.5,2,2,1.4,1.7C112.5,240.8,111.3,239.7,111.4,239.6
		z M99.9,223.5c-0.6-0.7,0.3,0,0.7,0.5C100.1,223.6,100.4,224,99.9,223.5z M111.7,240.2c0.4,0.3,0.7,0.7,0.9,1
		c-0.4-0.4-0.6-0.2-0.9-0.6C111.9,240.7,111.7,240.2,111.7,240.2z M111,239.8c-0.6-0.8,0.2-0.2,0.6,0.3
		C111.6,240.2,111.6,240.4,111,239.8z M116.3,247.7c-0.5-0.8-1.5-1.5-2-2.3c1.3,1.2,2.4,2.4,3.6,3.7
		C117.4,248.6,116.8,248.1,116.3,247.7z M110.8,240l0.7,0.5l0.3,0.5C111.3,240.7,111.1,240.3,110.8,240z M108.9,237
		c-0.8-0.7-0.5-0.7-1.3-1.5C108.1,235.9,108.9,236.9,108.9,237z M107.2,235l-0.4-0.6c0.4,0.3,1.4,1.3,1.1,1.2
		C107.6,235.1,107.3,235.1,107.2,235z M95.3,218.9c0.3,0.3,0.6,0.7,0.9,1c-2-2-4-4-5.9-6.1c0.7,0.5,1.1,1.2,1.8,1.7
		c-0.3-0.4-0.7-0.7-0.3-0.5c0.6,0.6,0.3,0.4,0.8,1.1c0.7,0.6,1.2,1.3,1.9,1.8c-0.4-0.4-0.8-0.8-1.1-1.2c0.3,0.3,0.6,0.6,0.9,0.8
		c0.5,0.5-0.3,0,0.4,0.6c0.5,0.4-0.3-0.5,0.3,0.1c0.3,0.3,0.6,0.6,0.8,0.9C95.8,219.2,95.1,218.7,95.3,218.9z M108.5,237.2
		c-0.5-0.8-1.3-1.4-1.8-2.1c0.5,0.3,0.1-0.2,0.9,0.6c0.6,0.7,0,0.2,0.1,0.4c0.4,0.4,0.8,0.9,1.3,1.3
		C109.4,238,109,237.6,108.5,237.2z M112.2,243.2c0.5,0.5,1.1,0.9,1.5,1.4C113.2,244.1,112.6,243.7,112.2,243.2z M104.1,230.9
		l0.7,0.5c0.1,0.2,0.2,0.3,0.3,0.5C104.7,231.6,104.4,231.3,104.1,230.9z M99.4,226.8c-0.3-0.2-0.5-0.5-0.7-0.8
		c1.1,1,1.3,1.7,1.8,2.3c0.3,0.2,0.5,0.5,0.8,0.7c0.9,1.2,2,2.3,3.1,3.5c0.2,0.1,0.7,0.4,1.1,0.8c-0.1,0.2,0.6,0.5,1,1.2
		c-1-0.9-1.8-1.6-2.5-2c-0.7-1.1-2.5-2.7-3.6-3.9c0.2,0.1,1,0.9,0.7,0.5c-0.6-0.5-1-1.1-1.6-1.6c0.2,0.2,0.5,0.6,0.3,0.5
		c-0.4-0.6-1.8-1.8-1.7-2c0.6,0.8,1.8,1.8,1.3,1.1c-0.2,0-1.9-2-1.9-2.1C98.2,225.6,99.6,227.2,99.4,226.8z M98.6,226.3
		c0,0-0.7-0.6-1.1-1c0.3,0.2-0.6-0.7-0.7-0.9C97.5,224.9,98,225.6,98.6,226.3z M112.3,243.1c-0.7-0.7-1.4-1.5-2-2.3
		C111,241.5,112.3,242.8,112.3,243.1z M107.7,236.5c0.2,0.3,0.6,0.6,0.8,0.9C108.1,237.3,107.4,236.3,107.7,236.5z M105.1,233.6
		c0.4,0.3,1.5,1.4,1.2,1.4C106,234.5,105.5,234.1,105.1,233.6z M109,239.5c0.1,0,0.8,0.7,1.1,1.2C109.7,240.3,109.4,239.9,109,239.5
		z M88.8,212.3c0.2,0.1,0.9,0.9,0.9,0.7C90.3,213.7,89.1,212.7,88.8,212.3z M87.2,210.7c0.1,0,0.8,0.7,1.3,1.1
		c0.1,0.1,0.2,0.3,0.4,0.4C88.2,211.7,87.6,211.2,87.2,210.7z M101.5,229.6c0.4,0.4,1.5,1.4,1.2,1.4
		C102.3,230.5,101.8,230.1,101.5,229.6z M103.3,232.8c0.4,0.3,0.7,0.7,1,1C103.9,233.5,103.5,233.2,103.3,232.8z M96.1,223.4
		c-0.4-0.4-0.7-0.8-1.1-1.2c0.5,0.4,0.6,0.4,1.2,1.1C96,223.1,96.5,223.8,96.1,223.4z M93.4,220.2c-0.2-0.3-0.4-0.5-0.6-0.8
		c0.1,0.1,0.2,0.2,0.3,0.3c-0.1-0.1-0.1-0.2,0,0c0.7,0.9,0.3,0.2,0.7,0.5c0.3,0.4,0.7,0.7,0.9,1.1C94,220.6,94,220.6,93.4,220.2z
		 M94.7,222.1c-0.1-0.2-0.5-0.6-0.3-0.5c0.6,0.7,1.4,1.4,1.9,2.1C95.5,223,95.2,222.5,94.7,222.1z M57.6,177.9
		c-0.5-0.5-0.1-0.2,0.4,0.3c0.2,0.2,0.4,0.4,0.5,0.6C58.5,178.7,57.9,178.2,57.6,177.9z M80.7,204.2c-0.5-0.5-1-1-1.4-1.4
		c0.5,0.4,0.7,0.4,1.4,1.3C80.2,203.7,79.9,203.4,80.7,204.2z M90.3,216.8c0.5,0.6,0.6,0.7,0.4,0.6c1.1,1,2.7,2.8,3.1,3.5
		c-1.1-1.3-2.5-2.7-3.3-3.5c0.2,0.2,0.1,0-0.1-0.4c-0.1,0-0.2-0.1-0.8-0.7c-0.3-0.3,0-0.1,0-0.2c-0.4-0.3-0.3-0.3-0.9-0.9
		c0.3,0.5-0.6-0.5-0.9-0.9c0.1,0,0.6,0.6,1.1,1C89.8,216.3,89.8,216.4,90.3,216.8z M98.7,228.9c-0.6-0.8-1.3-1.3-1.8-1.8
		c-0.5-0.7,0.4,0.2,0.8,0.5c0.2,0.3,0.5,0.6,0.9,0.9C98.9,229,98.9,229.1,98.7,228.9z M90.2,217.2c-0.6-0.7-1.2-1.3-1.7-2
		c0.5,0.4,0.9,0.9,1.3,1.3C89.5,216.3,90.9,217.8,90.2,217.2z M94.2,223.3c0,0,0.7,0.6,1.1,1C94.9,224,94.5,223.7,94.2,223.3z
		 M94.6,224.4c0.4,0.3,0.7,0.7,1.1,1c-0.3-0.4-0.6-0.8-0.3-0.5c0.4,0.5,1.5,1.7,1.4,1.7C96.1,226,95.4,225.4,94.6,224.4z
		 M87.1,213.6c-0.2-0.3-1.2-1.2-0.9-1.1C86.6,212.9,87.7,214,87.1,213.6z M89.2,217c0.6,0.6,1.1,1.2,1.7,1.8
		C90.8,218.7,89.2,217,89.2,217z M93.4,222.8c0.2,0.2,0.3,0.2,0.4,0.3c0.3,0.4,1.3,1.5,1.1,1.4C94.4,223.9,93.8,223.4,93.4,222.8z
		 M81.3,207.4c0.9,0.9,2.3,2.4,3.4,3.5c-0.2-0.2-0.5-0.6,0-0.2c0,0.2,0.5,0.6,1.3,1.5c-0.6-0.5-1-1-0.9-0.7
		C84.3,210.5,82.5,208.8,81.3,207.4z M48.3,168.5c0.4,0.5,1,1,1.4,1.4C49.3,169.6,48.1,168.5,48.3,168.5z M70.6,194.1
		c-0.2-0.3-0.5-0.6-0.9-0.9c-0.5-0.6,1.1,0.9,1.9,1.7C70.7,194.1,70.7,194.1,70.6,194.1z M90.8,219.8c0.9,0.9,1.6,1.8,2.4,2.7
		c-0.2-0.1-0.3-0.3-0.5-0.4C92.1,221.3,91.4,220.6,90.8,219.8z M79.5,204.7c0.6,0.6,1.9,1.9,1.9,2.1
		C80.9,206.2,79.5,204.9,79.5,204.7z M80.5,206.3c-0.7-0.8-1.5-1.6-2.2-2.4c0.9,0.8,2.4,2.4,2.6,2.8
		C80.8,206.4,80.6,206.3,80.5,206.3z M89.7,218.6c0.3,0.2-0.2-0.4,0-0.2c0.3,0.4,0.8,0.8,1,1.2C90.3,219.3,89.9,219,89.7,218.6z
		 M87.1,215.7c0.5,0.5,1,1,1.4,1.5C88.1,216.7,87.6,216.2,87.1,215.7z M80.2,206.2c-0.9-0.8-0.9-1-1.4-1.6c0.3,0.3,0.5,0.4,0.5,0.4
		c0.1,0.1,0.2,0.2,0.2,0.3C79.1,205,79.5,205.5,80.2,206.2z M88.2,217.3c-0.7-0.8-1.5-1.6-2.1-2.4c0.7,0.8,0.6,0.5,1.2,1.2
		c0.7,0.8-0.2,0.1,0.4,0.7c0.2,0.2,0-0.2,0.6,0.4C88.6,217.5,88.3,217.4,88.2,217.3z M85.3,213.6c0.1,0,0.3,0.2,0.7,0.6
		c0.3,0.4,0.7,0.8,1,1.2c-0.1-0.1-0.2-0.2-0.3-0.3C86.3,214.6,85.9,214.3,85.3,213.6z M75.5,201.2c0.7,0.7,2.6,2.6,2.2,2.3
		C77,202.7,76.1,202,75.5,201.2z M71.5,196.8c0.4,0.4,0.8,0.8,1.2,1.2C72.6,197.9,71.9,197.2,71.5,196.8z M71.2,196.7
		c0.8,0.9,3.1,3.1,2.9,3.1C73.3,198.8,71.5,197.1,71.2,196.7z M66.7,191.5c0.4,0.4,0.8,0.8,1.2,1.2
		C67.8,192.7,67.1,191.9,66.7,191.5z M67.4,192.6c-0.7-0.8-1.6-1.6-2.3-2.5c0.6,0.5,2.1,2.1,3,3C67.7,192.7,68,193.1,67.4,192.6z
		 M67.1,192.3c-0.7-0.9-1-0.9-1.9-1.9c0.8,0.8,0.4,0.4,0.8,0.7C66.4,191.5,67.6,192.7,67.1,192.3z M62.3,187.3
		c0.5,0.4,0.9,0.9,1.3,1.3C63.6,188.6,62.7,187.8,62.3,187.3z M70.5,197.3c0.6,0.5,1,1,1.4,1.5C71.4,198.3,70.9,197.8,70.5,197.3z
		 M70.7,197.6c0.3,0.3,1.3,1.4,1.1,1.2C71.5,198.4,71,198,70.7,197.6z M68.8,195.4c0.3,0.2-0.3-0.4-0.2-0.3c0.4,0.3,0.7,0.7,1,1
		C69.1,195.6,69.5,196.1,68.8,195.4z M68.6,195.6c0.1,0.1,0.7,0.6,0.6,0.4c-0.4-0.3-0.6-0.7-0.9-1c0.7,0.7,1.5,1.4,2.2,2.2
		C69.3,196,69.8,197,68.6,195.6z M57.3,182c0.3,0.2,1.3,1.2,1,1C58,182.7,57.6,182.3,57.3,182z M66.8,193.3c0.4,0.3,0.7,0.7,1,1
		C67.4,194,67,193.7,66.8,193.3z M58.7,183.7c-0.7-0.7-2-1.9-2.1-2.2c-0.6-0.5-1.5-1.5-1.6-1.6l-0.5-0.6c0.4,0.4,0.7,0.7,0.8,0.7
		c0.8,0.8,1.2,1.3,1.5,1.4c0.6,0.6,0.1,0.1,0.2,0.3l0.8,0.7C58.3,183.3,57.6,182.6,58.7,183.7z M53.7,178.6
		c-0.7-0.8,1.1,0.9,1.5,1.4c-0.2-0.2-0.1,0-0.2-0.1C54,178.9,54.4,179.2,53.7,178.6z M52,177c-0.6-0.7,0.1,0,0.6,0.4
		c0.2,0.2,0.5,0.5,0.7,0.7C52.7,177.6,52.5,177.3,52,177z M48.8,173.4c0.5,0.4,0.9,0.9,1.3,1.3C49.6,174.2,49.2,173.8,48.8,173.4z
		 M12.3,130.5c-0.4-0.3-1.4-1.5-1.2-1.4c0.3,0.4,0.9,0.9,0.9,0.9C12.2,130.3,12.3,130.5,12.3,130.5z M40.8,165.7
		c-0.7-0.8,1.6,1.3,1.4,1.3C41.6,166.3,41.6,166.4,40.8,165.7z M10.8,128.8c-0.2-0.3-0.5-0.6-0.3-0.7c0,0.2,0.2,0.1,0.3,0.2
		c0,0.1-0.1,0.1-0.2,0.1C10.7,128.5,10.9,128.8,10.8,128.8z M10.8,127.7c-0.1,0.1-0.2,0.2-0.4,0.2C10.3,128,10.9,127.6,10.8,127.7z
		 M40,166.2c0.5,0.5,1,0.9,1.4,1.4C40.9,167.2,40.4,166.7,40,166.2z M37.3,163.7c-0.5-0.3-0.7-0.7-1.2-1.1c0.3,0.4-0.5-0.3-0.8-0.5
		c-0.6-0.7,1,0.8,0.4,0.1c-0.2-0.1-0.1-0.1-0.5-0.4c-0.2-0.2-1.1-1.1-0.8-0.9c0.8,0.8,4.1,3.7,3.2,3.1c0.6,0.6,2,1.9,2,2
		C39.2,165.6,37.5,164,37.3,163.7z M36.3,162.9c0.8,0.7,1.5,1.4,2.2,2.1C37.7,164.3,36.9,163.6,36.3,162.9z M18.8,120.1
		c0.7-0.5,2-2.1,2.3-2C20.3,118.7,19.1,120.1,18.8,120.1z M33.6,160.3c-0.2-0.2-0.5-0.6-0.4-0.4c0.7,0.7,1,1,1.4,1.3
		C35,161.6,34.1,160.8,33.6,160.3z M31,157.6c-0.3-0.3-0.7-0.7-1-1C30.5,157,31.5,158,31,157.6z M31.8,158.8
		c-0.3-0.4-0.4-0.5-0.2-0.3c0.2,0.2,0.3,0.4,0.5,0.6c0.2,0.1,0.3,0.3,0.5,0.4L31.8,158.8z M26.2,113.2c-0.1,0.2,0,0.2-0.4,0.5
		c-0.4,0.2-0.7,0.6-1.1,0.9C25.2,114.1,25.7,113.6,26.2,113.2z M25.7,152.6c0.1,0.1-0.6-0.6-0.7-0.7c-0.2-0.2-0.1,0-0.2-0.1
		c-0.8-0.7-1-1-0.3-0.5c0.8,0.8,1.6,1.5,2.3,2.2C26.2,153,26,152.8,25.7,152.6z M29.1,111l-0.7,0.4C28.8,110.9,29.7,110.3,29.1,111z
		 M22,148.9c-0.5-0.4-0.9-0.8-1.3-1.3C21.2,148.1,21.6,148.5,22,148.9C21.9,148.9,21.9,148.8,22,148.9z M35.4,104.6
		c0.4-0.3,0.7-0.6,1.1-0.9c-0.2,0.2,0.3,0.1-0.4,0.6c0.3-0.4-0.1-0.1-0.5,0.3c0.2-0.1,0.2,0,0.1,0.2c-0.3,0.2-0.6,0.6-0.9,0.8
		C35.5,104.7,34.7,105.3,35.4,104.6z M17.4,144.8c-0.6-0.6-2.1-1.9-2.2-2.1c0.4,0.4,0.9,0.8,1.3,1.2c-0.2-0.2-0.5-0.5-0.7-0.7
		c0.4,0.4,1.1,1,1.2,0.9C17.3,144.5,17.4,144.7,17.4,144.8z M38.4,101.8c-0.2,0.3,0,0.2-0.3,0.6C37.7,102.7,37.6,102.4,38.4,101.8z
		 M14.4,141.9c-0.6-0.7-0.5-0.7-0.2-0.5c0.2,0.2,0.4,0.4,0.5,0.6C14.4,141.7,15.2,142.6,14.4,141.9z M39.8,100.7
		c-0.3,0.4-0.6,0.8-1,1C39.1,101.3,39.4,101,39.8,100.7z M12.4,140.1c0.8,0.7,1.6,1.5,2.4,2.2c-0.9-0.8-1.1-0.9-1.7-1.5
		c0.1,0.1,0.1,0-0.1-0.2C12.8,140.5,12.6,140.3,12.4,140.1z M11.3,139c0.2,0.1-0.1-0.2,0-0.2c0.9,0.8,1.7,1.5,2.5,2.3
		c-0.5-0.4-0.2-0.1-0.7-0.5C12.5,140.1,11.9,139.5,11.3,139z M43.4,97.1c-0.5,0.6-0.8,1-0.6,1c-0.5,0.3-0.9,0.8-1.4,1.2
		c0.7-1-0.5,0.3-0.1-0.2C42.1,98.5,42.7,97.7,43.4,97.1z M10.1,138.1c-0.3-0.3-0.1-0.2-0.3-0.4c-0.2-0.1-0.1,0-0.2-0.1
		c-0.6-0.6-0.2-0.3,0.3,0.1c0.2,0.2,0.3,0.4,0.5,0.6c-0.1-0.1,0.1,0.1,0.4,0.2c0.1,0.1,0.3,0.3,0.4,0.4
		C10.2,138.1,10.4,138.3,10.1,138.1z M8.3,136c-0.5-0.4-1-0.9-1.5-1.4C7.4,135.1,8.4,136,8.3,136z M4.2,132.4
		c-0.7-0.7-1.5-1.4-2.1-2.1c0.8,0.6,1.3,1.2,1.9,1.8c-0.1-0.1-0.4-0.4-0.1-0.2C4.1,132.3,4.2,132.3,4.2,132.4z M0.7,127.2
		c-0.2,0.2-0.4,0.4-0.5,0.6L0,127.9L0,128c0,0,0,0,0,0.1l0.3,0.3c0.4,0.4,0.8,0.8,1.1,1.1c-0.4-0.3-1-0.9-1.5-1.5
		C0.3,127.5,0.8,127.1,0.7,127.2z M0.3,127.7c0.2-0.2,0.4-0.5,0.6-0.7c0.6-0.6,0.8-0.8,0.5-0.4C1.1,126.9,0.8,127.3,0.3,127.7
		C0.7,127.4,0.2,127.9,0.3,127.7z M5.4,122.3c-1.2,1.4-2.4,2.6-3.5,3.8C2.9,124.8,4.2,123.6,5.4,122.3z M5.8,121.4
		c-0.1,0.1-0.1,0.2-0.3,0.5c-0.2,0.2-0.5,0.5-0.7,0.8c-0.5,0.6-1.2,1.2-1.7,1.8c0.5-0.6,1-1.1,1.4-1.7c0.3-0.3,0.5-0.5,0.7-0.8
		l0.4-0.4L5.8,121.4z M9.4,118.1c0.2-0.1,0.1,0,0.5-0.3c-0.6,0.7-1.1,1.4-1.8,1.9C8.8,118.9,9.4,118.1,9.4,118.1z M17.4,109
		c-0.3,0.4,0.4-0.4,0.6-0.5c-0.2,0.3-1.2,1.3-1,1C17.3,109.2,17.1,109.2,17.4,109z M75.3,48.8c0.4-0.3,0.8-0.8,1.2-1
		c-0.5,0.7-1,1.3-1.6,1.9L74.4,50C75.2,49.1,75.1,49.3,75.3,48.8z M80.1,44.2c-0.7,0.5-1.4,1.6-1.4,1.1
		C79.1,45.1,80.1,43.9,80.1,44.2z M134,29.4c-1.6-1.2,1.3,1.4-0.4,0.3c-0.3-0.6-0.2-0.5-0.8-1.1C132.9,28.6,133.4,28.7,134,29.4z
		 M132.1,28.3c-0.2-0.2-0.3-0.4-0.5-0.6c-0.3-0.2-0.2,0.3-0.9-0.4c0-0.2,0.4,0.1,0.1-0.3c0.8,0.7,1,0.5,1.8,1.2
		C132.7,28.4,132.9,28.8,132.1,28.3z M93.8,29.8c0.4-0.5,0.8-0.9,1.3-1.3c0.1,0.1-0.5,0.7-0.8,1.3C93.7,30.2,94.2,29.6,93.8,29.8z
		 M136.2,31.6c0.3,0.5-0.1,0.3-0.1,0.5c-0.3-0.4-0.9-0.7-1.2-1.1C135.5,31.2,135.6,31.3,136.2,31.6z M96.9,26.9
		c-0.7,0.6-0.4,0.7-1.1,1.2C95.6,28.2,97,26.5,96.9,26.9z M136.6,32c0.4,0.2,0.7,0.5,0.9,0.8c-0.2-0.1-0.4-0.2-0.7-0.5
		C136.9,32.5,136.7,32.2,136.6,32z M147.9,24.9c-0.4-0.6-1.1-1-1.6-1.6C146.9,23.7,148.1,24.8,147.9,24.9z M150.2,27.2
		c-0.7-0.7-1.5-1.4-2.1-2.2C149,25.6,149.7,26.4,150.2,27.2z M151.3,28.1l-0.7-0.5c-0.1-0.2-0.2-0.3-0.3-0.5
		C150.8,27.4,151,27.8,151.3,28.1z M191.9,78.1c0.4,0.5,0,0.2-0.6-0.2c-0.7-0.6-1.7-1.7-2.9-2.6c-0.1-0.2-0.4-0.5-0.2-0.3
		C189.1,75.6,190.7,77,191.9,78.1z M195.8,82c0.2,0.3,0.3,0.4,0.1,0.4c-1-0.9-2-1.9-3-2.8C193.9,80.4,194.8,81.2,195.8,82z
		 M177.2,54.7c-0.2,0-1.4-1.1-1.8-1.7C176,53.5,176.6,54.1,177.2,54.7z M200.3,86.2c-1.3-1.2-2.5-2.2-3.2-2.7l-0.5-0.6
		C197.5,83.7,198.7,84.5,200.3,86.2z M187.7,64.6c0.3,0.2,0.5,0.5,0.8,0.7c0.6,0.8-0.7-0.4,0.1,0.8c-0.5-0.5-1.2-1-1.5-1.6
		C187.9,65.5,188.4,65.7,187.7,64.6z M210.7,96.9c0.4,0.4-0.2,0-0.2,0.1c-0.3-0.3-0.7-0.7-0.9-1C210,96.2,210.3,96.6,210.7,96.9z
		 M206.8,90.2c0.4,0.4,0.8,0.6,1,0.8c0.5,0.7,0,0.2,0.1,0.3c0.2,0.1,0.3,0.3,0.4,0.5c-0.7-0.7-1.3-1.4-1.1-1
		C206.9,90.5,206.7,90.2,206.8,90.2z M203.4,83.2c-0.2-0.4-0.7-0.7-0.9-1.1C202.9,82.3,203.7,83.3,203.4,83.2z M207.2,87.4
		c-0.8-0.7-1.5-1.4-2.1-2.2C205.8,85.9,206.6,86.6,207.2,87.4z M209.9,90.4c-0.4-0.4-0.8-0.8-1.1-1.2
		C209.2,89.6,209.6,90,209.9,90.4z M210,90c0.3,0.4,0.4,0.6,0.5,0.6c0.5,0.7-0.7-0.6-0.9-0.9C209.9,89.9,210,89.9,210,90z
		 M233.4,117.3c0,0-0.8-0.8-1.2-1.2C232.3,116.1,233,116.9,233.4,117.3z"/>
	<path class="svgFrame" d="M109,240.6c0.2,0.2-0.3-0.4-0.1-0.2c-1.7-1.5-3-3.3-4.6-4.9c1.2,1.5,2.4,2.9,3.7,4.3c0.2,0.1-0.1-0.2-0.2-0.4
		C108.2,239.9,108.6,240.2,109,240.6z"/>
	<path class="svgFrame" d="M209.7,156c-0.5,0.4-1,1-1.5,1.4C208.8,157,209.3,156.6,209.7,156z"/>
	<path class="svgFrame" d="M183.3,181.4c0.3-0.4,0.2-0.4,0.4-0.6c-0.3,0.2-0.5,0.5-0.7,0.8c-0.1,0-0.1,0-0.3,0.2
		C182.3,182.2,182.9,181.7,183.3,181.4z"/>
	<path class="svgFrame" d="M207,164c0.6-0.6-0.9,0.9-0.9,0.7c-0.2,0.3,0,0.2-0.1,0.3C206.7,164.4,206.3,164.5,207,164z"/>
	<path class="svgFrame" d="M196.9,171.9c0.3-0.4,0.3-0.4-0.1-0.2c0,0.1-0.3,0.4-0.7,0.8C195.8,172.8,196.7,172,196.9,171.9z"/>
	<path class="svgFrame" d="M198.9,170.8c0.1,0-0.1,0.3,0.2,0c0.4-0.4,0.5-0.6,0.5-0.7c-0.3,0.2-0.5,0.6-0.9,0.9
		C198.6,171.1,198.8,170.9,198.9,170.8z"/>
	<path class="svgFrame" d="M175.8,187.2c-0.6,0.4-0.3,0.4-0.5,0.7c-0.4,0.5-0.1,0-0.6,0.4c-0.7,0.9-1.5,1.6-2.3,2.3
		c-0.1,0.2-0.1,0.3-0.2,0.5c0.6-0.7,1.9-2,3.1-2.9C175.4,187.7,175.9,187.3,175.8,187.2z"/>
	<path class="svgFrame" d="M200.6,170c-1.7,1.8-2.9,2.9-4.5,4.7c0.2-0.2,0.6-0.6,0.5-0.4c0.7-0.6,0.4-0.4,1-1.1c0,0.2,2.2-2.1,1.6-1.4
		C199.5,171.5,200.4,170.3,200.6,170z"/>
	<path class="svgFrame" d="M167.5,193.6c-0.5,0.3-2.2,1.9-3.1,2.9C165.4,195.5,166.4,194.6,167.5,193.6z"/>
	<path class="svgFrame" d="M220.9,154c0-0.1,0.4-0.5,0.8-1c-0.9,0.9-0.8,1-1.2,1.4C220.3,154.5,220.7,154.1,220.9,154z"/>
	<path class="svgFrame" d="M196.9,173.7c-0.5,0.6-1.1,1-1.5,1.6C195.9,174.9,196.3,174.2,196.9,173.7z"/>
	<path class="svgFrame" d="M170.2,193.4c0.4-0.4-0.1,0,0.1-0.3c-0.4,0.3-0.7,0.7-1,1C169.1,194.4,169.9,193.4,170.2,193.4z"/>
	<path class="svgFrame" d="M206.3,168.1c-0.1,0.2,0.1,0,0.2-0.1c-0.2,0.4-0.6,0.6-0.8,1c0.6-0.6,1.1-1.1,1.6-1.8
		C206.8,167.7,206.6,168,206.3,168.1z"/>
	<path class="svgFrame" d="M189.9,182.9c-0.7,0.8-0.7,0.6-1.4,1.4c-0.3,0.5-0.2,0.4-0.5,0.8C188.6,184.4,189.8,183.2,189.9,182.9z"/>
	<path class="svgFrame" d="M153.5,208.7c0.3-0.1-0.7,0.8-0.5,0.7c0.4-0.2,0.6-0.8,1-1c-0.2,0,0.5-0.8-0.2-0.4c-0.4,0.4-0.7,0.9-1.1,1.2
		C152.4,209.7,153.3,208.8,153.5,208.7z"/>
	<path class="svgFrame" d="M150.8,211.1c-0.7,0.6-1.3,1.4-2.1,1.9c-0.4,0.6,0.5-0.3,0.2,0C149.6,212.4,150.2,211.8,150.8,211.1z"/>
	<path class="svgFrame" d="M147.8,214.2c0.3-0.2,0.2,0,0.5-0.3c0.8-0.9,1.6-1.7,2.5-2.4c-0.3-0.1-1.6,1.4-2.3,1.8c-0.4,0.6-0.9,1-1.5,1.3
		c-0.8,0.9-0.8,1-1.5,1.8c0.3-0.3,0.6-0.5,0.9-0.8c0.4-0.4-0.1,0,0.1-0.3c0.1-0.2,0.3-0.3,0.4-0.5c0.2-0.1-0.3,0.5,0.4-0.1
		C147.7,214.5,147.8,214.4,147.8,214.2z"/>
	<path class="svgFrame" d="M194,185.6c0.1-0.2-0.1,0-0.2,0.1c-0.2,0.2-0.4,0.4-0.3,0.2c-0.2,0.2-0.4,0.5-0.6,0.8
		C193.3,186.4,193.6,186,194,185.6z"/>
	<path class="svgFrame" d="M180.1,199.1c0.2-0.3-2,1.7-2.6,2.6c0.2-0.2,1.1-1.2,0.9-0.8C179,200.4,179.5,199.6,180.1,199.1z"/>
	<path class="svgFrame" d="M172.7,206.1c-0.6,0.5-1,0.6-1.8,1.6c0.3,0.1,1.6-1.6,1.6-1.1C173.1,205.8,172.1,206.8,172.7,206.1z"/>
	<path class="svgFrame" d="M141.9,229.5c0.2-0.4-0.6,0.5-0.8,0.6c-0.3,0.3,0,0.3-0.4,0.5c-0.1,0.2-0.1,0.1,0,0.1c0.1-0.1,0.2-0.1,0.3-0.2
		c-0.2,0.1,0.6-0.9,0.4-0.5C141.8,229.7,141.5,229.8,141.9,229.5z"/>
	<path class="svgFrame" d="M156.5,222.1c-0.1-0.1-1.3,1.1-1.8,1.6c0.1-0.3-1.2,0.7-1.6,1c0.1,0.1,0.6-0.1,1-0.2c-0.1-0.4,0.9-0.9,1.9-1.8
		C155.9,222.6,156.1,222.4,156.5,222.1z"/>
	<path class="svgFrame" d="M151.4,226.2c-0.3,0.1-1.7,1.5-2.4,2.1c-0.4,0.5,1-0.9,0.7-0.4C149.9,227.6,150.7,226.7,151.4,226.2z"/>
	<path class="svgFrame" d="M153.1,225.2c0.5-0.7-0.1,0-0.3,0.2c-0.3,0.2-0.3,0.2-0.2,0c-0.3,0.2-0.5,0.5-0.7,0.7c0.3-0.2,0.6-0.2-0.4,0.5
		c-0.1,0.2,0.3-0.1,0.5-0.3C152.3,225.9,152.7,225.5,153.1,225.2z"/>
	<path class="svgFrame" d="M145.7,232.3c0.3-0.2,0.5-0.5,0.7-0.7c0.5-0.6-0.2,0,0.3-0.6C146.3,231.5,146.3,231.6,145.7,232.3z"/>
	<path class="svgFrame" d="M140.1,239.9c0-0.2,0.2-0.2,0.5-0.7c-0.6,0.5,0.2-0.5-0.6,0.2c-0.1,0.2-0.3,0.3-0.4,0.5
		c0.3-0.2,0.6-0.3-0.2,0.4C139.1,240.8,139.9,239.9,140.1,239.9z"/>
	<path class="svgFrame" d="M125.9,250.2c0.6-0.5,0.1-0.2-0.2,0.2c-0.1,0,0.1-0.3,0.5-0.7c-0.7,0.6-1.7,1.9-0.9,1.2
		C125.4,250.6,125.6,250.3,125.9,250.2z"/>
	<path class="svgFrame" d="M109.2,232.8c-0.2-0.2-0.2-0.2-0.2-0.1c-0.5-0.4-0.7-0.9-1.3-1.3c0.3,0.5,0.9,1,1.4,1.5
		C109.2,232.9,108.9,232.6,109.2,232.8z"/>
	<path class="svgFrame" d="M116.6,249.5c0.5,0.6,0.9,1.1,1.5,1.7c0.5,0.6,1.1,1.1,1.6,1.7c-0.6-0.7-1.2-1.4-1.7-2.1
		c-0.6-0.6-1.2-1.3-1.7-1.9c-0.4-0.2-1-0.8-1.6-1.5c-0.3-0.4-0.7-0.7-1.1-1.1c-0.2-0.2-0.3-0.3-0.5-0.5c-0.1-0.1-0.2-0.2-0.3-0.3
		c0,0,0.2,0.2,0.4,0.5c0.4,0.4,0.8,0.9,1.3,1.4C115.5,248.4,116.4,249.4,116.6,249.5z"/>
	<path class="svgFrame" d="M113.6,245.9c-0.2-0.2-0.4-0.5-0.6-0.7l-0.6-0.6c-0.4-0.4-0.7-0.8-1-1.2c-0.4,0-2.1-2.4-3.2-3.4
		c-0.1,0,0.2,0.4,0,0.2c0.6,0.6,1.3,1.2,1.7,2c1,0.9,1.7,1.9,2.6,2.9c0.2,0.1-0.1-0.3-0.3-0.5c0.2,0.2,0.4,0.4,0.6,0.7
		c0.1,0.1,0.2,0.2,0.3,0.3C113.2,245.6,113.3,245.7,113.6,245.9z"/>
	<path class="svgFrame" d="M115.7,249.2c0-0.1-0.4-0.6-1-1.3c-0.5-0.6-1.2-1.4-1.9-2.2c-0.9-1-1.8-2-2.2-2.3c0.6,0.7,1.4,1.6,2.1,2.4
		c0.6,0.6,1.1,1.3,1.6,1.8C114.9,248.2,115.3,248.8,115.7,249.2z"/>
	<path class="svgFrame" d="M104.5,236.3c-0.5-0.6-1-1.2-1.6-1.9C102.9,234.5,104,235.8,104.5,236.3z"/>
	<path class="svgFrame" d="M97.4,228c-0.7-1-2.8-3.3-4.1-4.8c0.4,0.7,1.1,1.3,1.2,1.6c0.3,0,1.1,1.3,1.7,1.8c0.4,0.6-0.5-0.4,0.2,0.5
		C96.3,226.8,96.7,227.3,97.4,228z"/>
	<path class="svgFrame" d="M97.4,228.4c0.1-0.1-1.1-1.3-1.6-1.9c-0.4-0.3,0.5,0.6,0.5,0.8C97,227.9,96.9,227.7,97.4,228.4z"/>
	<path class="svgFrame" d="M93.1,223c-0.9-1.1-1.8-2.2-2.7-3.2C90.5,220.3,92.1,222,93.1,223z"/>
	<path class="svgFrame" d="M78.7,206.6c-0.4-0.5-0.8-0.9-1.5-1.6l0.4,0.5C78,205.8,78.2,206.2,78.7,206.6z"/>
	<path class="svgFrame" d="M70.6,198.1l0.9,0.9c-0.7-0.8-0.8-0.7-1.6-1.6C69.6,197.1,70.5,198,70.6,198.1z"/>
	<path class="svgFrame" d="M62.6,189.6c-0.1-0.3-0.9-0.9-1.5-1.6c-0.1,0-0.1-0.1-0.3-0.3C61.3,188.3,62,188.9,62.6,189.6z"/>
	<path class="svgFrame" d="M49.1,175.8c0.4,0.4,0.1,0.1-0.1-0.1c-0.2-0.3,0.2,0.1,0.2,0.1c-0.5-0.5-1-1-1.4-1.4c-0.7-0.6-1.4-1.3-2.2-2.1
		c-0.7-0.6,0.3,0.4-0.4-0.3c0.9,0.8,1.6,1.6,2.5,2.4c0.2,0.3,0.1,0.1,0.4,0.4C48.1,174.8,48.8,175.4,49.1,175.8z"/>
	<path class="svgFrame" d="M25.6,152.8c-0.7-0.8-1.7-1.5-2.3-2.2c-0.2-0.1,0.2,0.2,0.3,0.4C24.4,151.6,24.9,152.2,25.6,152.8z"/>
	<path class="svgFrame" d="M10,138.3c0.1,0-1.8-1.8-1.9-1.8C8.7,137.1,9.4,137.7,10,138.3z"/>
	<path class="svgFrame" d="M8.1,119.2c0.2-0.3,0.1-0.3,0.2-0.5c-0.4,0.4-0.7,0.8-1.1,1.2c0.3-0.2,0.6-0.6,0.8-0.9
		C8.3,118.8,7.2,120,8.1,119.2z"/>
	<path class="svgFrame" d="M61.6,62.2c0,0.3,1.1-1,1.5-1.3c0.1-0.2,0.1-0.1,0-0.1c-0.1,0.1-0.2,0.1-0.3,0.2C62.4,61.5,62,61.8,61.6,62.2z
		"/>
	<path class="svgFrame" d="M120.8,23.8c0.8-0.7,1.9-1.9,1.7-1.7c-0.1-0.3,0.1-0.4,0.2-0.5c0-0.1,0-0.1,0-0.2c0,0,0,0,0-0.1
		C122.4,22,122.9,21.5,120.8,23.8z"/>
	<path class="svgFrame" d="M155,30.4c0.8,0.7,0-0.3,0.8,0.4c-0.1-0.2-0.3-0.3-0.4-0.5l-0.3-0.3C155.7,30.9,154.3,29.5,155,30.4z"/>
	<path class="svgFrame" d="M161,37.1c0.6,0.9,0.2-0.3,0.9,0.6c0.4,0.2-0.5-0.7-0.8-0.9C161.3,37.2,161.3,37.4,161,37.1z"/>
</g>
</svg>
