<?xml version="1.0" encoding="utf-8"?>
<!-- Generator: Adobe Illustrator 25.4.1, SVG Export Plug-In . SVG Version: 6.00 Build 0)  -->
<svg version="1.1" baseProfile="tiny" id="Layer_1" xmlns="http://www.w3.org/2000/svg" xmlns:xlink="http://www.w3.org/1999/xlink"
	 x="0px" y="0px" viewBox="0 0 128 128" overflow="visible" xml:space="preserve">
<g>
	<path fill="#0E0F0F" d="M80.1,54c-0.6,2.5-1.2,4.9-1.3,7.5c-0.1,1.4-2.4,2.3-0.2,4.3c1.1,1,1.8,2.9,3,4c0.9,0.9,1,1.4,0,2.3
		c-1.2,1-2,2.3-2.7,3.7c-0.6,1.4-1.5,2.5-3.4,2.3c-1.5-0.1-3.1,2.4-2.8,3.9c0.1,0.6,0.6,0.6,0.9,0.5c1.2,0,1.6,0.6,1.7,1.8
		c0.2,1.2-0.1,2.2-0.2,3.4c-0.2,2.4-2.1,2.3-3.8,2.3c-2.9-0.1-3.5,0.5-3.7,3.2c-0.5,7-0.2,14-0.3,21c0,0.9-0.1,1.8-0.2,2.7
		c0,0.4-0.3,0.9,0.3,1c2.4,0.6,1.2,2.5,1.4,3.8c0.2,1.6,0.2,3.1-1.8,3.8c-0.4,0.1-1.1,0.3-1.1,0.8c0.2,1.8-1,1.8-2.1,1.6
		c-1.3-0.2-3.2,0.8-3.5-1.6c-0.1-0.5-0.6-0.8-1.1-0.8c-1.9-0.2-2.2-1.4-2-3c0.1-0.9,0-1.9,0-2.9c0-0.3,0-0.9,0.2-1
		c2.4-0.8,1.4-2.6,1.4-4.1c0-7.1,0-14.3,0-21.4c0-2.7-0.6-3.4-3.3-3.3c-3.7,0-5.4-2.8-3.9-6.3c0.4-1,1.3-0.9,2.1-1
		c0.8-0.1,1.1-0.3,0.8-1.2c-1.2-3.6-1.1-3.7-4.8-3.5c-0.6,0-1.1,0.1-1.3-0.5c-0.8-2.1-2.4-3.6-3.7-5.4c-0.6-0.8-0.5-1.3,0.1-2
		c1.5-1.8,3.2-3.5,3.9-5.9c0.1-0.4,0.6-1,0.2-1.3c-3-2.2-1.2-5.7-2.4-8.5c2,2,3.4,4.4,4.7,6.8c0.3,0.5,0.5,1.1,0.8,1.6
		c0.6,0.9,0.7,2.5,1.7,2.5c1.7,0,3.6,0.1,5.1-1.2c0.9-0.7,1.2-1.4,0.1-2.1c-2.2-1.4-1.6-2.8-0.3-4.4c1.2-1.4,2.3-2.9,3.4-4.4
		c0.5-0.7,1-0.8,1.6-0.1c1.7,1.9,3.4,3.7,5,5.5c1,1.1-0.2,1.6-0.7,2.1c-1.2,1-1.5,2-0.6,3.5c0.5,0.8,1,1.1,1.9,1.1
		c2.2,0,4.4,0.1,4.9-2.9c0.4-2.6,2.4-4.6,2.9-7.1c0.2-1,1.4-1.5,2.2-2.2c0.6-0.5,0.5,0.3,0.7,0.6C80,53.8,80,53.9,80.1,54z
		 M62.1,106.9c0.1-0.1,0.5,0.2,0.4-0.3C62.4,106.7,62.2,106.8,62.1,106.9c0,0.1,0,0.1-0.1,0.2C62.1,107,62.1,106.9,62.1,106.9z
		 M68.9,75.1c-0.2,0.1-0.4,0.2-0.6,0.3c0.1,0.1,0.1,0.1,0.2,0.2C68.7,75.4,68.8,75.3,68.9,75.1c0-0.1,0-0.1,0.1-0.1
		C69,75,68.9,75,68.9,75.1z M65.3,122.2c-0.5-0.2-1.4,0.3-1.3-0.7c0.1-1.6,1.7-1.6,2.9-2c-1.9-0.8-3.7-0.5-5.5-0.4
		c-0.5,0-1.3,0.4-1,1c0.5,1.5,1,3,2.7,3.7C64.6,124.4,64.7,122.9,65.3,122.2c0,0,0.1-0.1,0.1-0.1C65.4,122.1,65.4,122.2,65.3,122.2z
		 M66.7,73.2c1-0.8,0.7-2.4,2-2.2c1.2,0.2,1.3,0.3,1.3-0.9c0-1,0.1-1.9,0.9-2.6c0.5-0.4,0.7-0.9-0.3-1c-4.4-0.5-8.9-0.4-13.3-0.3
		c-0.7,0-1,0.4-1.1,1c-0.1,0.6-0.1,1.1,0.7,1.2c0.5,0.1,0.8,0.5,0.6,0.9c-0.6,2.5,1.6,3.4,2.7,4.8c0.3,0.4,0.7,0.9,1.3,0.3
		c0.5-0.5,0.1-1-0.2-1.4c-0.6-0.6-1.3-1.2-1.1-2.3c0.4-1.9,1.9-3,3.9-2.7c2.5,0.4,3.3,1.6,2.8,3.9C66.8,72.2,66.8,72.6,66.7,73.2z
		 M56.6,82.9c1.1,0.4,1.3,0.8,1.6,1.3c0.7,1.4,0.2,4.2,3.3,3.5c0.1,0,0.4,0.3,0.5,0.4c0.6,0.8,1,1.2,1.2-0.2c0-0.4,0.2-0.8,0.6-0.7
		c2.6,0.6,2.4-1.8,3.2-3.1c0.5-0.9,0.3-1.3-0.8-1.3C63.3,83,60.3,82.9,56.6,82.9z M63.6,70.8c0.5-0.2,1.4,0.4,1.4-0.5
		c0-0.7-0.5-1.7-1.5-1.6c-0.7,0.1-1.7,0.2-1.7,1.2C61.9,71.3,63,70.6,63.6,70.8z M65.5,105.1c-1-0.4-1.3-1.9-2.4-1.5
		c-0.7,0.3-0.5,1.3-0.1,1.9C64,106.7,64.6,105,65.5,105.1z M64.4,97.2c-0.5,0.2-1.3,0.3-1.1,1.1c0.1,0.4,0,1.4,0.7,1.2
		c0.5-0.2,1.6-0.2,1.6-1.1C65.6,97.7,65,97.4,64.4,97.2z M64.9,110.1c-0.2-0.6-0.5-1.1-1-1c-0.6,0.1-1.4,0.3-1.2,1.2
		c0.1,0.4,0,1.2,0.6,1C63.9,111.1,64.4,110.5,64.9,110.1z M62.7,95.5c0.5-0.5,1.6-0.5,1.5-1.5c-0.1-0.5-0.8-0.7-1.1-0.6
		C62,93.8,62.7,94.7,62.7,95.5z M64.9,114c0-0.3-0.1-0.6-0.4-0.6c-0.4,0-0.7,0.2-0.8,0.6c-0.1,0.4,0.2,0.6,0.5,0.6
		C64.6,114.7,64.8,114.4,64.9,114z M69.1,86.8c0.7-0.3,1.2-0.6,1.1-1.3c0-0.1-0.3-0.3-0.4-0.2C69.3,85.5,69,86,69.1,86.8z
		 M79.7,69.9c-0.3,0-0.5,0.2-0.4,0.4c0.1,0.3,0.2,0.8,0.4,0.9c0.3,0.2,0.5-0.2,0.5-0.5C80.3,70.3,80.1,70,79.7,69.9z M63.5,58.6
		c0.8-0.4,1.1-0.9,1.2-1.6C64,57.2,63.6,57.6,63.5,58.6z M47.4,70.7c0.2-0.2,0.7-0.2,0.7-0.6c0-0.2-0.4-0.4-0.4-0.4
		c-0.3,0.2-0.6,0.4-0.7,0.7C46.8,70.6,47.1,70.7,47.4,70.7z M56,86c-0.2,0.6-0.3,0.7-0.3,0.9c0,0.3,0.2,0.4,0.5,0.4
		c0.1,0,0.2-0.2,0.2-0.3C56.4,86.6,56.3,86.4,56,86z M61.5,112.7c0,0-0.1,0-0.1,0c0,0,0,0.1,0,0.1c0,0,0.1,0,0.1,0
		C61.5,112.8,61.5,112.7,61.5,112.7z"/>
	<path fill="#0E0F0F" d="M60.3,21.2c0.4-0.9,0.1-1.7,0.1-2.6c-0.3-3.9-0.3-3.9,3.6-4.1c0.2,0,0.3,0,0.5-0.1c1.7,0.3,2.2,1.4,2,3.1
		c-0.1,0.9-0.1,1.8-0.1,2.7c0,2.1,1.2,3.3,3.1,3.7c2.7,0.6,5.4,1.4,8,2.3c0.4,0.4,0.8,0.7,1.4,0.6c0.7,0.4,1.4,0.3,2.1,0.3
		c0.7,0.2,0.9,1.1,1.8,1.2c0.4,0.5,0.8,0.7,1.4,0.8c2.3,2.1,4.9,3.9,6.9,6.3c0.7,0.8,1.6,0.4,2.4-0.1c3.5-2.2,3.7-2.1,5.9,1.5
		c0.4,0.7,0.4,1-0.3,1.5c-3.6,2.8-3.6,2.8-1.3,6.7c0.6,1,0.6,2,0.4,3.1c-0.2,1.1-1.1,1.6-1.9,1.8c-0.7,0.2-0.6-1-0.9-1.5
		c-0.9-1.7-1.8-3.3-2.6-5c-0.4-0.8-1.2-0.5-1.8-0.3c-1.7,0.4-3.4,0.9-5.1,1.4c-0.7,0.2-1.3,0.1-1.9-0.1c-0.2-0.5-0.1-0.8,0.3-1.2
		c0.9-0.8,1.7-1.9,2.6-2.6c1.3-1,1.1-2.4,0.3-3.2c-1.4-1.5-2.8-3-4.6-4.1c-1.5-1.5-3.5-2.2-5.4-3.1c-0.5-0.5-1.1-0.7-1.8-0.7
		c-1-0.5-2-0.9-3.1-0.4c-1,0.5-1.6,0.4-2.4-0.5c-1.5-1.7-3.7-0.9-4.5,1.1c-0.6,1.8-0.8,3.8-2,5.6c-0.4-0.7-0.8-1.3-1.1-1.8
		c0-0.7-0.3-1.2-0.7-1.7c-0.2-0.9-0.6-1.8-0.7-2.7c-0.2-1.2-0.9-1.3-1.8-1.1c-3.1,0.8-6.2,1.7-9,3.4c-3.5,1.2-6.7,2.7-9.1,5.6
		c-1.1,1.3-1.5,2.8,0,4.2c1,0.9,1.8,1.9,2.3,3.2c-1.2,0.4-2.3,0.1-3.4-0.3c-3-1.2-3.8-0.9-5.3,1.8C31.9,51,31.1,56.9,31,62.9
		c0,1.2,1,2,1.8,2.2c2.5,0.6,4.4,2.4,7,2.6c-0.3,1.2-1.3,1.2-2.1,1.3c-1.8,0.2-3.5,0.5-5.3,0.7c-0.9,0.1-1.1,0.6-0.9,1.3
		c0.9,3.7,2,7.3,4.1,10.5c0.5,0.8,1.1,1.5,0.8,2.7c-3.1-2.6-5-6-6.4-9.6c-0.2-0.5-0.4-1.1-0.6-1.7c-0.7-2-1.7-3.4-4.3-3.1
		c-2.9,0.3-3.5-0.6-3.6-3c0-1,0.3-1.8,1.2-2.2c0.9-0.4,0.7,1,1.5,1.2c0.7-0.8,1.2-1.9,2.5-2.2c0.9-0.3,0.6-1.3,0.8-2
		c0.4-1.5-0.7-3.3,1.1-4.4c0.1,0,0-0.3,0-0.5c-0.7-4.8,1.6-8.9,3.3-13c0.8-1.9,0.5-2.8-1.3-3.6c-0.8-0.3-2.4-0.6-2-1.8
		c0.6-1.8,0.9-4,2.7-5.2c0.3-0.2,0.8,0,1.2,0.2c0.4,0.3,0.7,0.6,1.1,0.9c2.5,2,2.4,1.9,4.8,0c3.2-2.6,6.7-4.7,10.2-6.9
		c0.8-0.5,1.9,0,2.4-1c2.1-0.6,4.2-1.2,6.2-2C58.5,23.7,60.2,23.2,60.3,21.2z"/>
	<path fill="#0E0F0F" d="M106.4,66.8c0-0.1,0-0.1,0-0.2c0.1-1.7-0.4-2.4-2.4-2.1c-2.8,0.5-3.2,0-3.2-2.8c0-0.6,0-1.2,0-1.8
		c-0.2-3.1-0.2-6.2-1.2-9.1c-0.4-1.2-1-1.1-1.7-0.3c-0.9,1.1-1.4,2.3-0.4,3.5c0.7,0.9,0.7,1.8,0.5,2.9c-0.2,1.4-0.4,2.8-0.2,4.2
		c0.3,3.5,0,3.8-3.4,4.8c-1.2,0.4-2.4,0.8-3.6,1.1c-0.9,0.3-1.7,0.7-2.4,1.4c1.8,0.5,3.6,1,5.4,0.9c1.9,0,2.4,1,2.4,2.7
		c0,1.3-0.6,2.6-0.3,4c1.6,1.4,2.1,0.4,2.6-0.7c0.3-0.8,0.7-1.6,0.9-2.5c0.5-1.7,1.5-2.6,3.4-2.4C106.7,70.9,106.7,70.8,106.4,66.8z
		"/>
	<path fill="#B62E27" d="M77.2,30.1c1.9,0.9,3.9,1.6,5.4,3.1c-0.3,1.1-0.8,2.2-2.1,2.3c-0.6,0.1-0.8,0.5-1,0.9c-0.7,1.7-1.3,3.3-2,5
		c1.2-0.4,1.6-1.5,2.2-2.5c0.6-1,1.5-1.6,2.8-1.4c-0.3,1.3-1.6,2.2-0.6,4.2c0.5-0.7,0.9-1.2,1.2-1.8c0.4-0.8,0.5-1.7,1.6-1.9l0,0
		c0.1,2.3-1.3,4.2-1.5,6.4c0,0,0,0,0,0c-0.1,0.1-0.2,0.3-0.3,0.4c0,0,0,0,0,0c-0.1,0.1-0.3,0.2-0.4,0.3c-0.7,0.2-1.1,0.7-1.1,1.4
		c-0.4,1.6-0.9,3.1-1.3,4.7c-0.1,0.1-0.3,0.2-0.4,0.3c-0.2,0.1-0.4,0.3-0.6,0.4c-0.2,0.2-0.3,0.3-0.5,0.5c-0.3,0.2-0.8,0.1-1,0.6
		c0,0-0.1,0-0.1,0c-0.1,0.1-0.2,0.2-0.3,0.3c0,0-0.1,0.1-0.1,0.1c-0.1,0.1-0.1,0.2-0.2,0.2c-0.1,0.1-0.1,0.3-0.2,0.4
		c-0.3,0.1-0.3,0.4-0.3,0.7c0,0.1-0.1,0.2-0.1,0.4c-0.1,0.2-0.2,0.5-0.3,0.7c0,0,0,0.1,0,0.1c-0.3,0.3-0.4,0.6-0.4,0.9
		c-0.1,0.1-0.1,0.2-0.2,0.3c-0.1,0.3-0.3,0.5-0.4,0.8c-0.5,1-1.2,2.1-1.4,3.2c-0.2,1.2-0.9,1.6-2,1.8c-0.5-0.1-1-0.1-1.5-0.2
		c0.9-1.1,1.7-2.3,2.6-3.4c0.8-0.9,0.8-1.7,0-2.6c-1-1.1-1.9-2.2-0.9-3.9c0.1-0.2,2-2.5-0.9-2.4c-0.7,0-0.1-0.8,0-1.2
		c0.7-1.7,1.4-3.3,2.3-5.3c-2.1,1.5-3.4,3.4-5.1,5c-0.3-1,0-1.6,0.6-2.2c0.8-0.9,1.6-1.7,2.3-2.7c1.3-1.8,3-3.4,3.4-5.7
		c0,0,0.1-0.1,0.1-0.1c0,0-0.1,0.1-0.1,0.1c-1.2,1.1-2.5,2.1-3.8,3.2c-1.1,0.9-2.5,1.2-3.4,0.4c-0.9-0.7-0.2-2,0.5-3
		c0.6-0.7,1.2-1.4,1.3-2.4c0-0.1,0.1-0.1,0.1-0.2c-0.1,0-0.1,0.1-0.2,0.1c-1.6-0.7-2.4,0.3-3.2,1.3c-0.8,0.9-1.2,2-2.4,2.8
		c0-0.9,0.6-1.7,0.1-2.6c-2.6,2.7-5.4,5.2-7.6,8.2c-0.2,0.3-0.4,0.6-0.1,1c0.9,0.9,0.2,1.5-0.3,2.2c-0.5,0.8-1,1.5-1.3,2.3
		c-0.1,0.4-0.4,1.4,0.7,0.9c0.4-0.2,0.7-0.5,1.1-0.1c0.4,0.5,0,0.9-0.3,1.2c-0.5,0.7-1.1,1.3-1.5,2c-0.6,0.9-1,0.4-1.4-0.2
		c-0.1-0.1-0.2-0.3-0.3-0.4c-0.1-0.1-0.2-0.2-0.2-0.2c0,0-0.1-0.1-0.1-0.1c0-0.2-0.1-0.3-0.2,0c-0.7-0.1-0.8,1.7-1.8,0.7
		c-0.7-0.8-1.5-1.6-0.5-2.8c0.6-0.7,0.1-1.2-0.3-1.7c-1-1.2-2-2.6-3.2-3.6c-1.6-1.5-1.5-2.9-0.4-4.5c0.7-1.1,1.5-2.3,2.3-3.4
		c0.7,0.8,0.5,2.3,1.5,2.3c0.9,0,1.3-1.2,1.7-2.1c0.5-0.9,1.5-1.8,0.1-2.9c-0.4-0.3,0.3-0.9,0.6-1.3c0.4-0.7,0.9-1.5,1.4-2.2
		c0.5-0.2,0.7-0.7,0.8-1.2c-0.7-0.2-1,0.2-1.4,0.6c-0.4,0.5-0.8,0.9-1.2,1.4c-0.1,0.1-0.2,0.3-0.3,0.4c0,0-0.1,0.1-0.1,0.1
		c-0.1,0.1-0.2,0.2-0.3,0.3c-0.1,0.1-0.3,0.3-0.4,0.4c-0.1,0.1-0.2,0.2-0.3,0.3c-1.1-1.4,0.3-2.9-0.1-4.3c2.8-1.7,5.9-2.7,9-3.4
		c0.9-0.2,1.6,0,1.8,1.1c0.1,0.9,0.5,1.8,0.7,2.7c-3.6,2-5.4,5.1-5.7,9.1c1.3-3.2,4.9-4.4,6.4-7.4c0.3,0.5,0.7,1.1,1.1,1.8
		c1.2-1.8,1.3-3.8,2-5.6c0.7-2,3-2.7,4.5-1.1c0.8,0.9,1.4,1,2.4,0.5c1.1-0.5,2.1-0.1,3.1,0.4c-0.1,0.7-0.3,1.5,0,2.2
		C76.4,31.3,76.6,30.4,77.2,30.1z M67.1,33.7c1.7-0.5,2.6-1.7,2.8-3.4c0-0.2-0.1-0.6-0.3-0.7c-0.3-0.2-0.6,0.1-0.7,0.3
		C68.3,31.1,67.2,32.2,67.1,33.7c0,0,0,0.1-0.1,0.1C67.1,33.8,67.1,33.7,67.1,33.7z M72.6,35.7c0.4-0.7,0.7-1.4,1.1-2.1
		C72.7,33.9,72.5,34.7,72.6,35.7z"/>
	<path fill="#B62E27" d="M77.5,26.3c-2.6-1-5.2-1.8-8-2.3c-1.9-0.4-3.1-1.6-3.1-3.7c0-0.9,0-1.8,0.1-2.7c0.3-1.7-0.3-2.7-2-3.1
		c0.4-3.6,3-6.8,5.8-7.6c0.3,0.7-0.7,1.5,0.1,2.2c0.6-0.2,1-0.6,1.2-1.1c0-0.1,0.1-0.2,0.1-0.3c0-0.1,0.1-0.2,0.1-0.3
		C74.2,5.4,75.2,2.6,77,0c0.2,1,0.3,1.7-0.1,2.4C76,3.1,76,4.2,75.7,5.2c-0.3,1.1,0,1.9,1.4,1.6c-0.1,0.3-0.2,0.6-0.3,0.9
		c0,0,0,0.1,0,0.1c-0.8,2.9-3.2,5-4.1,7.8c-0.3,0.8-0.8,1.6-0.5,2.6c1.9-0.4,3.7-1.2,4.9-3c0.4,2,0.1,3.1-1.4,5.3
		c-0.2,0.4-0.9,0.7-0.5,1.2c0.5,0.6,0.8-0.1,1.1-0.3c0.4-0.3,0.9-0.4,1.3-0.1c0.5,0.4,0,0.7-0.1,1.1c-0.1,0.2-0.2,0.6-0.1,0.7
		C80.1,24.1,77.7,25.2,77.5,26.3z M69.5,19.4c-0.7,0.5-0.9,0.9-0.6,1.7C69.4,20.7,69.6,20.3,69.5,19.4z"/>
	<path fill="#E77B29" d="M52.9,55.5c0.4,0.5,0.8,1.1,1.4,0.2c0.5-0.7,1-1.3,1.5-2c0.3-0.4,0.7-0.7,0.3-1.2c-0.4-0.4-0.7-0.1-1.1,0.1
		c-1.2,0.5-0.9-0.5-0.7-0.9c0.3-0.8,0.9-1.5,1.3-2.3c0.4-0.7,1.1-1.3,0.3-2.2c-0.3-0.3-0.1-0.6,0.1-1c2.2-3.1,4.9-5.5,7.6-8.2
		c0.5,1-0.1,1.7-0.1,2.6c1.2-0.8,1.7-1.9,2.4-2.8c0.8-1,1.7-2.1,3.2-1.3l0,0c-0.1,1-0.8,1.7-1.3,2.4c-0.7,1-1.4,2.2-0.5,3
		c0.9,0.7,2.4,0.4,3.4-0.4c1.3-1.1,2.5-2.1,3.8-3.2l0,0c-0.4,2.4-2.1,3.9-3.4,5.7c-0.7,1-1.5,1.8-2.3,2.7c-0.5,0.6-0.8,1.1-0.6,2.2
		c1.7-1.6,3-3.5,5.1-5c-0.9,2-1.6,3.6-2.3,5.3c-0.1,0.3-0.7,1.2,0,1.2c2.9-0.1,1,2.3,0.9,2.4c-1.1,1.7-0.1,2.8,0.9,3.9
		c0.9,1,0.8,1.7,0,2.6c-0.9,1.1-1.7,2.2-2.6,3.4c-0.2,0.1-0.4,0.1-0.7,0.2c-0.2-0.1-0.3-0.2-0.5-0.3c0-0.1,0-0.2-0.1-0.3
		c0.6-0.7,1.1-1.4,1.7-2.1c1.3-1,0.1-1.6-0.4-2.3c0,0,0,0,0,0c-0.1-0.4-0.3-0.8-0.7-1c0,0,0,0,0,0c-0.2-0.5-0.5-1-1-1.1
		c0-0.2,0-0.5-0.1-0.7c0.3-0.3,0.7-0.6,0.7-1.1c0,0,0-0.1,0-0.1c0.1-0.1,0.2-0.2,0.2-0.3c0.3-0.2,0.5-0.4,0.4-0.7
		c0,0,0.1-0.1,0.1-0.1c0,0,0-0.1-0.1-0.1c-1.3,0-1.1-1.1-1.3-2c-0.6,0.3-1,0.6-1.2,1.1c-0.1,0.1-0.2,0.1-0.3,0.2
		c-1.1-1.3-1.1-2.9-0.8-4.5c0.4-0.3,0.7-0.6,0.8-1c1-0.8,1.6-1.8,2.2-2.9c0,0,0,0,0,0l0,0.1c-2.1-0.1-2.8,1.9-4.3,2.8c0,0,0,0,0,0
		c-0.1,0-0.2,0-0.4,0.1c-0.1-0.1-0.1-0.1-0.2-0.1c0.1-0.1,0-0.2-0.1-0.3c0-0.5,0-1,0-1.5c0.1-0.2,0.3-0.6,0-0.7
		c-0.5-0.1-0.8,0.3-1,0.7c-0.6,0.2-0.9,0.6-1.2,1.1c-0.1,0.1-0.3,0.2-0.4,0.3c-0.1,0.1-0.2,0.1-0.3,0.2c-1.4-1.5,0.5-2.6,0.5-4.1
		c-1.2,0.9-2,1.8-2.6,2.8c0,0,0,0.1,0,0.1c-0.1,0.1-0.2,0.2-0.3,0.3c-0.4,0.2-0.7,0.6-0.8,1.1c-0.5,0.5,0,0.7,0.3,0.9
		c0.2,0.5-0.1,0.9-0.3,1.3c-0.6,0.6-1.3,1.1-0.9,2.1c0.5,1,1.5,0.6,2.4,0.7c-0.1,0.2-0.1,0.4-0.2,0.6c-0.2,0.3-0.4,0.6-0.6,0.9
		c-0.1,0.2-0.2,0.3-0.4,0.5c-0.4,0.2-0.6,0.5-0.7,1c0,0,0,0,0,0c-0.1,0.1-0.2,0.2-0.3,0.3c-0.2,0.2-0.3,0.5-0.5,0.7
		c-0.1,0.1-0.2,0.2-0.3,0.4c-0.2,0.2-0.3,0.5-0.5,0.7c-0.1,0.1-0.2,0.2-0.3,0.4c-0.1,0.2-0.3,0.4-0.4,0.6c-0.1,0.2-0.3,0.3-0.4,0.5
		c-0.3,0.5-0.7,0.9-1,1.4c-0.1,0.1-0.2,0.2-0.4,0.4c-0.5-0.4-0.9-0.8-1.4-1.2c0,0,0.1,0,0.1,0l0,0c-0.4-0.5-0.5-1.1-0.5-1.7
		c0.1-0.2,0.3-0.5,0.4-0.7C52.6,55.9,52.8,55.7,52.9,55.5z"/>
	<path fill="#B62E27" d="M60.3,21.2c-0.1,2-1.8,2.5-3.2,3c-2,0.8-4.2,1.3-6.2,2c-0.1-1.5,0.5-2.6,1.7-3.5c1.8-1.4,3.6-2.8,5.7-4.4
		c-0.4,2.4-2.1,3.7-2.6,5.6C57.8,23.9,58.9,22.3,60.3,21.2z"/>
	<path fill="#B62E27" d="M81,27.2c-0.7-0.1-1.5,0.1-2.1-0.3c1.1-1.6,2.2-3.3,3.2-4.9C82.4,23.9,81.3,25.4,81,27.2z"/>
	<path fill="#E77B29" d="M77.1,6.8c-1.4,0.2-1.8-0.6-1.4-1.6C76,4.2,76,3.1,76.9,2.4c-0.3,0.7-0.6,1.5-0.8,2.2
		c-0.1,0.7-0.6,1.8,1,1.1c0.1-0.1,0.4,0,0.4,0C77.6,6.2,77.5,6.5,77.1,6.8z"/>
	<path fill="#B62E27" d="M84.2,29.1c-0.6-0.1-1.1-0.3-1.4-0.8c0.5-0.8,1-1.6,1.6-2.5C84.9,27.1,84.6,28.1,84.2,29.1z"/>
	<path fill="#B62E27" d="M70.7,7c-0.1,0-0.3-0.1-0.4-0.1c0.1-0.1,0.1-0.2,0.2-0.3C70.6,6.7,70.6,6.9,70.7,7z"/>
	<polygon fill="#E77B29" points="76.8,7.8 76.8,7.7 76.9,7.8 	"/>
	<path fill="#404040" d="M66.7,73.2c0.1-0.7,0.1-1,0.2-1.4c0.5-2.3-0.3-3.5-2.8-3.9c-2-0.3-3.5,0.8-3.9,2.7
		c-0.2,1.1,0.5,1.6,1.1,2.3c0.4,0.4,0.7,0.9,0.2,1.4c-0.6,0.6-1,0.1-1.3-0.3c-1.2-1.4-3.4-2.3-2.7-4.8c0.1-0.4-0.1-0.8-0.6-0.9
		c-0.7-0.1-0.8-0.6-0.7-1.2c0.1-0.6,0.5-1,1.1-1c4.5,0,8.9-0.1,13.3,0.3c1,0.1,0.8,0.6,0.3,1c-0.8,0.7-0.9,1.6-0.9,2.6
		c0,1.3-0.1,1.1-1.3,0.9C67.4,70.8,67.7,72.4,66.7,73.2z"/>
	<path fill="#404040" d="M56.6,82.9c3.6,0,6.6,0,9.7,0c1.1,0,1.3,0.4,0.8,1.3c-0.8,1.3-0.6,3.7-3.2,3.1c-0.4-0.1-0.6,0.3-0.6,0.7
		c-0.1,1.4-0.6,1-1.2,0.2c-0.1-0.2-0.4-0.5-0.5-0.4c-3.1,0.7-2.5-2.1-3.3-3.5C58,83.7,57.7,83.4,56.6,82.9z"/>
	<path fill="#404040" d="M65.3,122.2c-0.7,0.7-0.7,2.2-2.3,1.5c-1.6-0.7-2.1-2.3-2.7-3.7c-0.2-0.6,0.5-0.9,1-1
		c1.8-0.1,3.6-0.4,5.5,0.4c-1.3,0.5-2.8,0.4-2.9,2C63.9,122.5,64.8,122.1,65.3,122.2L65.3,122.2z"/>
	<path fill="#404040" d="M63.6,70.8c-0.6-0.2-1.7,0.4-1.8-0.8c0-1,1-1.1,1.7-1.2c1-0.1,1.5,0.9,1.5,1.6C65,71.2,64.1,70.6,63.6,70.8
		z"/>
	<path fill="#404040" d="M65.5,105.1c-0.9-0.1-1.5,1.5-2.4,0.4c-0.5-0.6-0.6-1.6,0.1-1.9C64.2,103.3,64.6,104.7,65.5,105.1z"/>
	<path fill="#404040" d="M64.4,97.2c0.6,0.2,1.2,0.5,1.2,1.1c0,0.9-1,0.9-1.6,1.1c-0.7,0.2-0.6-0.7-0.7-1.2
		C63.1,97.5,63.8,97.4,64.4,97.2z"/>
	<path fill="#404040" d="M64.9,110.1c-0.5,0.4-1,1-1.6,1.2c-0.6,0.2-0.6-0.6-0.6-1c-0.2-0.9,0.6-1.1,1.2-1.2
		C64.3,109.1,64.6,109.5,64.9,110.1z"/>
	<path fill="#404040" d="M62.7,95.5c0-0.8-0.7-1.7,0.3-2c0.3-0.1,1.1,0.1,1.1,0.6C64.2,95,63.1,95,62.7,95.5z"/>
	<path fill="#404040" d="M64.9,114c-0.1,0.4-0.3,0.7-0.7,0.6c-0.3-0.1-0.5-0.3-0.5-0.6c0.1-0.4,0.4-0.6,0.8-0.6
		C64.8,113.4,64.9,113.6,64.9,114z"/>
	<path fill="#404040" d="M69.1,86.8c-0.1-0.8,0.2-1.3,0.7-1.6c0.1,0,0.4,0.1,0.4,0.2C70.3,86.2,69.9,86.5,69.1,86.8z"/>
	<path fill="#404040" d="M79.7,69.9c0.4,0.1,0.6,0.4,0.5,0.8c0,0.3-0.2,0.7-0.5,0.5c-0.2-0.1-0.4-0.6-0.4-0.9
		C79.3,70.1,79.4,69.9,79.7,69.9z"/>
	<path fill="#404040" d="M63.5,58.6c0.1-1,0.4-1.4,1.2-1.6C64.6,57.7,64.3,58.2,63.5,58.6z"/>
	<path fill="#404040" d="M47.4,70.7c-0.3,0-0.6-0.1-0.5-0.3c0.1-0.3,0.4-0.5,0.7-0.7c0,0,0.4,0.3,0.4,0.4
		C48.1,70.5,47.6,70.5,47.4,70.7z"/>
	<path fill="#404040" d="M56,86c0.2,0.5,0.4,0.7,0.4,0.9c0,0.1-0.1,0.3-0.2,0.3c-0.3,0-0.5-0.1-0.5-0.4C55.8,86.7,55.8,86.5,56,86z"
		/>
	<path fill="#404040" d="M68.9,75.1c-0.1,0.2-0.2,0.4-0.3,0.5c-0.1-0.1-0.1-0.1-0.2-0.2C68.5,75.3,68.7,75.2,68.9,75.1
		C68.9,75.1,68.9,75.1,68.9,75.1z"/>
	<path fill="#404040" d="M62.1,106.9c0.1-0.1,0.2-0.2,0.4-0.3C62.6,107,62.2,106.8,62.1,106.9L62.1,106.9z"/>
	<path fill="#404040" d="M61.5,112.7c0,0,0,0.1,0,0.1c0,0-0.1,0-0.1,0c0,0,0-0.1,0-0.1C61.4,112.7,61.4,112.7,61.5,112.7z"/>
	<path fill="#404040" d="M62.1,106.9c0,0.1,0,0.1-0.1,0.2C62.1,107,62.1,106.9,62.1,106.9C62.1,106.9,62.1,106.9,62.1,106.9z"/>
	<path fill="#404040" d="M68.9,75.1c0,0,0-0.1,0.1-0.1C68.9,75,68.9,75,68.9,75.1C68.9,75.1,68.9,75.1,68.9,75.1z"/>
	<path fill="#404040" d="M65.3,122.2c0,0,0.1-0.1,0.1-0.1C65.4,122.1,65.4,122.2,65.3,122.2C65.3,122.2,65.3,122.2,65.3,122.2z"/>
	<path fill="#E77B29" d="M62.5,33.3c-1.5,3-5.1,4.2-6.4,7.4c0.3-4.1,2.2-7.2,5.7-9.1C62.2,32,62.5,32.6,62.5,33.3z"/>
	<path fill="#E77B29" d="M67.1,33.7c0-1.5,1.1-2.6,1.8-3.8c0.1-0.3,0.4-0.6,0.7-0.3c0.2,0.1,0.3,0.5,0.3,0.7
		C69.7,32,68.9,33.2,67.1,33.7L67.1,33.7z"/>
	<path fill="#E77B29" d="M72.6,35.7c-0.1-1,0-1.8,1.1-2.1C73.4,34.3,73,35,72.6,35.7z"/>
	<path fill="#E77B29" d="M67.1,33.7c0,0,0,0.1-0.1,0.1C67.1,33.8,67.1,33.7,67.1,33.7C67.1,33.7,67.1,33.7,67.1,33.7z"/>
	<path fill="#E77B29" d="M69.3,36.5c0.1,0,0.1-0.1,0.2-0.1C69.4,36.4,69.3,36.5,69.3,36.5C69.3,36.5,69.3,36.5,69.3,36.5z"/>
	<path fill="#E77B29" d="M74.6,38.3c0,0,0.1-0.1,0.1-0.1C74.7,38.2,74.6,38.3,74.6,38.3C74.6,38.3,74.6,38.3,74.6,38.3z"/>
	<path fill="#E77B29" d="M69.5,19.4c0.1,0.9-0.1,1.3-0.6,1.7C68.5,20.3,68.8,19.9,69.5,19.4z"/>
	<path fill="#B62E27" d="M84.6,38c0.1-0.1,0.1-0.3,0.2-0.4c0,0.1,0.1,0.1,0.1,0.2C84.8,37.9,84.9,38.1,84.6,38
		C84.6,37.9,84.6,38,84.6,38z"/>
</g>
</svg>
