<?xml version="1.0" encoding="utf-8"?>
<svg version="1.1" xmlns="http://www.w3.org/2000/svg" xmlns:xlink="http://www.w3.org/1999/xlink" x="0px" y="0px"
	 viewBox="0 0 128 128" style="enable-background:new 0 0 128 128;" xml:space="preserve">
<style type="text/css">
	.st0{fill:#404040;}
	.st1{fill:#0E0F0F;}
	.st2{fill:#E77B29;}
</style>
<g>
	<path d="M66.3,113.4c-2.3,0-4.5,0-6.7,0c-0.5,2.2-0.5,2.2-3,2.4c0,1.3,0,2.6,0,4c2.4-0.4,4.1,0.3,4.7,2.7c0.1,0.3,0.3,0.5,0.4,0.7
		c0.4,0,0.8,0,1.2,0c-0.3-1,0.6-1.3,1-1.9c0.4-0.5,0.6-1.3,1.1-1.5c0.6-0.3,1.2,0,1.8,0.5c0.3,0.2,0.9,0,1.3,0c0-1.7,0-3.1,0-4.5
		c-0.6-0.1-1.1-0.2-1.8-0.3C66.3,114.8,66.3,114.1,66.3,113.4z M61.9,118.9c-0.7-0.5-1.5-1-2.3-1.6c1.2-1.4,2.7-1.5,4.3-0.4
		C63.2,117.6,62.6,118.2,61.9,118.9z"/>
	<path d="M72.2,84.8L72.2,84.8l1,0c1.9-2.1,3.2-3.4,5.1-5.4c-0.2-0.2-0.3-0.3-0.4-0.3c-0.1,0-0.2-0.1-0.3-0.1c-1.5,0-3.1,0-4.6,0v0
		c-7.9,0-15.8,0-23.6,0c-0.1,0-0.2,0-0.3,0.1c-0.1,0-0.1,0.1-0.4,0.3c1.9,2,3.8,4,5.7,6.1h5.6c-1.3,1.1-2.5,2.1-3.6,3
		c0,3.7,0,7.2,0,10.7c0,2.3-0.3,4.6,0.6,6.5c-1.2,1.1-2.2,2-3.2,3c-1.1,1.1-2.1,2.1-3.4,3.4H73l3.3,0.1l-7.3-6.5
		c2.1-1.5,1.6-3.3,1.2-5c-0.2-0.8-0.3-1.2,0-2c0.4-0.8,0.5-2,0.1-2.8c-0.7-1.4-0.5-2.8-0.5-4.2c-0.1-2.2,0-4.4,0-6.9
		C70.7,84.8,71.4,84.8,72.2,84.8z M64.7,93.5c-0.2,1-0.3,2-0.6,2.9c-0.3,1,1,1.8,0,2.7c0.7,1-0.1,2,0,3c0.1,1.1,0,2.3,0,3.6h-1.7
		c0-1.8,0.1-3.6,0-5.4c-0.1-1,0.3-2-0.4-3c-0.3-0.4,0.4-1.5,0.4-2.3c0.1-2.4,0-4.8,0-7.2v-2.3h1.7c0,1-0.1,2,0,3.1
		c0.1,1.5-0.5,3,0.6,4.4C64.7,93.1,64.7,93.3,64.7,93.5z"/>
	<path d="M78.9,64.3c0.1-1,0.2-1.8,0.4-2.7c-1.2-0.1-2.1-0.1-3-0.2c0.3-0.6,0.5-1.3,0.8-1.6c1.8-1.6,2.1-3.6,2.1-5.9
		c0-0.7-0.1-1.7,0.2-2.2c0.7-1.1,0.1-2,0.2-3c-0.7,0.7-1.3,1.4-1.7,2.1c-1.1,2.2-2.2,4.5-3.3,6.8c-0.6,1.2-1,2.5-1.6,3.9
		c-1,0-2.1-0.1-3.3,0c-1.3,0.2-2-0.6-2.6-1.4c-0.4-0.5-0.5-1.1-0.8-1.8c1-1.1,2.1-2.1,3.1-3.2c-1.6-2.2-4-3.6-5.2-5.9
		c-0.5-0.9-1.7-0.8-2.4,0.1c-1.6,2.3-3.2,4.7-5,7.3c0.7,0.6,1.4,1.2,2.1,1.9c0.6,0.6,0.6,1.3,0,2c-0.6,0.6-1.2,1.2-2.2,1
		c-1-0.1-1.9,0-3.1,0c-3-3.7-4.8-8.2-7.5-12.7c-0.1,0.8-0.2,1.2-0.1,1.6c0.1,0.8,0.5,1.6,0.5,2.4c0.1,1-0.3,2.1,0.1,2.9
		c0.7,1.4,0,3.8,2.5,4.2c0.2,0,0.2,1,0.4,1.7c-1.5,0-2.8,0-4.1,0c0,1-0.1,1.8,0.4,2.6c0.3,0.6-0.3,1.7-0.5,2.6
		c0.4-0.3,0.9-0.6,1.2-0.8c0.5,0.5,1.1,1,1.7,1.5c0,0,0,0.3-0.2,0.4c-0.7,0.3-1.3,0.6-2,0.7c-0.4,0.1-1.2,0.4-1.3-0.5
		c-0.4,0.3-0.8,0.6-1.3,0.9c1.3,0.7,2.2,1.5,3.3,1.9c1.5,0.6,0.8,2.3,1.8,3c2.4,0,4.9,0.1,7.3,0c2.4-0.1,4.8,0.6,7.1-0.4
		c2.3,0.8,4.6,0.3,7,0.4c2.4,0.1,4.8,0,7.5,0c0-0.4-0.1-0.8,0-1.1c0.2-0.8,0.3-2,0.8-2.2c1.5-0.6,2.1-1.9,3.4-2.8
		C80.7,66.4,79.7,65.3,78.9,64.3z"/>
	<path class="st0" d="M61,66.2c0.4-0.4,0.8-1,1.3-1.1c0.6-0.2,1.4-0.3,1.8,0.4c0.4,0.5,0.7,1.1,1.2,2.1C63.7,67.1,62.2,68.1,61,66.2
		z"/>
	<path class="st0" d="M71,64.6c0.1,0.4,0.2,0.7,0.3,1c0.1,0.2,0.2,0.5,0.4,0.7c-1,0.8-2,1.5-3,2.2c-0.2,0.2-0.4,0.4-0.6,0.6
		c-0.7,0.2-1.4,0.4-2.2,0.6c0.2-1,0.5-2,0.5-2.9c0-1.6-1.5-2.4-3.2-2.4c-2.4-0.1-3.1,1.3-3.4,3.1c0.7,0.7,1.5,1.4,2.3,2.2
		c-1.2,1.1-2,1.9-2.9,2.9c-0.7,0-1.6,0-2.5,0c-0.3-0.6-0.6-1.3-1.1-2.3c0.7,0.2,1.1,0.2,1.5,0.4c0.5,0.2,0.9,0.6,1.4,0.8
		c0.2,0.1,0.5,0,0.8-0.1c-0.5-0.9-0.9-1.8-1.4-2.8c-0.9,0-2,0-3.4,0c0.6-0.7,0.9-1.1,1.4-1.7c-0.2-0.3-0.5-0.7-0.7-1.1
		c-0.6-1.9-0.6-1.9-2.4-1.9c-1.1,0-2.3,0-3.4-0.1c2.3-0.6,15.7-0.7,25.4-0.4C73.5,64.4,73.5,64.4,71,64.6z"/>
	<path class="st0" d="M76.8,66.9c0.3-0.6,0.6-1.2,0.9-1.9c0.9,0.9,1.6,1.6,2.2,2.2C79.2,67.4,78,68.2,76.8,66.9z"/>
	<path d="M53.7,77.8c0.6,0,1.3,0.3,1.9-0.4c0.1-0.1,0.6-0.2,0.7-0.1c0.8,0.9,1.8,0.5,2.7,0.5c2-0.1,4.2,0.6,6.1-0.5
		c0.1-0.1,0.4,0,0.5,0.1c2.1,1,4.3,0.3,6.5,0.4c0.4,0,0.9-0.7,1.2-1.2c0.3-0.4,0.3-1,0.5-1.5H51.4c0.2,0.5,0.5,0.8,0.5,1.2
		C51.8,77.5,52.6,77.9,53.7,77.8z"/>
	<path class="st1" d="M60.3,18.2c0.4-0.9,0.1-1.7,0.1-2.6c-0.3-3.9-0.3-3.9,3.6-4.1c0.2,0,0.3,0,0.5-0.1c1.7,0.3,2.2,1.4,2,3.1
		c-0.1,0.9-0.1,1.8-0.1,2.7c0,2.1,1.2,3.3,3.1,3.7c2.7,0.6,5.4,1.4,8,2.3c0.4,0.4,0.8,0.7,1.4,0.6c0.7,0.4,1.4,0.3,2.1,0.3
		c0.7,0.2,0.9,1.1,1.8,1.2c0.4,0.5,0.8,0.7,1.4,0.8c2.3,2.1,4.9,3.9,6.9,6.3c0.7,0.8,1.6,0.4,2.4-0.1c3.5-2.2,3.7-2.1,5.9,1.5
		c0.4,0.7,0.4,1-0.3,1.5c-3.6,2.8-3.6,2.8-1.3,6.7c0.6,1,0.6,2,0.4,3.1s-1.1,1.6-1.9,1.8c-0.7,0.2-0.6-1-0.9-1.5
		c-0.9-1.7-1.8-3.3-2.6-5c-0.4-0.8-1.2-0.5-1.8-0.3c-1.7,0.4-3.4,0.9-5.1,1.4c-0.7,0.2-1.3,0.1-1.9-0.1c-0.2-0.5-0.1-0.8,0.3-1.2
		c0.9-0.8,1.7-1.9,2.6-2.6c1.3-1,1.1-2.4,0.3-3.2c-1.4-1.5-2.8-3-4.6-4.1c-1.5-1.5-3.5-2.2-5.4-3.1c-0.5-0.5-1.1-0.7-1.8-0.7
		c-1-0.5-2-0.9-3.1-0.4c-1,0.5-1.6,0.4-2.4-0.5c-1.5-1.7-3.7-0.9-4.5,1.1c-0.6,1.8-0.8,3.8-2,5.6c-0.4-0.7-0.8-1.3-1.1-1.8
		c0-0.7-0.3-1.2-0.7-1.7c-0.2-0.9-0.6-1.8-0.7-2.7c-0.2-1.2-0.9-1.3-1.8-1.1c-3.1,0.8-6.2,1.7-9,3.4c-3.5,1.2-6.7,2.7-9.1,5.6
		c-1.1,1.3-1.5,2.8,0,4.2c1,0.9,1.8,1.9,2.3,3.2c-1.2,0.4-2.3,0.1-3.4-0.3c-3-1.2-3.8-0.9-5.3,1.8c-2.7,5.1-3.5,11-3.6,17
		c0,1.2,1,2,1.8,2.2c2.5,0.6,4.4,2.4,7,2.6c-0.3,1.2-1.3,1.2-2.1,1.3c-1.8,0.2-3.5,0.5-5.3,0.7c-0.9,0.1-1.1,0.6-0.9,1.3
		c0.9,3.7,2,7.3,4.1,10.5c0.5,0.8,1.1,1.5,0.8,2.7c-3.1-2.6-5-6-6.4-9.6c-0.2-0.5-0.4-1.1-0.6-1.7c-0.7-2-1.7-3.4-4.3-3.1
		c-2.9,0.3-3.5-0.6-3.6-3c0-1,0.3-1.8,1.2-2.2c0.9-0.4,0.7,1,1.5,1.2c0.7-0.8,1.2-1.9,2.5-2.2c0.9-0.3,0.6-1.3,0.8-2
		c0.4-1.5-0.7-3.3,1.1-4.4c0.1,0,0-0.3,0-0.5c-0.7-4.8,1.6-8.9,3.3-13c0.8-1.9,0.5-2.8-1.3-3.6c-0.8-0.3-2.4-0.6-2-1.8
		c0.6-1.8,0.9-4,2.7-5.2c0.3-0.2,0.8,0,1.2,0.2c0.4,0.3,0.7,0.6,1.1,0.9c2.5,2,2.4,1.9,4.8,0c3.2-2.6,6.7-4.7,10.2-6.9
		c0.8-0.5,1.9,0,2.4-1c2.1-0.6,4.2-1.2,6.2-2C58.5,20.7,60.2,20.2,60.3,18.2z"/>
	<path class="st1" d="M106.4,63.8c0-0.1,0-0.1,0-0.2c0.1-1.7-0.4-2.4-2.4-2.1c-2.8,0.5-3.2,0-3.2-2.8c0-0.6,0-1.2,0-1.8
		c-0.2-3.1-0.2-6.2-1.2-9.1c-0.4-1.2-1-1.1-1.7-0.3c-0.9,1.1-1.4,2.3-0.4,3.5c0.7,0.9,0.7,1.8,0.5,2.9c-0.2,1.4-0.4,2.8-0.2,4.2
		c0.3,3.5,0,3.8-3.4,4.8c-1.2,0.4-2.4,0.8-3.6,1.1c-0.9,0.3-1.7,0.7-2.4,1.4c1.8,0.5,3.6,1,5.4,0.9c1.9,0,2.4,1,2.4,2.7
		c0,1.3-0.6,2.6-0.3,4c1.6,1.4,2.1,0.4,2.6-0.7c0.3-0.8,0.7-1.6,0.9-2.5c0.5-1.7,1.5-2.6,3.4-2.4C106.7,67.9,106.7,67.8,106.4,63.8z
		"/>
	<polygon class="st2" points="76.8,4.8 76.8,4.7 76.9,4.8 	"/>
	<path class="st2" d="M67.1,30.7C67.1,30.7,67.1,30.8,67.1,30.7C67.1,30.8,67.1,30.7,67.1,30.7L67.1,30.7z"/>
</g>
</svg>
